<svg id="Layer_1" data-name="Layer 1" xmlns="http://www.w3.org/2000/svg" width="1560" height="789" viewBox="0 0 1560 789"><defs><style>.cls-1{stroke:#fff;stroke-miterlimit:10;stroke-width:6px;}.cls-1,.cls-3{opacity:0.5;}.cls-2{fill:#fff;}.cls-4{fill:#666;}.cls-5{fill:#ccc;}.cls-6{fill:#0062b9;}</style></defs><title>game_over</title><rect class="cls-1" x="3" y="3" width="1554" height="783"/><path class="cls-2" d="M685.32,284a48.65,48.65,0,0,1,.68-5.21q.53-2.94,1.59-7.62c.4-1.72,1.1-6,2.11-13a8.71,8.71,0,0,0-.6-2.87c-.2-.6-.46-1.46-.76-2.57q-3.17-19.77-3.17-56.62v-9.51q0-35.94,11-35.94a5.84,5.84,0,0,1,2.26.75,5.16,5.16,0,0,0,2.11.91l.61-.3.75.75a58.1,58.1,0,0,0,2.57-11c.4-2.12.7-3.85.91-5.21s.35-2.29.45-2.79h2.72l-.15,4.38-3.18,18.27q0,1.8,2.27,4.38l-.15.3a7.76,7.76,0,0,0,1.51,3.32,5.2,5.2,0,0,1,.75,1.21,27.59,27.59,0,0,1,1.66,10.11l-.3.16q0,3.77,1.21,13.89a120.39,120.39,0,0,1,1.06,13.89v.91l.3.45.3,14.34q.15,6.34.15,14.2,0,5.28-.15,9.66a66.4,66.4,0,0,1-1.66,11.33,20.25,20.25,0,0,1-4.53,9.21q-2.86,4.08-8.61,4.07c-3.42,0-5.89-1-7.39-3h-.16q-.75,5.14-3.92,21Zm7.55-45q.92-7.25,2.57-22.8l1.36-12.38.3-3.32c.2-1.81.43-3.93.68-6.34s.48-5.14.68-8.16l.6-6.79.31-3.32.75-5.29A105.36,105.36,0,0,0,701.18,159a3.74,3.74,0,0,0-1.51-3,5.24,5.24,0,0,0-3.32-1.2l-.61.15-1.06.45-.75.3-.91-.3q-4.68,2.87-4.68,48.17v.9c0,4.53.46,7.86,1.36,10q0,5.13.91,15.86.9,10.56.9,15.85Q692,245.68,692.87,239Zm17.22-2.11q0-62.37-5.44-72.93-2,12.82-4.53,42.13-2.42,29.13-5.44,44.39c-.7,4.43-1,6.79-1,7.1,0,2.51.5,4.33,1.51,5.43s2.72,1.66,5.13,1.66Q710.08,264.7,710.09,236.92Z"/><path class="cls-2" d="M749.8,267.57a12.2,12.2,0,0,1-1.66-.45q-2.71-11.17-6-33.37l-8.31-53.91-1.36-6.64q-3.31-13-3.32-18.27a2.91,2.91,0,0,1,.68-1.89,1.9,1.9,0,0,1,1.44-.83,2.42,2.42,0,0,1,1,.3,2.93,2.93,0,0,1,1.36,1.66,5.16,5.16,0,0,1,.61,2.27l.3,2.11,2.11,11.63,1.36,8L745.57,230l2,14.35q1.22,7.25,2,13.74l1-10.72L752.21,230l3.63-33.07q1.35-14,2-18.42l.76-7.85,1.05-7.55q.76-4.53,1.06-8.46c.2-1.91,1.16-2.87,2.87-2.87l.91.61h-.31l1.51,1.21a99.17,99.17,0,0,1-1.2,12.83l-.91,5.89-.45,3.78q-2,16.45-2.42,20.53-2.26,19.18-4.76,41.53t-2.64,26.27c-.81,2.21-1.76,3.32-2.87,3.32Zm-.15-8.61-.15-.45-.31.45Z"/><path class="cls-2" d="M791.78,267.57l-2-.9a11.33,11.33,0,0,1-2.41-3.17,4.59,4.59,0,0,1,1.51-3.1,4.25,4.25,0,0,1,3-1.59,4,4,0,0,1,3.32,1.59,6.45,6.45,0,0,1,1.21,4q0,3.78-3.78,3.93C792.48,267.82,792.18,267.57,791.78,267.57Zm0-25.21-.16-.31V205.81l.31-12.83V180q0-6.8-.46-11.93l-.3-4.07-.3-7.7a3.63,3.63,0,0,1,1.59-2.8,5,5,0,0,1,3.09-1.28,1.73,1.73,0,0,1,2,2q0,13.29-1.51,36.09-1.66,25.22-1.66,36.09l.15,3V233q0,6.34-1.2,8.91l.45.76h-2Z"/><path class="cls-2" d="M242,386c-.8-.4-1.2-.86-1.2-1.4a4.9,4.9,0,0,1,.8-2,3.44,3.44,0,0,0,.7-2l-.3-8.8-.7-27.3-.2-12.1q-.1-11.1-.5-13.9a12.46,12.46,0,0,0-.8-2.5,9.06,9.06,0,0,1-.7-2.7q0-2.4,7.6-2.4h.5a12.39,12.39,0,0,1,8.8,3.5q2.89,2.7,5.2,8.5a55.5,55.5,0,0,1,2.4,10.3c.26,2,.5,5.07.7,9.2v3.1a60.8,60.8,0,0,1-1.65,13.45A64.78,64.78,0,0,1,258,372.46a28,28,0,0,1-4.65,7.2,33.26,33.26,0,0,1-5.45,5c-1.74,1.24-2.9,1.85-3.5,1.85A5.33,5.33,0,0,1,242,386Zm3.9-4.5a20.24,20.24,0,0,0,6.6-5.55,30.69,30.69,0,0,0,4.6-8.05,50,50,0,0,0,2.5-8.45,83.66,83.66,0,0,0,1.4-8.85q.3-3.6.3-6.9,0-29.19-16.1-29.2c-1.4,0-2.1.37-2.1,1.1,0,2.34.13,5.1.4,8.3s.4,6,.4,8.3q0,5.5.8,19.1.69,11.81.7,19v11.2Z"/><path class="cls-2" d="M285.15,386.81a11.1,11.1,0,0,1-3-2.45q-1.41-1.8-2.2-10.1t-1-19c0-1.6,0-2.8-.1-3.6q-.21-25.1-.8-29.7l.6-1.4c1.53.2,2.3,2,2.3,5.5l.3,26.5c0,1.87.16,5.4.5,10.6q.6,7,.6,10.6,0,11.4,7.5,11.4,4.59,0,5.9-21l.1-2q.69-27.5.7-40.7l-.1-.9a3.49,3.49,0,0,1-.1-.9c0-.73.56-1.1,1.7-1.1q1.2,0,1.5.6a21.06,21.06,0,0,1,.2,3.5,55.12,55.12,0,0,1-.6,10.2l.1.6a40,40,0,0,1-.3,4l-.2,4v1a4.61,4.61,0,0,1,.1,1c-.14,1.6-.2,3.14-.2,4.6a16.67,16.67,0,0,0-.1,2.2q-.21,9.51-.4,16.5a50.12,50.12,0,0,1-2.4,14.7q-2.2,6.41-7.1,6.4A7,7,0,0,1,285.15,386.81Z"/><path class="cls-2" d="M331.9,386.26a234.79,234.79,0,0,0,1-24.3q0-6.69.6-20.2.69-12.5.7-20.1a1.55,1.55,0,0,1,.85-1.4,3.77,3.77,0,0,1,1.95-.5,41.72,41.72,0,0,1,7.7.8q4.2.81,4.2,2.1c0,1.14-1.17,1.7-3.5,1.7a13.72,13.72,0,0,0-5.6-1l-1.2.1a.94.94,0,0,0-.45.3,1.69,1.69,0,0,0-.25.6,4.11,4.11,0,0,1-.4,1.1c0,3-.14,6.54-.4,10.6s-.5,7.44-.5,10.5v3.5c0,.27.53.37,1.6.3,3.4,0,5.1.54,5.1,1.6a1.61,1.61,0,0,1-.75,1.35,2.71,2.71,0,0,1-1.65.55,7,7,0,0,1-1.7-.3,6.15,6.15,0,0,0-1.7-.3c-1.2,0-1.8,1.64-1.8,4.9v11.3q0,2.4.3,7.1t.3,7.2q0,4-2.4,4Zm29.8-.9a2.79,2.79,0,0,0-.8.1h-.8c-1.47,0-2.4-.33-2.8-1a1.43,1.43,0,0,1,.8-1.2l.5-.5h2.9l.4-.4.2-.9.1-1.2c0-4.06-.1-7.7-.3-10.9l-.2-3.7-.2-7.3q0-3.9.3-11.7l.2-11.6a101.52,101.52,0,0,0-.5-11.6,10.53,10.53,0,0,0-3-.3l-1.1.1a7.62,7.62,0,0,1-1.3.1c-1.27,0-1.9-.56-1.9-1.7,0-.26.3-.53.9-.8a4,4,0,0,1,1.5-.4,74.56,74.56,0,0,1,7.6.4,16.37,16.37,0,0,1,4.6.9c1.2.4,1.8,1,1.8,1.7a2.36,2.36,0,0,1-.3.8l-2.3.2a4.81,4.81,0,0,0-2.9-.6l-.5.3a25.39,25.39,0,0,1,.3,5.3c0,4.4,0,8.37-.1,11.9l-.2,11.9c0,3,.13,6.64.4,10.9q.3,7.3.3,11v1.3a12.72,12.72,0,0,0-.1,1.8,7.34,7.34,0,0,0,.3,2.8l-.1.2c0,.67.73,1,2.2,1a9,9,0,0,0,1.5-.1h1.5c1.93,0,2.9.47,2.9,1.4a1.86,1.86,0,0,1-.6,1.45,2.27,2.27,0,0,1-1.6.55,5.56,5.56,0,0,1-1.6-.2,15.24,15.24,0,0,0-1.7-.1,5.36,5.36,0,0,0-1.8.5,4.61,4.61,0,0,1-1.8.6C362.86,386.36,362,386,361.7,385.36Z"/><path class="cls-2" d="M398.89,379.16a153.25,153.25,0,0,1-5.4-18,90.79,90.79,0,0,1-2.5-13.6l-.3-.4-1.5,3.2q-1.1,2.1-1.65,3.45a27.64,27.64,0,0,0-1.05,3.35,12.91,12.91,0,0,0-.6,3.9,27.84,27.84,0,0,1-.2,3.6l-.2,3.6v12.8a22.06,22.06,0,0,0,.3,2.9,18.32,18.32,0,0,1,.3,2.8,1,1,0,0,1-.5.85,1.82,1.82,0,0,1-1.1.35,2.73,2.73,0,0,1-1.75-.4,2.29,2.29,0,0,1-.45-1.7v-18.8q0-1.59.5-6.3c.34-3.13.5-5.23.5-6.3q0-4.2.5-9.7t.4-9.6v-13.9a2,2,0,0,1,1.9-1.1,1.88,1.88,0,0,1,1.9,1.9,12,12,0,0,0-.8,4.8l-.2,10.5c-.13,3.2-.2,6.74-.2,10.6q1-.3,7.8-13.8t7.5-13.4c1.74,0,2.6.57,2.6,1.7a138.07,138.07,0,0,0-10.6,18.5l-.1,3.2c-.06.94-.1,2-.1,3.2q0,4.41,3.4,16.5t5.8,16.8c.74,1,1.17,1.57,1.3,1.7a16.48,16.48,0,0,1,1.45,2.35,4.55,4.55,0,0,1,.45,2,1.3,1.3,0,0,1-.5,1.1,1.83,1.83,0,0,1-1.2.4Q402.19,388.16,398.89,379.16Z"/><path class="cls-2" d="M435.49,385.36a2.84,2.84,0,0,0-.8.1h-.8c-1.47,0-2.4-.33-2.8-1a1.45,1.45,0,0,1,.8-1.2l.5-.5h2.9l.4-.4.2-.9.1-1.2c0-4.06-.1-7.7-.3-10.9l-.2-3.7-.2-7.3q0-3.9.3-11.7l.2-11.6a101.52,101.52,0,0,0-.5-11.6,10.53,10.53,0,0,0-3-.3l-1.1.1a7.54,7.54,0,0,1-1.3.1c-1.27,0-1.9-.56-1.9-1.7,0-.26.3-.53.9-.8a4,4,0,0,1,1.5-.4,74.41,74.41,0,0,1,7.6.4,16.3,16.3,0,0,1,4.6.9c1.2.4,1.8,1,1.8,1.7a2.36,2.36,0,0,1-.3.8l-2.3.2a4.79,4.79,0,0,0-2.9-.6l-.5.3a25.39,25.39,0,0,1,.3,5.3q0,6.6-.1,11.9l-.2,11.9c0,3,.13,6.64.4,10.9q.3,7.3.3,11v1.3a12.72,12.72,0,0,0-.1,1.8,7.34,7.34,0,0,0,.3,2.8l-.1.2c0,.67.73,1,2.2,1a9,9,0,0,0,1.5-.1h1.5c1.93,0,2.9.47,2.9,1.4a1.86,1.86,0,0,1-.6,1.45,2.25,2.25,0,0,1-1.6.55,5.6,5.6,0,0,1-1.6-.2,15.1,15.1,0,0,0-1.7-.1,5.36,5.36,0,0,0-1.8.5,4.61,4.61,0,0,1-1.8.6C436.66,386.36,435.76,386,435.49,385.36Z"/><path class="cls-2" d="M472.69,379.16a151.37,151.37,0,0,1-5.4-18,89.47,89.47,0,0,1-2.5-13.6l-.3-.4-1.5,3.2q-1.1,2.1-1.65,3.45a24.49,24.49,0,0,0-1,3.35,12.91,12.91,0,0,0-.6,3.9,29.75,29.75,0,0,1-.2,3.6l-.2,3.6v12.8a22.06,22.06,0,0,0,.3,2.9,18.32,18.32,0,0,1,.3,2.8,1,1,0,0,1-.5.85,1.82,1.82,0,0,1-1.1.35,2.71,2.71,0,0,1-1.75-.4,2.29,2.29,0,0,1-.45-1.7v-18.8q0-1.59.5-6.3t.5-6.3q0-4.2.5-9.7t.4-9.6v-13.9a2,2,0,0,1,1.9-1.1,1.86,1.86,0,0,1,1.35.55,1.83,1.83,0,0,1,.55,1.35,12,12,0,0,0-.8,4.8l-.2,10.5c-.13,3.2-.2,6.74-.2,10.6q1-.3,7.8-13.8t7.5-13.4c1.73,0,2.6.57,2.6,1.7a137,137,0,0,0-10.6,18.5l-.1,3.2c-.07.94-.1,2-.1,3.2q0,4.41,3.4,16.5t5.8,16.8c.73,1,1.17,1.57,1.3,1.7a16.48,16.48,0,0,1,1.45,2.35,4.55,4.55,0,0,1,.45,2,1.33,1.33,0,0,1-.5,1.1,1.83,1.83,0,0,1-1.2.4Q476,388.16,472.69,379.16Z"/><path class="cls-2" d="M505.69,379.16a149.53,149.53,0,0,1-5.4-18,89.47,89.47,0,0,1-2.5-13.6l-.3-.4-1.5,3.2q-1.1,2.1-1.65,3.45a24.49,24.49,0,0,0-1,3.35,12.91,12.91,0,0,0-.6,3.9,29.75,29.75,0,0,1-.2,3.6l-.2,3.6v12.8a22.06,22.06,0,0,0,.3,2.9,18.32,18.32,0,0,1,.3,2.8,1,1,0,0,1-.5.85,1.82,1.82,0,0,1-1.1.35,2.71,2.71,0,0,1-1.75-.4,2.29,2.29,0,0,1-.45-1.7v-18.8q0-1.59.5-6.3t.5-6.3q0-4.2.5-9.7t.4-9.6v-13.9a2,2,0,0,1,1.9-1.1,1.87,1.87,0,0,1,1.35.55,1.83,1.83,0,0,1,.55,1.35,12,12,0,0,0-.8,4.8l-.2,10.5c-.13,3.2-.2,6.74-.2,10.6q1-.3,7.8-13.8t7.5-13.4c1.73,0,2.6.57,2.6,1.7a137,137,0,0,0-10.6,18.5l-.1,3.2c-.07.94-.1,2-.1,3.2q0,4.41,3.4,16.5t5.8,16.8c.73,1,1.17,1.57,1.3,1.7a16.48,16.48,0,0,1,1.45,2.35,4.55,4.55,0,0,1,.45,2,1.33,1.33,0,0,1-.5,1.1,1.83,1.83,0,0,1-1.2.4Q509,388.16,505.69,379.16Z"/><path class="cls-2" d="M522.39,385.56v-1.3a5.91,5.91,0,0,0,.1-1.2l-.4-.4a11.52,11.52,0,0,0,.8-4.1q0-2.3-.3-6.6l-.2-6.6q0-5,.3-15,.4-8.89.4-15.1l-.2-6q-.2-2.7-.2-6a2.82,2.82,0,0,1,.7-2.15,3.18,3.18,0,0,1,2.2-.65,2.16,2.16,0,0,1,1.6.6,23.49,23.49,0,0,0,2.9.4,22,22,0,0,1,4.3.9c1.27.4,1.9.9,1.9,1.5s-.63,1.34-1.9,2c-3.8-1.26-6.5-1.9-8.1-1.9l-.5.6c.07.6.1,2,.1,4.3q0,4.31-.2,7.7t-.1,7.8c0,1.87.47,2.8,1.4,2.8l1.6-.1a15.1,15.1,0,0,1,1.7-.1q3.9,0,3.9,1.8a3.27,3.27,0,0,1-.5,1.85,1.68,1.68,0,0,1-1.5.75,3.08,3.08,0,0,1-2.3-.8l-3.2-.5h-.5l-.5.5v.3q.19,1.71.2,7.9,0,3.9-.1,7.1l-.1,7.1q0,3.9.3,8c.07,1.54.4,2.55,1,3.05a5.33,5.33,0,0,0,3.3.75l1.8-.1c.6-.06,1.27-.1,2-.1,1.93,0,2.9.44,2.9,1.3q0,1.8-4.4,1.8h-8.2C523.19,387.66,522.52,387,522.39,385.56Z"/><path class="cls-2" d="M564.19,386.71a2.12,2.12,0,0,1-1.1-1.55l.5-.8a11.92,11.92,0,0,1,1.8.3,5.42,5.42,0,0,0,1.8.4,5.3,5.3,0,0,0,3.9-1.75,11.39,11.39,0,0,0,2.6-4.55,37.85,37.85,0,0,0,1.4-9.8q0-6.9-4.2-14.8c-1.74-3.06-3.07-5.5-4-7.3a37.54,37.54,0,0,1-2.5-6.2,26,26,0,0,1-1.3-7.9,25.28,25.28,0,0,1,1.8-8.5,9.54,9.54,0,0,1,2.55-3.75,5.31,5.31,0,0,1,3.55-1.45,4.36,4.36,0,0,1,2.55.9,2.47,2.47,0,0,1,1.25,1.9c0,.54-.44.8-1.3.8a2.35,2.35,0,0,1-1-.3,2.5,2.5,0,0,0-1.1-.3,3.73,3.73,0,0,0-2.7,1.2,7.52,7.52,0,0,0-1.8,3.1,22.24,22.24,0,0,0-1.2,6.8,15.69,15.69,0,0,0,.5,3.9,9.22,9.22,0,0,0,.2,1,3.3,3.3,0,0,1,.1.6l.6,2,.5,1.8.8,1.8a7.68,7.68,0,0,0,.65,1.25l.65,1.05,1.2,2.1c.26.4.83,1.35,1.7,2.85a52.69,52.69,0,0,1,2.4,4.75,24.91,24.91,0,0,1,1.5,3.95,43.83,43.83,0,0,1,.9,4.45,46.41,46.41,0,0,1,.3,5.5,30.5,30.5,0,0,1-1.3,9q-1.8,5-5.2,7a8.09,8.09,0,0,1-4.4,1.2l-.5.2A5.45,5.45,0,0,1,564.19,386.71Zm10.1-64.35a.09.09,0,0,0-.1-.1v.1Z"/><path class="cls-2" d="M608,387.26s-.14-.11-.4-.35a3.24,3.24,0,0,1-.6-1.85c-.6-4.86-1-7.9-1.1-9.1l-.5-4a22.93,22.93,0,0,0-5-.5l-3.6-.2a31.77,31.77,0,0,0-3.5-.3c-.4,0-.64.17-.7.5s0,.3-.1.3l-.2,2q-.1,1.8-1.1,7.2a18.74,18.74,0,0,1-1.2,4.2c-.54,1.14-1,1.7-1.5,1.7a2.13,2.13,0,0,1-1.3-.55,1.49,1.49,0,0,1-.7-1.15l.1-.3.1-.3q1.8-7.1,3-14.1l1.2-6.2,1.2-7.6,1.1-6.6q.49-2.7,1.8-8.7,1.39-6.8,1.7-9.3c.06-.2.2-1.43.4-3.7.26-2.53.5-4.4.7-5.6a9.62,9.62,0,0,1,.6-3h.7a2.11,2.11,0,0,0,.7.1,2.44,2.44,0,0,0,1.8-.6,1.94,1.94,0,0,1,1.25.45,1.35,1.35,0,0,1,.55,1.05,98.43,98.43,0,0,0,.7,11c.26,2.14.46,3.9.6,5.3q1.09,12.9,5.6,48.4v.3a1.65,1.65,0,0,1-.8,1.5Zm-3.1-18q-1-14.4-3.8-42.5l-5.4,26.7q-2.31,11.51-2.3,14.5c0,.34,1.26.64,3.8.9a63.83,63.83,0,0,0,6.7.4Z"/><path class="cls-2" d="M658.59,385.16v-6.6q0-14.4-.6-22.5l-.3-3.7a27.76,27.76,0,0,1-.4-4.4c0-2.26.06-4.33.2-6.2l.2-6.2a21.18,21.18,0,0,0-.4-4.7q-2,1.41-12.1,42.1l-.1,1.5a21.19,21.19,0,0,1-.8,4,4.1,4.1,0,0,1-.85,1.7,1.68,1.68,0,0,1-1.25.6,2.88,2.88,0,0,1-2.3-.8,3.7,3.7,0,0,1-.7-2.5q0-2.7-2.55-14t-5.5-21.7q-3-10.39-4-11.5-.11,3.51-.8,16.5-1.41,23-1.4,36.2l.1,4a1.92,1.92,0,0,1-2.1,1.3,2.07,2.07,0,0,1-1-.55c-.47-.36-.7-.65-.7-.85q0-9,1.6-31.6,1.5-21,1.5-31.5a2.78,2.78,0,0,0-.2-1,2.3,2.3,0,0,1-.3-.9c0-1,.86-1.5,2.6-1.5a1.79,1.79,0,0,1,2,1.5,17.66,17.66,0,0,1,.4,3l.1,1.2a41.61,41.61,0,0,0,2.9,8,75.56,75.56,0,0,1,2.9,7.5c.4,1.6.76,2.9,1.1,3.9q1.59,5.81,2.1,8.6l1.3,2.6c.2,1,.6,2.64,1.2,4.9.6,2.54,1,4.6,1.3,6.2a28.81,28.81,0,0,1,.4,4.6q1.1-1.69,6.25-20.45t6-24a2.22,2.22,0,0,0,.15-.55c0-.23.08-.55.15-1a38.83,38.83,0,0,1,.9-3.9c.53-1.33,1.33-2,2.4-2a3,3,0,0,1,1.6.6q.9.6.9,1.2,0,41.7,1.3,44.1v5.2c-.07,1.54-.1,3.3-.1,5.3a48.26,48.26,0,0,0,.7,9.6.84.84,0,0,1,.15.3,4.27,4.27,0,0,0,.15.5,4.13,4.13,0,0,1,.1.9,4.3,4.3,0,0,1-.65,2.2,1.84,1.84,0,0,1-1.55,1.1C659.25,391.56,658.59,389.43,658.59,385.16Zm-1.3-54.9h-.1l-.2.1.3.1Z"/><path class="cls-2" d="M677.88,385.36a14.67,14.67,0,0,0,.2-3.3q0-9.19.3-27.3t.3-26l.2-3.6.3-3a.62.62,0,0,1,.7-.7,4.75,4.75,0,0,1,1.4.3l.3.1c0,1.47,0,2.8-.1,4v14.8c.07,3.2.1,6.84.1,10.9a15.68,15.68,0,0,0-.1,2.2l-.1,2.1c-.06,1.34-.1,2.7-.1,4.1s0,2.94.1,4.2l.1,4.3-.3.8.1-.1a.55.55,0,0,1-.1.4v.4a3.07,3.07,0,0,0,.3,1.4l-.3,9.6v.6a11,11,0,0,0,.1,2,.44.44,0,0,0,.5.5l5.2.2c1.54,0,2.59,0,3.15.05s.92.05,1,.05h.3a1.4,1.4,0,0,1,1,.55,1.67,1.67,0,0,1,.5,1.15c0,.8-.53,1.24-1.6,1.3s-3.9-.1-8.3-.1l.2.1c-.66,0-1.3,0-1.9.1a7.08,7.08,0,0,1-1.8.2C678.65,387.66,678.08,386.9,677.88,385.36Z"/><path class="cls-2" d="M702.58,385.56v-1.3a5.91,5.91,0,0,0,.1-1.2l-.4-.4a11.31,11.31,0,0,0,.8-4.1q0-2.3-.3-6.6l-.2-6.6q0-5,.3-15,.4-8.89.4-15.1l-.2-6q-.2-2.7-.2-6a2.86,2.86,0,0,1,.7-2.15,3.18,3.18,0,0,1,2.2-.65,2.16,2.16,0,0,1,1.6.6,23.88,23.88,0,0,0,2.9.4,22,22,0,0,1,4.3.9c1.27.4,1.9.9,1.9,1.5s-.63,1.34-1.9,2c-3.8-1.26-6.5-1.9-8.1-1.9l-.5.6c.07.6.1,2,.1,4.3,0,2.87-.06,5.44-.2,7.7s-.1,4.94-.1,7.8c0,1.87.47,2.8,1.4,2.8l1.6-.1a15.24,15.24,0,0,1,1.7-.1q3.9,0,3.9,1.8a3.2,3.2,0,0,1-.5,1.85,1.68,1.68,0,0,1-1.5.75,3.1,3.1,0,0,1-2.3-.8l-3.2-.5h-.5l-.5.5v.3c.14,1.14.2,3.77.2,7.9q0,3.9-.1,7.1l-.1,7.1q0,3.9.3,8c.07,1.54.4,2.55,1,3.05a5.33,5.33,0,0,0,3.3.75l1.8-.1c.6-.06,1.27-.1,2-.1,1.94,0,2.9.44,2.9,1.3,0,1.2-1.46,1.8-4.4,1.8h-8.2C703.38,387.66,702.72,387,702.58,385.56Z"/><path class="cls-2" d="M734.88,385l-.1-3.7c-.06-1.06-.1-2.26-.1-3.6a13.53,13.53,0,0,1,.1-1.7l.1-1.8a8.91,8.91,0,0,0-.4-2.4q0-6.69-1-24.9-1-17.6-1.1-23.9a72.45,72.45,0,0,1-8.3-.3c-1.33-.33-2-.86-2-1.6A1.9,1.9,0,0,1,724,320c2,0,4.9.14,8.7.4,3.47.34,6.37.5,8.7.5h2.1l2.1-.1c1.2,0,1.8.44,1.8,1.3a1,1,0,0,1-.65.95,3.14,3.14,0,0,1-1.55.35c-1.33,0-2.73-.06-4.2-.2l-4.3-.2c-.26,0-.4.1-.4.3a10.2,10.2,0,0,0-.1,1.9q0,9.7,1.2,29.4,1.11,20.4,1.1,29.3a1.64,1.64,0,0,1-.85,1.3,2.84,2.84,0,0,1-1.65.6Z"/><path class="cls-2" d="M799.78,386.76s-.11-.2-.35-.6a7.32,7.32,0,0,1-.65-1.8,4.42,4.42,0,0,0-.4-1.4l.1-.3a63.26,63.26,0,0,0-3.4-11.5l-1.8-5.2a49.33,49.33,0,0,1-1.9-5.1l-.8-2.4q-9-27.79-11.3-30.1a25.42,25.42,0,0,0-.8,7c0,1.54,0,2.87.1,4l.1,3.9-.1,2.4c-.07.74-.1,1.54-.1,2.4a31.71,31.71,0,0,0,.2,3.8l.2,3.2h-.3q0,16.71.7,18.4v9a4.71,4.71,0,0,1,.4,2.1,2,2,0,0,1-.55,1.4,1.77,1.77,0,0,1-1.35.6q-2.1,0-2.1-5.4l.2-3.2a25.66,25.66,0,0,0,.2-3.3q0-4.8-.3-14.4t-.3-14.4q0-2.89.3-8.9t.3-8.8v-1.3c0-3.26.6-5.4,1.8-6.4l.3.3,1-.2a2.13,2.13,0,0,1,.9.6,1.24,1.24,0,0,1,.4.9l.2.6a1.52,1.52,0,0,0,.1.5q1.61,7.11,7.2,19.9,5.7,13.5,7.1,17.9c.67,2.34,1.2,4.4,1.6,6.2a49.31,49.31,0,0,0,4.5,13.1l.2-.3q2.31-22.2,2.3-54.5l-.1-1.2a6.52,6.52,0,0,1-.1-1.3c0-1.4.47-2.1,1.4-2.1a1.88,1.88,0,0,1,1.55.9,3.37,3.37,0,0,1,.65,2v6.7l-.5.8q0,9.51-1.1,31.2t-2.1,23.6l-1.7.4v.1l-.1-.1-1,.3Z"/><path class="cls-2" d="M819.78,351.46V348q0-27.9,7.2-27.9a4.82,4.82,0,0,1,1.4.3,27.09,27.09,0,0,0,6.3,1.4c1.27.27,2.53,1.57,3.8,3.9a29.11,29.11,0,0,1,3.15,9.5,69,69,0,0,1,1,12.1l-.2.5c0,2.2,0,4.17.1,5.9l.1,6q0,5.1-.4,9.2a53.94,53.94,0,0,1-2,10.7,20.17,20.17,0,0,1-2,4.5,10.74,10.74,0,0,1-2.85,3,6.33,6.33,0,0,1-3.9,1.2Q819.78,388.26,819.78,351.46Zm17.1,28.4a44.92,44.92,0,0,0,2.3-11.4q.41-6,.4-9.6,0-4-.6-11.8-.5-8.7-.5-11.8l-.4-.8.2-.5a12.18,12.18,0,0,0-2.45-7.6,7.29,7.29,0,0,0-6-3.2q-4.61,0-5.5,4.4c-.13,1-.27,2.44-.4,4.3a55.3,55.3,0,0,1-.6,10.1c0,1-.1,2.57-.3,4.7l-.2,4.7c0,1.47,0,2.77.1,3.9l.1,4a84.59,84.59,0,0,0,.8,10.8,66.32,66.32,0,0,0,1.4,7.6,16.6,16.6,0,0,0,2.3,5.3c1,1.6,2.17,2.4,3.5,2.4Q835,385.36,836.88,379.86Z"/><path class="cls-2" d="M871.88,379.16a149.53,149.53,0,0,1-5.4-18,89.47,89.47,0,0,1-2.5-13.6l-.3-.4-1.5,3.2q-1.09,2.1-1.65,3.45a24.49,24.49,0,0,0-1,3.35,12.91,12.91,0,0,0-.6,3.9,29.75,29.75,0,0,1-.2,3.6l-.2,3.6v12.8a22.06,22.06,0,0,0,.3,2.9,18.32,18.32,0,0,1,.3,2.8,1,1,0,0,1-.5.85,1.82,1.82,0,0,1-1.1.35,2.71,2.71,0,0,1-1.75-.4,2.29,2.29,0,0,1-.45-1.7v-18.8q0-1.59.5-6.3t.5-6.3q0-4.2.5-9.7t.4-9.6v-13.9a2,2,0,0,1,1.9-1.1,1.87,1.87,0,0,1,1.35.55,1.83,1.83,0,0,1,.55,1.35,12,12,0,0,0-.8,4.8l-.2,10.5c-.13,3.2-.2,6.74-.2,10.6q1-.3,7.8-13.8t7.5-13.4c1.73,0,2.6.57,2.6,1.7a137,137,0,0,0-10.6,18.5l-.1,3.2c-.07.94-.1,2-.1,3.2q0,4.41,3.4,16.5t5.8,16.8c.73,1,1.17,1.57,1.3,1.7a16.48,16.48,0,0,1,1.45,2.35,4.55,4.55,0,0,1,.45,2,1.33,1.33,0,0,1-.5,1.1,1.83,1.83,0,0,1-1.2.4Q875.18,388.16,871.88,379.16Z"/><path class="cls-2" d="M907.18,387.56a83.7,83.7,0,0,1-1.1-14.4q0-3.2.3-9.3l.2-9.3a5.41,5.41,0,0,1-.7-2.3c.66-1.06,1-4.13,1-9.2q0-18.19-.5-19.4c.6-1.66,1.06-2.5,1.4-2.5h4.4a7.77,7.77,0,0,1,3.15,1,18.06,18.06,0,0,1,3.45,2.25q2.49,2.31,2.5,11.8a76,76,0,0,1-.3,7.8,11.49,11.49,0,0,1-.65,3,15.42,15.42,0,0,1-1.35,2.5,11.91,11.91,0,0,1-5.1,4,22.6,22.6,0,0,1-4.2,1.6v11.9c0,1.67.16,4.94.5,9.8l.2,3.2.2,6.5c0,1.2-.64,1.8-1.9,1.8Zm8.1-38.5a11.34,11.34,0,0,0,1.3-2.7,16.15,16.15,0,0,0,.8-3.3,33.26,33.26,0,0,0,.6-6.7v-2.7c0-.93,0-1.83-.1-2.7a15.52,15.52,0,0,0-.4-2.5,7.07,7.07,0,0,0-1.05-2.15,5.63,5.63,0,0,0-1.75-1.45,6.44,6.44,0,0,0-2.9-.6,2.1,2.1,0,0,0-1.7.6,3.3,3.3,0,0,0-.5,2.1q0,2.4.3,7.2l.2,7.2c0,1.74-.07,3.3-.2,4.7l-.2,4.7.7,1A5.94,5.94,0,0,0,915.28,349.06Z"/><path class="cls-2" d="M930.78,351.46V348q0-27.9,7.2-27.9a4.82,4.82,0,0,1,1.4.3,27.09,27.09,0,0,0,6.3,1.4q1.89.4,3.8,3.9a29.11,29.11,0,0,1,3.15,9.5,69,69,0,0,1,1,12.1l-.2.5c0,2.2,0,4.17.1,5.9l.1,6c0,3.4-.14,6.47-.4,9.2a53.94,53.94,0,0,1-2,10.7,20.63,20.63,0,0,1-2,4.5,10.74,10.74,0,0,1-2.85,3,6.33,6.33,0,0,1-3.9,1.2Q930.78,388.26,930.78,351.46Zm17.1,28.4a45.35,45.35,0,0,0,2.3-11.4c.26-4,.4-7.2.4-9.6q0-4-.6-11.8-.51-8.7-.5-11.8l-.4-.8.2-.5a12.18,12.18,0,0,0-2.45-7.6,7.31,7.31,0,0,0-6-3.2q-4.61,0-5.5,4.4c-.14,1-.27,2.44-.4,4.3a55.3,55.3,0,0,1-.6,10.1c0,1-.1,2.57-.3,4.7l-.2,4.7c0,1.47,0,2.77.1,3.9l.1,4a82.8,82.8,0,0,0,.8,10.8,64.2,64.2,0,0,0,1.4,7.6,16.6,16.6,0,0,0,2.3,5.3c1,1.6,2.16,2.4,3.5,2.4Q946,385.36,947.88,379.86Z"/><path class="cls-2" d="M969.38,385.36a2.79,2.79,0,0,0-.8.1h-.8c-1.47,0-2.4-.33-2.8-1a1.43,1.43,0,0,1,.8-1.2l.5-.5h2.9l.4-.4.2-.9.1-1.2c0-4.06-.1-7.7-.3-10.9l-.2-3.7-.2-7.3q0-3.9.3-11.7l.2-11.6a101.52,101.52,0,0,0-.5-11.6,10.53,10.53,0,0,0-3-.3l-1.1.1a7.62,7.62,0,0,1-1.3.1c-1.27,0-1.9-.56-1.9-1.7,0-.26.3-.53.9-.8a4,4,0,0,1,1.5-.4,74.56,74.56,0,0,1,7.6.4,16.37,16.37,0,0,1,4.6.9c1.2.4,1.8,1,1.8,1.7a2.36,2.36,0,0,1-.3.8l-2.3.2a4.81,4.81,0,0,0-2.9-.6l-.5.3a25.39,25.39,0,0,1,.3,5.3c0,4.4,0,8.37-.1,11.9l-.2,11.9c0,3,.13,6.64.4,10.9q.3,7.3.3,11v1.3a12.72,12.72,0,0,0-.1,1.8,7.34,7.34,0,0,0,.3,2.8l-.1.2c0,.67.73,1,2.2,1a9,9,0,0,0,1.5-.1h1.5c1.93,0,2.9.47,2.9,1.4a1.86,1.86,0,0,1-.6,1.45,2.27,2.27,0,0,1-1.6.55,5.56,5.56,0,0,1-1.6-.2,15.24,15.24,0,0,0-1.7-.1,5.36,5.36,0,0,0-1.8.5,4.61,4.61,0,0,1-1.8.6C970.54,386.36,969.64,386,969.38,385.36Z"/><path class="cls-2" d="M1015.08,386.76l-.35-.6a6.93,6.93,0,0,1-.65-1.8,4.42,4.42,0,0,0-.4-1.4l.1-.3a64.08,64.08,0,0,0-3.4-11.5l-1.8-5.2a46.62,46.62,0,0,1-1.9-5.1l-.8-2.4q-9-27.79-11.3-30.1a25,25,0,0,0-.8,7c0,1.54,0,2.87.1,4l.1,3.9-.1,2.4c-.07.74-.1,1.54-.1,2.4a29.76,29.76,0,0,0,.2,3.8l.2,3.2h-.3q0,16.71.7,18.4v9a4.85,4.85,0,0,1,.4,2.1,2,2,0,0,1-.55,1.4,1.77,1.77,0,0,1-1.35.6q-2.1,0-2.1-5.4l.2-3.2a25.66,25.66,0,0,0,.2-3.3q0-4.8-.3-14.4t-.3-14.4q0-2.89.3-8.9t.3-8.8v-1.3c0-3.26.6-5.4,1.8-6.4l.3.3,1-.2a2.25,2.25,0,0,1,.9.6,1.28,1.28,0,0,1,.4.9l.2.6a1.52,1.52,0,0,0,.1.5q1.59,7.11,7.2,19.9,5.7,13.5,7.1,17.9c.66,2.34,1.2,4.4,1.6,6.2a48.6,48.6,0,0,0,4.5,13.1l.2-.3a542.87,542.87,0,0,0,2.3-54.5l-.1-1.2a6.52,6.52,0,0,1-.1-1.3c0-1.4.46-2.1,1.4-2.1a1.89,1.89,0,0,1,1.55.9,3.37,3.37,0,0,1,.65,2v6.7l-.5.8q0,9.51-1.1,31.2t-2.1,23.6l-1.7.4v.1l-.1-.1-1,.3Z"/><path class="cls-2" d="M1043,385l-.1-3.7c-.07-1.06-.1-2.26-.1-3.6a11.86,11.86,0,0,1,.1-1.7l.1-1.8a9.33,9.33,0,0,0-.4-2.4q0-6.69-1-24.9-1-17.6-1.1-23.9a72.33,72.33,0,0,1-8.3-.3c-1.34-.33-2-.86-2-1.6a1.89,1.89,0,0,1,1.9-1.1c2,0,4.9.14,8.7.4,3.46.34,6.36.5,8.7.5h2.1l2.1-.1c1.2,0,1.8.44,1.8,1.3a1.06,1.06,0,0,1-.65.95,3.17,3.17,0,0,1-1.55.35c-1.34,0-2.74-.06-4.2-.2l-4.3-.2c-.27,0-.4.1-.4.3a9.32,9.32,0,0,0-.1,1.9q0,9.7,1.2,29.4,1.1,20.4,1.1,29.3a1.66,1.66,0,0,1-.85,1.3,2.89,2.89,0,0,1-1.65.6Z"/><path class="cls-2" d="M1081.87,351.46V348q0-27.9,7.2-27.9a4.75,4.75,0,0,1,1.4.3,27.32,27.32,0,0,0,6.3,1.4q1.9.4,3.8,3.9a29.11,29.11,0,0,1,3.15,9.5,69,69,0,0,1,1,12.1l-.2.5c0,2.2,0,4.17.1,5.9l.1,6q0,5.1-.4,9.2a53.23,53.23,0,0,1-2,10.7,20.17,20.17,0,0,1-2,4.5,10.46,10.46,0,0,1-2.85,3,6.29,6.29,0,0,1-3.9,1.2Q1081.87,388.26,1081.87,351.46Zm17.1,28.4a44.49,44.49,0,0,0,2.3-11.4q.4-6,.4-9.6,0-4-.6-11.8-.49-8.7-.5-11.8l-.4-.8.2-.5a12.12,12.12,0,0,0-2.45-7.6,7.28,7.28,0,0,0-6-3.2c-3.06,0-4.9,1.47-5.5,4.4-.13,1-.26,2.44-.4,4.3a55.3,55.3,0,0,1-.6,10.1c0,1-.1,2.57-.3,4.7l-.2,4.7c0,1.47,0,2.77.1,3.9l.1,4a84.59,84.59,0,0,0,.8,10.8,66.32,66.32,0,0,0,1.4,7.6,16.82,16.82,0,0,0,2.3,5.3c1,1.6,2.17,2.4,3.5,2.4C1095.77,385.36,1097.71,383.53,1099,379.86Z"/><path class="cls-2" d="M1122.77,386a6.87,6.87,0,0,1-3.25-4.25,55.37,55.37,0,0,1-1.85-10,142.1,142.1,0,0,1-1.2-15.7c0-2.26.14-4.86.4-7.8l.6-6.3q.51-7.5,1.15-11.35a15.32,15.32,0,0,1,2.9-6.8q2.25-2.94,7-3.45a9.86,9.86,0,0,1,1.6-.1c2.07,0,3.1.47,3.1,1.4a1.26,1.26,0,0,1-.65,1.05,2.32,2.32,0,0,1-1.35.45l-1-.1-.9-.1a4.73,4.73,0,0,0-3,1.1,8.24,8.24,0,0,0-2.25,3.2,37.3,37.3,0,0,0-2.7,9.8q-.8,6.3-1,11l-.1,7.7a64.42,64.42,0,0,0,.3,7.3,7.94,7.94,0,0,1,1,3.35q.25,2.25.45,6.15a28.45,28.45,0,0,0,.9,6,8.33,8.33,0,0,0,2.5,4,8.21,8.21,0,0,0,5.5,1.7c1.94,0,3.3-1.06,4.1-3.2a21.09,21.09,0,0,0,1.6-7q.3-4.5.3-7.6v-5.5a4.89,4.89,0,0,0-3.5-1h-.8a5.35,5.35,0,0,1-1.1.1q-2.4,0-2.4-1.2c0-1.13.8-1.7,2.4-1.7,1.14,0,2.07,0,2.8.1l2.2.1a17.23,17.23,0,0,1,3,.7c.8.27,1.2.64,1.2,1.1a16.49,16.49,0,0,1-.6,3.7,27.24,27.24,0,0,0-.5,3.8c0,2.8.07,5.34.2,7.6s.1,4.9.1,7.7q-5.1,5.2-10.2,5.2A15.86,15.86,0,0,1,1122.77,386Z"/><path class="cls-2" d="M1183.77,386.46q-.49-18.49-.5-26.8l-.3-.4.4-.9a17.74,17.74,0,0,0-.4-3.7l-1.5-.4a6.31,6.31,0,0,1-2,.3,20.91,20.91,0,0,1-3.3-.5,11.2,11.2,0,0,0-3.1-.5l-1.1.4q0,3.51-.1,6.3t-.1,6.3l.2.4q0,2.81.3,8.4t.3,8.3a3.84,3.84,0,0,1-.4,1.85,1.29,1.29,0,0,1-1.2.75q-2.21,0-2.2-6c0-3.4,0-6.46.1-9.2l.1-9.1q0-9.09-.3-9.8.49-1,.5-6.6,0-4.8-.4-11.7l-.2-3.9-.2-7.8a2,2,0,0,1,.5-1.3,1.5,1.5,0,0,1,1.2-.6c1.33,0,2,1.94,2,5.8q0,6.81-.1,12.3t-.2,12.1q0,1.2,7.6,1.2h.4a4.11,4.11,0,0,0,2.75-.75,3.25,3.25,0,0,0,.85-2.55q0-5.3-.7-13.8-.6-9.19-.6-13.8a1.38,1.38,0,0,1,.5-1.05,1.72,1.72,0,0,1,1.2-.45l.9.3a1.75,1.75,0,0,1,.9.3q0,7.8.6,23.3t.6,23.4q0,11.81.7,19.8l-.7,1.1C1186.77,386.8,1185.77,386.46,1183.77,386.46Zm-3.3-36.2.2.2h-.2Z"/><path class="cls-2" d="M1219.67,387.26l-.4-.35a3.24,3.24,0,0,1-.6-1.85c-.6-4.86-1-7.9-1.1-9.1l-.5-4a22.86,22.86,0,0,0-5-.5l-3.6-.2a31.77,31.77,0,0,0-3.5-.3.62.62,0,0,0-.7.5c0,.2,0,.3-.1.3l-.2,2a71.78,71.78,0,0,1-1.1,7.2,17.73,17.73,0,0,1-1.2,4.2c-.53,1.14-1,1.7-1.5,1.7a2.15,2.15,0,0,1-1.3-.55,1.49,1.49,0,0,1-.7-1.15l.1-.3.1-.3q1.8-7.1,3-14.1l1.2-6.2,1.2-7.6,1.1-6.6q.5-2.7,1.8-8.7,1.39-6.8,1.7-9.3c.07-.2.2-1.43.4-3.7q.4-3.8.7-5.6a9.62,9.62,0,0,1,.6-3h.7a2.11,2.11,0,0,0,.7.1,2.44,2.44,0,0,0,1.8-.6,1.92,1.92,0,0,1,1.25.45,1.32,1.32,0,0,1,.55,1.05,98.43,98.43,0,0,0,.7,11c.27,2.14.47,3.9.6,5.3q1.1,12.9,5.6,48.4v.3a1.65,1.65,0,0,1-.8,1.5Zm-3.1-18q-1-14.4-3.8-42.5l-5.4,26.7q-2.3,11.51-2.3,14.5c0,.34,1.27.64,3.8.9a64,64,0,0,0,6.7.4Z"/><path class="cls-2" d="M1248.07,387.56q-1.2-1.29-2.6-6.9t-2.6-12.6a95.88,95.88,0,0,0-2.3-11.3q-1.2-5-2.3-5h-.3c-1.47,0-2.2.47-2.2,1.4q0,7.2.8,21.9.39,9,.9,10.5l-.8,1.7h-1.4l-.8-.8q-1.6-46.2-1.6-63a8.9,8.9,0,0,1,.15-1.8,3,3,0,0,1,.65-1.3,1.48,1.48,0,0,1,1.4-.7,12.71,12.71,0,0,1,8.2,2.5,8.74,8.74,0,0,1,3.1,7.2v7.3a15.07,15.07,0,0,1-1.25,5.1,47.46,47.46,0,0,1-2.75,5.9l-1.3,2.5q1.1,5.1,4.35,18.35t3.55,14.05a1.7,1.7,0,0,1,.25.5,7.66,7.66,0,0,0,.65,1.2,5.72,5.72,0,0,1,.7,2.4c0,.94-.37,1.4-1.1,1.4Zm-8.4-40.2a14.56,14.56,0,0,0,2.4-4.9,40.89,40.89,0,0,0,1.6-9.7,24.64,24.64,0,0,0-.25-3.8,19.61,19.61,0,0,0-.85-3.2q-1.2-3.5-5.7-3.5c-.33,0-.6.29-.8.85a5.24,5.24,0,0,0-.3,1.75q0,6.7.2,12.1t.1,12.1l.2.2A4.29,4.29,0,0,0,1239.67,347.36Z"/><path class="cls-2" d="M487.24,517.06a47.42,47.42,0,0,1,1.2-7.9q.9-5,1.2-7.9a8.21,8.21,0,0,0-.3-1.8,5.33,5.33,0,0,1-.4-1.5q-2-11.4-2-34.1v-6q0-19,6.6-19a3.44,3.44,0,0,1,1.5.4,13,13,0,0,1,1.3.7l.3-.2.7.7.9-5.1c.6-3.46,1-5.7,1.3-6.7h1.6v.9l-1,6.3c-.67,3.74-1,5.9-1,6.5a1.9,1.9,0,0,0,.5,1.4l.4.7.4.6-.1.2a3.69,3.69,0,0,0,.7,1.5l.7,1.2a15.19,15.19,0,0,1,1.1,6.1l-.2.1a60.8,60.8,0,0,0,.6,7,48.58,48.58,0,0,1,.7,7.1v.5l.2.3q0,4.8.1,8.6l.2,8.7q0,3.7-.3,6.8c-.13,1.6-.3,3-.5,4.1a20.42,20.42,0,0,1-1,3.6,11.85,11.85,0,0,1-1.65,3.25,7.61,7.61,0,0,1-2.35,2.05,6.29,6.29,0,0,1-3.3.9q-3.19,0-4.4-1.8h-.1l-.1.7q-1.5,12.51-2.6,12.5C487.54,518.46,487.24,518,487.24,517.06Zm7.1-52.7,1.2-10.2.4-3.2a60.83,60.83,0,0,0,.7-7.1,2.24,2.24,0,0,0-.9-1.75,3.06,3.06,0,0,0-2-.75l-1.5.5-.5-.1q-2.81,1.5-2.8,26.4v.7a17.66,17.66,0,0,0,.7,5.9q0,3.11.6,9.6.6,6.3.6,9.6Q491.94,487.47,494.34,464.36Zm7.7,24q0-8.7-.2-15t-.9-14.5q-.7-8.89-2.2-11.9-1.69,9.9-4.7,39.1-.9,9.1-1.3,10.5a15.72,15.72,0,0,0-.7,4.4,4.53,4.53,0,0,0,.95,3.2,4.18,4.18,0,0,0,3.15,1Q502,505.16,502,488.36Z"/><path class="cls-2" d="M518.54,504.16q-.4-6.9-.4-17.4,0-6.6.1-11.8l.1-11.8q0-7.59-.4-18.8a2.56,2.56,0,0,1-.9-2,2,2,0,0,1,.85-1.45,2.47,2.47,0,0,1,1.55-.75,2,2,0,0,1,1.5.8l1.1.9a9.75,9.75,0,0,0,2.3.6,12.3,12.3,0,0,1,2.4.6,22.37,22.37,0,0,1,4,3.1,28.76,28.76,0,0,0,3.3,3l-.1.2a9.19,9.19,0,0,0,1.5,2.6,25.77,25.77,0,0,1,1.8,2.8,37.14,37.14,0,0,1,1.6,11.9c0,.87,0,1.64-.1,2.3v3.2l-.1,1a6.28,6.28,0,0,0,.6,3q-.6,3.21-1.5,12.1a45,45,0,0,1-1,5.5,20.73,20.73,0,0,1-1.7,4.8,21,21,0,0,1-8.7,8.3h-7C518.8,506.86,518.54,506,518.54,504.16Zm7.4-.2a13.22,13.22,0,0,1,1.3-1.3l.7-.5.8-.7q7-6.3,7-24v-1.9a13.07,13.07,0,0,1-.1-1.7l-.4-10.1a29.62,29.62,0,0,0-3.5-12,13.86,13.86,0,0,0-4-5.05,8.68,8.68,0,0,0-5.35-1.95q-1.2,0-1.2,18.5,0,21.4,1.2,37.3l-.1,1.9.4.2.2,1.3Z"/><path class="cls-2" d="M552.14,505.56v-1.3a6.73,6.73,0,0,0,.1-1.2l-.4-.4a11.52,11.52,0,0,0,.8-4.1q0-2.3-.3-6.6l-.2-6.6q0-5,.3-15,.39-8.89.4-15.1l-.2-6c-.14-1.8-.2-3.8-.2-6a2.82,2.82,0,0,1,.7-2.15,3.16,3.16,0,0,1,2.2-.65,2.17,2.17,0,0,1,1.6.6,23.49,23.49,0,0,0,2.9.4,22.13,22.13,0,0,1,4.3.9c1.26.4,1.9.9,1.9,1.5s-.64,1.34-1.9,2c-3.8-1.26-6.5-1.9-8.1-1.9l-.5.6c.06.6.1,2,.1,4.3q0,4.31-.2,7.7t-.1,7.8c0,1.87.46,2.8,1.4,2.8l1.6-.1a15.1,15.1,0,0,1,1.7-.1q3.9,0,3.9,1.8a3.27,3.27,0,0,1-.5,1.85,1.7,1.7,0,0,1-1.5.75,3.08,3.08,0,0,1-2.3-.8l-3.2-.5h-.5l-.5.5v.3q.19,1.71.2,7.9c0,2.6,0,5-.1,7.1l-.1,7.1q0,3.9.3,8c.06,1.54.4,2.55,1,3.05a5.33,5.33,0,0,0,3.3.75l1.8-.1a19.94,19.94,0,0,1,2-.1c1.93,0,2.9.44,2.9,1.3q0,1.8-4.4,1.8h-8.2C552.94,507.66,552.27,507,552.14,505.56Z"/><path class="cls-2" d="M577.94,505.36a15.35,15.35,0,0,0,.2-3.3q0-9.19.3-27.3t.3-26l.2-3.6.3-3a.62.62,0,0,1,.7-.7,4.82,4.82,0,0,1,1.4.3l.3.1c0,1.47,0,2.8-.1,4v14.8c.06,3.2.1,6.84.1,10.9a14.21,14.21,0,0,0-.1,2.2l-.1,2.1c-.07,1.34-.1,2.7-.1,4.1s0,2.94.1,4.2l.1,4.3-.3.8.1-.1a.6.6,0,0,1-.1.4v.4a3.07,3.07,0,0,0,.3,1.4l-.3,9.6v.6a10.06,10.06,0,0,0,.1,2,.44.44,0,0,0,.5.5l5.2.2c1.53,0,2.58,0,3.15.05s.91.05,1,.05h.3a1.44,1.44,0,0,1,1,.55,1.72,1.72,0,0,1,.5,1.15c0,.8-.54,1.24-1.6,1.3s-3.9-.1-8.3-.1l.2.1a19,19,0,0,0-1.9.1,7.19,7.19,0,0,1-1.8.2C578.7,507.66,578.14,506.9,577.94,505.36Z"/><path class="cls-2" d="M620.94,507.26s-.14-.11-.4-.35a3.24,3.24,0,0,1-.6-1.85c-.6-4.86-1-7.9-1.1-9.1l-.5-4a22.93,22.93,0,0,0-5-.5l-3.6-.2a31.77,31.77,0,0,0-3.5-.3c-.4,0-.64.17-.7.5s0,.3-.1.3l-.2,2q-.11,1.8-1.1,7.2a18.74,18.74,0,0,1-1.2,4.2c-.54,1.14-1,1.7-1.5,1.7a2.13,2.13,0,0,1-1.3-.55,1.49,1.49,0,0,1-.7-1.15l.1-.3.1-.3q1.8-7.1,3-14.1l1.2-6.2,1.2-7.6,1.1-6.6q.5-2.7,1.8-8.7,1.39-6.8,1.7-9.3c.06-.2.2-1.43.4-3.7.26-2.53.5-4.4.7-5.6a9.62,9.62,0,0,1,.6-3h.7a2.11,2.11,0,0,0,.7.1,2.44,2.44,0,0,0,1.8-.6,1.94,1.94,0,0,1,1.25.45,1.35,1.35,0,0,1,.55,1.05,98.43,98.43,0,0,0,.7,11c.26,2.14.46,3.9.6,5.3q1.1,12.9,5.6,48.4v.3a1.65,1.65,0,0,1-.8,1.5Zm-3.1-18q-1-14.4-3.8-42.5l-5.4,26.7q-2.31,11.51-2.3,14.5c0,.34,1.26.64,3.8.9a63.83,63.83,0,0,0,6.7.4Z"/><path class="cls-2" d="M639,506a6.83,6.83,0,0,1-3.25-4.25,54.5,54.5,0,0,1-1.85-10,142.1,142.1,0,0,1-1.2-15.7q0-3.39.4-7.8l.6-6.3q.5-7.5,1.15-11.35a15.21,15.21,0,0,1,2.9-6.8c1.5-2,3.81-3.11,7-3.45a9.68,9.68,0,0,1,1.6-.1c2.06,0,3.1.47,3.1,1.4a1.29,1.29,0,0,1-.65,1.05,2.37,2.37,0,0,1-1.35.45l-1-.1-.9-.1a4.71,4.71,0,0,0-3,1.1,8.24,8.24,0,0,0-2.25,3.2,37.3,37.3,0,0,0-2.7,9.8q-.81,6.3-1,11l-.1,7.7a64.42,64.42,0,0,0,.3,7.3,8.24,8.24,0,0,1,1,3.35q.24,2.25.45,6.15a27.19,27.19,0,0,0,.9,6,8.25,8.25,0,0,0,2.5,4,8.17,8.17,0,0,0,5.5,1.7c1.93,0,3.3-1.06,4.1-3.2a21.6,21.6,0,0,0,1.6-7q.3-4.5.3-7.6v-5.5a4.93,4.93,0,0,0-3.5-1h-.8a5.42,5.42,0,0,1-1.1.1q-2.4,0-2.4-1.2c0-1.13.8-1.7,2.4-1.7,1.13,0,2.06,0,2.8.1l2.2.1a17.69,17.69,0,0,1,3,.7c.8.27,1.2.64,1.2,1.1a16.49,16.49,0,0,1-.6,3.7,25.74,25.74,0,0,0-.5,3.8c0,2.8.06,5.34.2,7.6s.1,4.9.1,7.7q-5.1,5.2-10.2,5.2C642.77,507.06,640.5,506.7,639,506Z"/><path class="cls-2" d="M674.53,505l-.1-3.7c-.06-1.06-.1-2.26-.1-3.6a13.53,13.53,0,0,1,.1-1.7l.1-1.8a8.91,8.91,0,0,0-.4-2.4q0-6.69-1-24.9-1-17.6-1.1-23.9a72.45,72.45,0,0,1-8.3-.3c-1.33-.33-2-.86-2-1.6a1.9,1.9,0,0,1,1.9-1.1c2,0,4.9.14,8.7.4,3.47.34,6.37.5,8.7.5h2.1l2.1-.1c1.2,0,1.8.44,1.8,1.3a1,1,0,0,1-.65.95,3.14,3.14,0,0,1-1.55.35c-1.33,0-2.73-.06-4.2-.2l-4.3-.2c-.26,0-.4.1-.4.3a10.2,10.2,0,0,0-.1,1.9q0,9.7,1.2,29.4,1.11,20.4,1.1,29.3a1.64,1.64,0,0,1-.85,1.3,2.84,2.84,0,0,1-1.65.6Z"/><path class="cls-2" d="M713.73,506.71a2.17,2.17,0,0,1-1.1-1.55l.5-.8a11.54,11.54,0,0,1,1.8.3,5.47,5.47,0,0,0,1.8.4,5.27,5.27,0,0,0,3.9-1.75,11.39,11.39,0,0,0,2.6-4.55,37.42,37.42,0,0,0,1.4-9.8q0-6.9-4.2-14.8c-1.73-3.06-3.06-5.5-4-7.3a39.37,39.37,0,0,1-2.5-6.2,26.26,26.26,0,0,1-1.3-7.9,25.28,25.28,0,0,1,1.8-8.5,9.54,9.54,0,0,1,2.55-3.75,5.31,5.31,0,0,1,3.55-1.45,4.31,4.31,0,0,1,2.55.9,2.45,2.45,0,0,1,1.25,1.9c0,.54-.43.8-1.3.8a2.35,2.35,0,0,1-1-.3,2.5,2.5,0,0,0-1.1-.3,3.73,3.73,0,0,0-2.7,1.2,7.52,7.52,0,0,0-1.8,3.1,22.24,22.24,0,0,0-1.2,6.8,16.17,16.17,0,0,0,.5,3.9c.07.4.14.74.2,1a2.6,2.6,0,0,1,.1.6l.6,2,.5,1.8.8,1.8a8.55,8.55,0,0,0,.65,1.25c.24.37.45.72.65,1.05l1.2,2.1c.27.4.83,1.35,1.7,2.85a47.93,47.93,0,0,1,2.4,4.75,23.1,23.1,0,0,1,1.5,3.95,38.94,38.94,0,0,1,.9,4.45,46.41,46.41,0,0,1,.3,5.5,30.17,30.17,0,0,1-1.3,9q-1.8,5-5.2,7a8.06,8.06,0,0,1-4.4,1.2l-.5.2A5.58,5.58,0,0,1,713.73,506.71Zm10.1-64.35a.09.09,0,0,0-.1-.1v.1Z"/><path class="cls-2" d="M738,471.46V468q0-27.9,7.2-27.9a4.82,4.82,0,0,1,1.4.3,27.09,27.09,0,0,0,6.3,1.4c1.27.27,2.53,1.57,3.8,3.9a29.11,29.11,0,0,1,3.15,9.5,69,69,0,0,1,1,12.1l-.2.5c0,2.2,0,4.17.1,5.9l.1,6q0,5.1-.4,9.2a53.94,53.94,0,0,1-2,10.7,20.17,20.17,0,0,1-2,4.5,10.74,10.74,0,0,1-2.85,3,6.33,6.33,0,0,1-3.9,1.2Q738,508.26,738,471.46Zm17.1,28.4a44.92,44.92,0,0,0,2.3-11.4q.41-6,.4-9.6,0-4-.6-11.8-.5-8.7-.5-11.8l-.4-.8.2-.5a12.18,12.18,0,0,0-2.45-7.6,7.29,7.29,0,0,0-6-3.2q-4.61,0-5.5,4.4c-.13,1-.27,2.44-.4,4.3a55.3,55.3,0,0,1-.6,10.1c0,1-.1,2.57-.3,4.7l-.2,4.7c0,1.47,0,2.77.1,3.9l.1,4a84.59,84.59,0,0,0,.8,10.8,66.32,66.32,0,0,0,1.4,7.6,16.6,16.6,0,0,0,2.3,5.3c1,1.6,2.17,2.4,3.5,2.4Q753.23,505.36,755.13,499.86Z"/><path class="cls-2" d="M811.43,505.16v-6.6q0-14.4-.6-22.5l-.3-3.7a27.76,27.76,0,0,1-.4-4.4q0-3.39.2-6.2l.2-6.2a20.59,20.59,0,0,0-.4-4.7q-2,1.41-12.1,42.1l-.1,1.5a21.19,21.19,0,0,1-.8,4,4,4,0,0,1-.85,1.7,1.66,1.66,0,0,1-1.25.6,2.89,2.89,0,0,1-2.3-.8,3.7,3.7,0,0,1-.7-2.5q0-2.7-2.55-14t-5.5-21.7q-3-10.39-4.05-11.5-.1,3.51-.8,16.5-1.39,23-1.4,36.2l.1,4a1.92,1.92,0,0,1-2.1,1.3,2.11,2.11,0,0,1-1-.55c-.47-.36-.7-.65-.7-.85q0-9,1.6-31.6,1.5-21,1.5-31.5a2.78,2.78,0,0,0-.2-1,2.3,2.3,0,0,1-.3-.9c0-1,.87-1.5,2.6-1.5a1.79,1.79,0,0,1,2,1.5,16.68,16.68,0,0,1,.4,3l.1,1.2a41.61,41.61,0,0,0,2.9,8,73.15,73.15,0,0,1,2.9,7.5c.4,1.6.77,2.9,1.1,3.9q1.61,5.81,2.1,8.6l1.3,2.6c.2,1,.6,2.64,1.2,4.9.6,2.54,1,4.6,1.3,6.2a27.7,27.7,0,0,1,.4,4.6q1.1-1.69,6.25-20.45t6.05-24a1.59,1.59,0,0,0,.15-.55c0-.23.08-.55.15-1a38.83,38.83,0,0,1,.9-3.9c.53-1.33,1.33-2,2.4-2a3,3,0,0,1,1.6.6q.9.6.9,1.2,0,41.7,1.3,44.1v5.2c-.07,1.54-.1,3.3-.1,5.3a48.26,48.26,0,0,0,.7,9.6.61.61,0,0,1,.15.3,4.27,4.27,0,0,0,.15.5,3.59,3.59,0,0,1,.1.9,4.3,4.3,0,0,1-.65,2.2,1.83,1.83,0,0,1-1.55,1.1Q811.44,511.56,811.43,505.16Zm-1.3-54.9H810l-.2.1.3.1Z"/><path class="cls-2" d="M868.13,505.16v-6.6q0-14.4-.6-22.5l-.3-3.7a27.76,27.76,0,0,1-.4-4.4c0-2.26.06-4.33.2-6.2l.2-6.2a21.18,21.18,0,0,0-.4-4.7q-2,1.41-12.1,42.1l-.1,1.5a21.19,21.19,0,0,1-.8,4,4.1,4.1,0,0,1-.85,1.7,1.68,1.68,0,0,1-1.25.6,2.88,2.88,0,0,1-2.3-.8,3.7,3.7,0,0,1-.7-2.5q0-2.7-2.55-14t-5.5-21.7q-3-10.39-4-11.5-.11,3.51-.8,16.5-1.41,23-1.4,36.2l.1,4a1.92,1.92,0,0,1-2.1,1.3,2.07,2.07,0,0,1-1-.55c-.47-.36-.7-.65-.7-.85q0-9,1.6-31.6,1.5-21,1.5-31.5a2.78,2.78,0,0,0-.2-1,2.3,2.3,0,0,1-.3-.9c0-1,.86-1.5,2.6-1.5a1.79,1.79,0,0,1,2,1.5,17.66,17.66,0,0,1,.4,3l.1,1.2a41.61,41.61,0,0,0,2.9,8,75.56,75.56,0,0,1,2.9,7.5c.4,1.6.76,2.9,1.1,3.9q1.59,5.81,2.1,8.6l1.3,2.6c.2,1,.6,2.64,1.2,4.9.6,2.54,1,4.6,1.3,6.2a28.81,28.81,0,0,1,.4,4.6q1.1-1.69,6.25-20.45t6-24a2.22,2.22,0,0,0,.15-.55c0-.23.08-.55.15-1a38.83,38.83,0,0,1,.9-3.9c.53-1.33,1.33-2,2.4-2a3,3,0,0,1,1.6.6q.9.6.9,1.2,0,41.7,1.3,44.1v5.2c-.07,1.54-.1,3.3-.1,5.3a48.26,48.26,0,0,0,.7,9.6.84.84,0,0,1,.15.3,4.27,4.27,0,0,0,.15.5,4.13,4.13,0,0,1,.1.9,4.3,4.3,0,0,1-.65,2.2,1.84,1.84,0,0,1-1.55,1.1C868.79,511.56,868.13,509.43,868.13,505.16Zm-1.3-54.9h-.1l-.2.1.3.1Z"/><path class="cls-2" d="M887.23,505.56v-1.3a6.73,6.73,0,0,0,.1-1.2l-.4-.4a11.52,11.52,0,0,0,.8-4.1q0-2.3-.3-6.6l-.2-6.6q0-5,.3-15,.39-8.89.4-15.1l-.2-6c-.14-1.8-.2-3.8-.2-6a2.82,2.82,0,0,1,.7-2.15,3.16,3.16,0,0,1,2.2-.65,2.17,2.17,0,0,1,1.6.6,23.49,23.49,0,0,0,2.9.4,22.13,22.13,0,0,1,4.3.9c1.26.4,1.9.9,1.9,1.5s-.64,1.34-1.9,2c-3.8-1.26-6.5-1.9-8.1-1.9l-.5.6c.06.6.1,2,.1,4.3q0,4.31-.2,7.7t-.1,7.8c0,1.87.46,2.8,1.4,2.8l1.6-.1a15.1,15.1,0,0,1,1.7-.1q3.9,0,3.9,1.8a3.27,3.27,0,0,1-.5,1.85,1.7,1.7,0,0,1-1.5.75,3.08,3.08,0,0,1-2.3-.8l-3.2-.5H891l-.5.5v.3q.19,1.71.2,7.9c0,2.6,0,5-.1,7.1l-.1,7.1q0,3.9.3,8c.06,1.54.4,2.55,1,3.05a5.33,5.33,0,0,0,3.3.75l1.8-.1a19.94,19.94,0,0,1,2-.1c1.93,0,2.9.44,2.9,1.3q0,1.8-4.4,1.8h-8.2C888,507.66,887.36,507,887.23,505.56Z"/><path class="cls-2" d="M928.23,507.56q-1.2-1.29-2.6-6.9t-2.6-12.6a95.88,95.88,0,0,0-2.3-11.3q-1.2-5-2.3-5h-.3c-1.47,0-2.2.47-2.2,1.4q0,7.2.8,21.9.39,9,.9,10.5l-.8,1.7h-1.4l-.8-.8q-1.61-46.2-1.6-63a8.9,8.9,0,0,1,.15-1.8,3,3,0,0,1,.65-1.3,1.48,1.48,0,0,1,1.4-.7,12.71,12.71,0,0,1,8.2,2.5,8.74,8.74,0,0,1,3.1,7.2v7.3a15.07,15.07,0,0,1-1.25,5.1,49,49,0,0,1-2.75,5.9l-1.3,2.5q1.1,5.1,4.35,18.35t3.55,14.05a2,2,0,0,1,.25.5,6.88,6.88,0,0,0,.65,1.2,5.72,5.72,0,0,1,.7,2.4c0,.94-.37,1.4-1.1,1.4Zm-8.4-40.2a14.56,14.56,0,0,0,2.4-4.9,40.89,40.89,0,0,0,1.6-9.7,24.64,24.64,0,0,0-.25-3.8,19.61,19.61,0,0,0-.85-3.2q-1.2-3.5-5.7-3.5c-.34,0-.6.29-.8.85a5.24,5.24,0,0,0-.3,1.75q0,6.7.2,12.1t.1,12.1l.2.2A4.3,4.3,0,0,0,919.83,467.36Z"/><path class="cls-2" d="M941.83,505.56v-1.3a6.73,6.73,0,0,0,.1-1.2l-.4-.4a11.52,11.52,0,0,0,.8-4.1q0-2.3-.3-6.6l-.2-6.6q0-5,.3-15,.39-8.89.4-15.1l-.2-6c-.14-1.8-.2-3.8-.2-6a2.82,2.82,0,0,1,.7-2.15,3.16,3.16,0,0,1,2.2-.65,2.17,2.17,0,0,1,1.6.6,23.49,23.49,0,0,0,2.9.4,22.13,22.13,0,0,1,4.3.9c1.26.4,1.9.9,1.9,1.5s-.64,1.34-1.9,2c-3.8-1.26-6.5-1.9-8.1-1.9l-.5.6c.06.6.1,2,.1,4.3q0,4.31-.2,7.7t-.1,7.8c0,1.87.46,2.8,1.4,2.8l1.6-.1a15.1,15.1,0,0,1,1.7-.1q3.9,0,3.9,1.8a3.27,3.27,0,0,1-.5,1.85,1.7,1.7,0,0,1-1.5.75,3.08,3.08,0,0,1-2.3-.8l-3.2-.5h-.5l-.5.5v.3q.2,1.71.2,7.9c0,2.6,0,5-.1,7.1l-.1,7.1q0,3.9.3,8c.06,1.54.4,2.55,1,3.05a5.33,5.33,0,0,0,3.3.75l1.8-.1a19.94,19.94,0,0,1,2-.1c1.93,0,2.9.44,2.9,1.3q0,1.8-4.4,1.8h-8.2C942.63,507.66,942,507,941.83,505.56Z"/><path class="cls-2" d="M992.23,506.76l-.35-.6a6.58,6.58,0,0,1-.65-1.8,4.42,4.42,0,0,0-.4-1.4l.09-.3a63.12,63.12,0,0,0-3.39-11.5l-1.8-5.2a46.62,46.62,0,0,1-1.9-5.1l-.8-2.4q-9-27.79-11.3-30.1a25,25,0,0,0-.81,7c0,1.54,0,2.87.11,4l.09,3.9-.09,2.4c-.07.74-.11,1.54-.11,2.4a31.71,31.71,0,0,0,.2,3.8l.21,3.2H971q0,16.71.7,18.4v9a4.86,4.86,0,0,1,.39,2.1,2,2,0,0,1-.54,1.4,1.77,1.77,0,0,1-1.35.6c-1.4,0-2.11-1.8-2.11-5.4l.21-3.2a25.66,25.66,0,0,0,.2-3.3c0-3.2-.11-8-.3-14.4s-.31-11.2-.31-14.4c0-1.93.11-4.9.31-8.9s.3-6.86.3-8.8v-1.3c0-3.26.59-5.4,1.8-6.4l.29.3,1-.2a2.21,2.21,0,0,1,.91.6,1.27,1.27,0,0,1,.39.9l.2.6a1.57,1.57,0,0,0,.11.5q1.59,7.11,7.19,19.9,5.72,13.5,7.11,17.9c.66,2.34,1.2,4.4,1.59,6.2a49.31,49.31,0,0,0,4.5,13.1l.21-.3q2.29-22.2,2.29-54.5l-.09-1.2a6.42,6.42,0,0,1-.11-1.3q0-2.1,1.41-2.1a1.91,1.91,0,0,1,1.55.9,3.37,3.37,0,0,1,.65,2v6.7l-.5.8q0,9.51-1.11,31.2t-2.09,23.6l-1.71.4v.1l-.09-.1-1,.3Z"/><g class="cls-3"><ellipse class="cls-4" cx="1368.03" cy="174.03" rx="30.82" ry="110.66" transform="translate(1023.63 1509.39) rotate(-82.79)"/><circle class="cls-4" cx="1455.42" cy="166.49" r="18.55"/><ellipse class="cls-4" cx="1426.9" cy="134.39" rx="28.09" ry="29.67" transform="translate(1114.44 1533.13) rotate(-82.79)"/><circle class="cls-4" cx="1385.74" cy="114.94" r="35.15"/><ellipse class="cls-4" cx="1347.86" cy="134.36" rx="26.67" ry="30.38" transform="translate(1045.35 1454.68) rotate(-82.79)"/><circle class="cls-4" cx="1306.62" cy="147.83" r="22.26"/><ellipse class="cls-4" cx="1400.15" cy="148.81" rx="17.49" ry="9.54" transform="translate(1076.75 1519.2) rotate(-82.79)"/></g><ellipse class="cls-5" cx="1333.42" cy="177.77" rx="32.96" ry="118.32" transform="translate(989.65 1478.32) rotate(-82.79)"/><circle class="cls-5" cx="1426.86" cy="169.7" r="19.83"/><ellipse class="cls-5" cx="1396.37" cy="135.39" rx="30.03" ry="31.73" transform="translate(1086.75 1503.71) rotate(-82.79)"/><circle class="cls-5" cx="1352.36" cy="114.59" r="37.58"/><ellipse class="cls-5" cx="1311.85" cy="135.35" rx="28.52" ry="32.48" transform="translate(1012.88 1419.83) rotate(-82.79)"/><circle class="cls-5" cx="1267.76" cy="149.76" r="23.8"/><ellipse class="cls-5" cx="1367.76" cy="150.8" rx="18.7" ry="10.2" transform="matrix(0.13, -0.99, 0.99, 0.13, 1046.44, 1488.82)"/><circle cx="1338.25" cy="142.24" r="7.78"/><path class="cls-2" d="M1354,134.3c-5.13,14.9-15.54,24.82-23.24,22.17s-9.79-16.88-4.65-31.78"/><rect x="1313.31" y="121.04" width="44.22" height="10.38" transform="translate(366.46 -801.35) rotate(38.35)"/><polyline points="1321.37 108.62 1319.23 120.17 1297.55 116.15"/><circle cx="1338.47" cy="141.11" r="9.24"/><circle class="cls-2" cx="1343.07" cy="142.7" r="1.78"/><circle cx="1372.59" cy="154.07" r="7.78"/><path class="cls-2" d="M1365.06,138.1c-5.13,14.9-3,29.13,4.65,31.78s18.11-7.27,23.25-22.17"/><rect x="1362.57" y="138.01" width="44.22" height="10.38" transform="translate(2770.17 278.44) rotate(179.67)"/><polyline points="1406.6 137.98 1401.17 148.4 1420.72 158.59"/><circle cx="1373.11" cy="153.05" r="9.24"/><circle class="cls-2" cx="1368.51" cy="151.46" r="1.78"/><path d="M1357.05,195.91l-.45-.09a2.84,2.84,0,0,1-1.92-3.52A18.13,18.13,0,0,0,1319.9,182a2.83,2.83,0,1,1-5.43-1.6,23.8,23.8,0,0,1,45.65,13.46A2.83,2.83,0,0,1,1357.05,195.91Z"/><path class="cls-6" d="M1262.48,239.09a12.75,12.75,0,0,1-25.5,0c0-7,12.53-19,13-22.59C1249.51,220.08,1262.48,232.05,1262.48,239.09Z"/><path class="cls-6" d="M1300.3,263.89a12.75,12.75,0,1,1-25.5,0c0-7,12.53-19,13-22.59C1287.33,244.88,1300.3,256.85,1300.3,263.89Z"/><path class="cls-6" d="M1340,239.09a12.75,12.75,0,0,1-25.5,0c0-7,12.53-19,13-22.59C1327,220.08,1340,232.05,1340,239.09Z"/><path class="cls-6" d="M1359.2,284.35a12.75,12.75,0,1,1-25.5,0c0-7,12.53-19,13-22.59C1346.23,265.34,1359.2,277.31,1359.2,284.35Z"/><path class="cls-6" d="M1395.16,258.93a12.75,12.75,0,1,1-25.5,0c0-7,12.53-19,13-22.59C1382.19,239.92,1395.16,251.89,1395.16,258.93Z"/><path class="cls-6" d="M1321.38,312.25a12.75,12.75,0,0,1-25.5,0c0-7,12.53-19,13-22.59C1308.41,293.24,1321.38,305.21,1321.38,312.25Z"/></svg>
