<svg id="Layer_1" data-name="Layer 1" xmlns="http://www.w3.org/2000/svg" width="1560" height="789" viewBox="0 0 1560 789"><defs><style>.cls-1,.cls-6{fill:#fff;}.cls-1,.cls-8{stroke:#000;}.cls-1{stroke-miterlimit:10;stroke-width:6px;opacity:0.5;}.cls-2{font-size:151px;font-family:AmaticSC-Regular, Amatic SC;}.cls-3{font-size:100px;}.cls-4{fill:#ffac2b;}.cls-5{fill:#f2ff00;}.cls-7{fill:#f9b9d3;}.cls-8{fill:none;stroke-linecap:round;stroke-linejoin:round;stroke-width:11px;}</style></defs><title>game_won</title><rect class="cls-1" x="3" y="3" width="1554" height="783"/><text class="cls-2" transform="translate(591.45 335.36)">Tillykke! <tspan class="cls-3"><tspan x="-462.37" y="120">Du har samlet nok point og reddet sommeren</tspan></tspan></text><polygon class="cls-4" points="94.07 246.62 168.63 220.08 141.5 294.43 197.06 238.13 204.91 317 230.45 242.08 271.74 309.85 262.21 231.16 328.75 274.4 286.03 207.52 364.64 217.68 297.2 175.86 372.32 150.91 293.51 142.43 350.25 87.32 275.69 113.86 302.81 39.51 247.26 95.82 239.4 16.95 213.87 91.86 172.57 24.09 182.11 102.78 115.57 59.54 158.29 126.42 79.67 116.27 147.12 158.09 72 183.03 150.81 191.51 94.07 246.62"/><circle class="cls-5" cx="221" cy="167.22" r="107.74"/><ellipse class="cls-6" cx="251.69" cy="135.63" rx="25.26" ry="47.43" transform="translate(-19.87 46.18) rotate(-10.09)"/><ellipse cx="253.24" cy="143.73" rx="20.47" ry="34.28" transform="translate(-21.26 46.58) rotate(-10.09)"/><circle class="cls-6" cx="257.81" cy="133.23" r="9.28"/><circle class="cls-6" cx="255.39" cy="156.43" r="5.41"/><ellipse class="cls-6" cx="191.86" cy="143.65" rx="25.26" ry="47.43" transform="translate(-22.2 35.83) rotate(-10.09)"/><ellipse cx="193.41" cy="151.75" rx="20.47" ry="34.28" transform="translate(-23.59 36.22) rotate(-10.09)"/><circle class="cls-6" cx="197.98" cy="141.26" r="9.28"/><circle class="cls-6" cx="195.56" cy="164.46" r="5.41"/><ellipse class="cls-7" cx="296.17" cy="175.4" rx="21.01" ry="6.8" transform="translate(-26.14 54.59) rotate(-10.09)"/><ellipse class="cls-7" cx="157.5" cy="200.14" rx="21.01" ry="6.8" transform="translate(-32.62 30.68) rotate(-10.09)"/><path class="cls-8" d="M205.1,214.62c3.71,15.51,20.41,24.8,37.3,20.76S270,215.5,266.27,200"/></svg>
