<svg id="Layer_1" data-name="Layer 1" xmlns="http://www.w3.org/2000/svg" width="299" height="612" viewBox="0 0 299 612"><defs><style>.cls-1{fill:#c69c6d;}.cls-2{fill:#ff7bac;}.cls-3{fill:#fff;}.cls-4{fill:#a67c52;}</style></defs><title>is_element</title><path class="cls-1" d="M76.94,244.62a19.79,19.79,0,0,0-14.61,23.86L141.71,604.6c2.21,9.35,15.53,9.37,17.76,0l92.25-387.69a9.12,9.12,0,0,0-11-11Z"/><ellipse class="cls-2" cx="149.48" cy="231.88" rx="144.5" ry="40.5"/><ellipse class="cls-2" cx="149.5" cy="121.38" rx="149.02" ry="121"/><ellipse class="cls-3" cx="47.48" cy="89.38" rx="53" ry="20.5" transform="translate(-53.63 93.73) rotate(-64.48)"/><ellipse class="cls-3" cx="54.85" cy="171.71" rx="25.12" ry="19.09" transform="translate(-124.7 187.64) rotate(-77.36)"/><ellipse class="cls-3" cx="180.34" cy="108.04" rx="63.28" ry="33.71" transform="translate(61.29 281.31) rotate(-86.43)"/><ellipse cx="179.51" cy="119.01" rx="45.74" ry="27.32" transform="translate(49.56 290.77) rotate(-86.43)"/><circle class="cls-3" cx="171.86" cy="105.79" r="12.38"/><circle class="cls-3" cx="178.58" cy="136.19" r="7.22"/><ellipse class="cls-3" cx="117.75" cy="115.19" rx="63.28" ry="33.71" transform="translate(-4.55 225.55) rotate(-86.43)"/><ellipse cx="116.91" cy="126.17" rx="45.74" ry="27.32" transform="translate(-16.28 235.01) rotate(-86.43)"/><circle class="cls-3" cx="109.27" cy="112.94" r="12.38"/><circle class="cls-3" cx="115.99" cy="143.34" r="7.22"/><path d="M141.93,248.39c-.55,0-1.1,0-1.65,0-20.65-1-36.49-21.22-35.3-45a5,5,0,0,1,10,.5c-.91,18.27,10.66,33.75,25.81,34.51S169,224.87,169.9,206.6a5,5,0,0,1,10,.5C178.73,230.24,161.87,248.39,141.93,248.39Z"/><path class="cls-4" d="M129,429.3a5,5,0,0,1-4.82-3.7L97.15,325.13a5,5,0,0,1,9.66-2.6L133.87,423a5,5,0,0,1-3.53,6.12A4.85,4.85,0,0,1,129,429.3Z"/><path class="cls-4" d="M156,439.3a5,5,0,0,1-4.82-3.7L124.15,335.13a5,5,0,0,1,9.66-2.6L160.87,433a5,5,0,0,1-3.53,6.12A4.85,4.85,0,0,1,156,439.3Z"/><path class="cls-4" d="M165.06,368.71H93.81a5,5,0,0,1,0-10h71.25a5,5,0,0,1,0,10Z"/><path class="cls-4" d="M173.06,388.71H101.81a5,5,0,0,1,0-10h71.25a5,5,0,0,1,0,10Z"/><path class="cls-4" d="M171,407.28H113.81a5,5,0,1,1,0-10H171a5,5,0,1,1,0,10Z"/></svg>
