<svg id="Layer_1" data-name="Layer 1" xmlns="http://www.w3.org/2000/svg" width="76" height="76" viewBox="0 0 76 76"><defs><style>.cls-1{fill:#fff;}</style></defs><title>kryds_luk_knap</title><path class="cls-1" d="M73.25,9.75,70,6.15a9.55,9.55,0,0,0-13.46-.76L39,21.13,23.21,3.51A9.53,9.53,0,0,0,9.75,2.75L6.15,6a9.55,9.55,0,0,0-.76,13.46L21.13,37.05,3.51,52.79a9.53,9.53,0,0,0-.76,13.46L6,69.85a9.55,9.55,0,0,0,13.46.76L37.05,54.87,52.79,72.49a9.53,9.53,0,0,0,13.46.76L69.85,70a9.55,9.55,0,0,0,.76-13.46L54.87,39,72.49,23.21A9.53,9.53,0,0,0,73.25,9.75Z"/></svg>
