<svg id="Layer_1" data-name="Layer 1" xmlns="http://www.w3.org/2000/svg" width="218" height="212" viewBox="0 0 218 212"><defs><style>.cls-1{fill:#fff;stroke:#fff;stroke-miterlimit:10;}.cls-2{fill:none;stroke:red;stroke-linecap:round;stroke-linejoin:round;stroke-width:15px;}</style></defs><title>music_off</title><path class="cls-1" d="M129.2,5.34a15.75,15.75,0,0,0-22.26.3L64.72,49H18.26A17.53,17.53,0,0,0,.74,66.54v78.4a17.53,17.53,0,0,0,17.52,17.53h46l45.39,44.19a15.75,15.75,0,0,0,22.26-.3Z"/><polygon class="cls-2" points="210.12 77.63 181.42 105.33 154.15 77.09 154.15 77.09 181.42 105.34 152.88 132.9 153.02 133.05 181.56 105.49 209.27 134.18 209.28 134.18 181.57 105.48 210.26 77.78 210.12 77.63"/></svg>
