<svg id="Layer_1" data-name="Layer 1" xmlns="http://www.w3.org/2000/svg" width="434" height="566" viewBox="0 0 434 566"><defs><style>.cls-1{fill:#333;}.cls-2{fill:maroon;}.cls-3{fill:#fff;}.cls-4{fill:none;stroke:#000;stroke-linecap:round;stroke-linejoin:round;stroke-width:9px;}</style></defs><title>paraply_element</title><rect class="cls-1" x="201.51" y="230.25" width="23" height="289" rx="8"/><path class="cls-2" d="M433.51,254.25c0-125.37-91.63-229-217-229-36.12,0-69.35,8.43-98.37,23.44C28.22,95.2,7.43,192.48,4.76,205.91A222.68,222.68,0,0,0,.51,252.25l108,.5Z"/><rect class="cls-1" x="211.51" y="0.25" width="12" height="27" rx="3"/><path class="cls-1" d="M179,565.75c-25.37,0-46-22.65-46-50.5a11.5,11.5,0,0,1,23,0c0,15.16,10.32,27.5,23,27.5s23-12.34,23-27.5a11.5,11.5,0,0,1,23,0C225,543.1,204.37,565.75,179,565.75Z"/><circle class="cls-3" cx="150.49" cy="142.99" r="39"/><circle class="cls-3" cx="231.07" cy="151.26" r="39"/><circle cx="160.95" cy="138.08" r="21.76"/><rect x="102.19" y="83.6" width="105.85" height="26.72" transform="translate(76.68 -68.29) rotate(32.6)"/><polyline points="117.51 56.48 114.47 86.1 80.29 82.59"/><circle class="cls-3" cx="167.73" cy="131.86" r="6.49"/><circle cx="222" cy="144.34" r="21.76"/><rect x="183.14" y="91.9" width="105.85" height="26.72" transform="translate(494.15 119.48) rotate(159.12)"/><polyline points="281.11 73.26 278.07 102.89 312.25 106.39"/><circle class="cls-3" cx="216.63" cy="136.88" r="6.49"/><path class="cls-4" d="M155.21,220.84c2.18-14.89,14.77-25.37,28.12-23.42s22.41,15.61,20.23,30.5"/></svg>
