<svg id="Layer_1" data-name="Layer 1" xmlns="http://www.w3.org/2000/svg" width="170" height="170" viewBox="0 0 170 170"><defs><style>.cls-1{fill:red;}.cls-2{opacity:0.4;}.cls-3,.cls-4{fill:none;stroke-linecap:round;stroke-linejoin:round;stroke-width:13px;}.cls-3{stroke:#000;}.cls-4{stroke:#fff;}</style></defs><title>retry_knap</title><circle class="cls-1" cx="85" cy="85" r="85"/><g class="cls-2"><path class="cls-3" d="M43.22,113.82c-9.92-23.65-.31-51.51,23.41-62.68a46,46,0,0,1,62.07,23.1"/><path class="cls-3" d="M125.48,112c-16.83,36.62-65.76,36.78-83,.18"/><path class="cls-3" d="M140,51.69c-3.27,9.21-6.63,18.38-10,27.55-9.57-3.47-19.07-7.11-28.59-10.72"/></g><path class="cls-4" d="M43.22,105.82c-9.92-23.65-.31-51.51,23.41-62.68a46,46,0,0,1,62.07,23.1"/><path class="cls-4" d="M125.48,104c-16.83,36.62-65.76,36.78-83,.18"/><path class="cls-4" d="M140,43.69c-3.27,9.21-6.63,18.38-10,27.55-9.57-3.47-19.07-7.11-28.59-10.72"/></svg>
