<svg id="Layer_1" data-name="Layer 1" xmlns="http://www.w3.org/2000/svg" width="583" height="583" viewBox="0 0 583 583"><defs><style>.cls-1{fill:#ffac2b;}.cls-2{fill:#f2ff00;}.cls-3{fill:#fff;}.cls-4{fill:#f9b9d3;}.cls-5{fill:none;stroke:#000;stroke-linecap:round;stroke-linejoin:round;stroke-width:11px;}</style></defs><title>sol_element</title><polygon class="cls-1" points="539.99 446.01 395.34 394.53 447.96 538.76 340.2 429.54 324.95 582.54 275.41 437.2 195.31 568.67 213.81 416.02 84.73 499.91 167.6 370.17 15.1 389.87 145.93 308.73 0.21 260.34 153.09 243.89 43.02 136.99 187.66 188.47 135.04 44.24 242.8 153.47 258.05 0.46 307.59 145.79 387.69 14.33 369.19 166.98 498.27 83.09 415.4 212.83 567.9 193.13 437.07 274.27 582.79 322.66 429.92 339.11 539.99 446.01"/><circle class="cls-2" cx="293.75" cy="291.98" r="209"/><ellipse class="cls-3" cx="234.21" cy="230.69" rx="92" ry="49" transform="matrix(0.18, -0.98, 0.98, 0.18, -33.94, 420.88)"/><ellipse cx="231.2" cy="246.41" rx="66.5" ry="39.72" transform="matrix(0.18, -0.98, 0.98, 0.18, -51.9, 430.87)"/><circle class="cls-3" cx="222.34" cy="226.04" r="18"/><circle class="cls-3" cx="227.03" cy="271.06" r="10.5"/><ellipse class="cls-3" cx="350.28" cy="246.26" rx="92" ry="49" transform="translate(46.47 547.99) rotate(-79.91)"/><ellipse cx="347.27" cy="261.98" rx="66.5" ry="39.72" transform="matrix(0.18, -0.98, 0.98, 0.18, 28.51, 557.99)"/><circle class="cls-3" cx="338.41" cy="241.61" r="18"/><circle class="cls-3" cx="343.1" cy="286.63" r="10.5"/><ellipse class="cls-4" cx="147.92" cy="307.84" rx="13.2" ry="40.77" transform="translate(-181.07 399.56) rotate(-79.91)"/><ellipse class="cls-4" cx="416.92" cy="355.84" rx="13.2" ry="40.77" transform="translate(-6.45 703.99) rotate(-79.91)"/><path class="cls-5" d="M324.59,383.93c-7.2,30.08-39.59,48.12-72.36,40.28s-53.49-38.57-46.3-68.65"/></svg>
