<svg id="Layer_1" data-name="Layer 1" xmlns="http://www.w3.org/2000/svg" width="768" height="543" viewBox="0 0 768 543"><defs><style>.cls-1{opacity:0.52;}.cls-2{fill:#51c8f2;}.cls-3{fill:#fff;}</style></defs><title>solbriller_element</title><g class="cls-1"><path d="M512.15,210.55c0,107.69-54.95,195-122.75,195s-122.75-87.31-122.75-195"/><path class="cls-2" d="M389.4,415.05c-36.17,0-69.85-21.86-94.83-61.56-24.13-38.32-37.42-89.09-37.42-142.94a9.5,9.5,0,0,1,19,0c0,50.32,12.25,97.49,34.5,132.82,21.38,34,49.35,52.68,78.75,52.68s57.38-18.71,78.76-52.68c22.24-35.33,34.49-82.5,34.49-132.82a9.5,9.5,0,0,1,19,0c0,53.85-13.28,104.62-37.41,142.94C459.25,393.19,425.57,415.05,389.4,415.05Z"/></g><g class="cls-1"><path d="M758.15,215.55c0,96.09-52.72,174-117.75,174s-117.75-77.91-117.75-174"/><path class="cls-2" d="M640.4,399.05c-34.7,0-67.06-19.58-91.13-55.14-23.29-34.42-36.12-80-36.12-128.36a9.5,9.5,0,0,1,19,0c0,44.6,11.67,86.4,32.86,117.71,20.42,30.17,47.19,46.79,75.39,46.79s55-16.62,75.4-46.79C737,302,748.65,260.15,748.65,215.55a9.5,9.5,0,0,1,19,0c0,48.35-12.82,93.94-36.12,128.36C707.47,379.47,675.11,399.05,640.4,399.05Z"/></g><path class="cls-2" d="M753.7,212.36a9.47,9.47,0,0,1-5.54-1.78l-259-186.36A9.49,9.49,0,0,1,487,11l3.93-5.46A9.49,9.49,0,0,1,504.2,3.34l259,186.35A9.51,9.51,0,0,1,765.35,203l-3.93,5.46a9.53,9.53,0,0,1-6.19,3.83A9.86,9.86,0,0,1,753.7,212.36Z"/><path class="cls-2" d="M272.7,220.36a9.49,9.49,0,0,1-5.54-1.78L48.27,61.08a9.51,9.51,0,0,1-2.16-13.26l3.83-5.32A9.49,9.49,0,0,1,63.2,40.34L282.08,197.83a9.5,9.5,0,0,1,2.17,13.26l-3.83,5.32A9.5,9.5,0,0,1,272.7,220.36Z"/><path class="cls-2" d="M21.17,133a9.45,9.45,0,0,1-3.93-.86c-17.53-8-22.12-34.3-10.45-59.93S41.32,32.73,58.85,40.71A9.5,9.5,0,1,1,51,58c-6.59-3-19.49,5.8-26.89,22.06s-5.56,31.77,1,34.77A9.5,9.5,0,0,1,21.17,133Z"/><path class="cls-2" d="M459.17,95a9.45,9.45,0,0,1-3.93-.86c-17.53-8-22.12-34.3-10.45-59.93S479.32-5.27,496.85,2.71A9.5,9.5,0,1,1,489,20c-6.59-3-19.49,5.8-26.89,22.06s-5.56,31.77,1,34.77A9.5,9.5,0,0,1,459.17,95Z"/><rect class="cls-2" x="257.15" y="193.55" width="510" height="27" rx="9.5"/><circle class="cls-3" cx="656.65" cy="290.05" r="60.5"/><circle cx="668.15" cy="296.55" r="42"/><circle class="cls-3" cx="686.65" cy="295.05" r="12.5"/><circle class="cls-3" cx="409.65" cy="297.05" r="60.5"/><circle cx="421.15" cy="303.55" r="42"/><circle class="cls-3" cx="439.65" cy="302.05" r="12.5"/><path d="M522.36,542.55c-47.86,0-86.8-46.66-86.8-104a12,12,0,0,1,24,0c0,44.11,28.17,80,62.8,80s62.79-35.89,62.79-80a12,12,0,0,1,24,0C609.15,495.89,570.22,542.55,522.36,542.55Z"/></svg>
