<svg id="Layer_1" data-name="Layer 1" xmlns="http://www.w3.org/2000/svg" width="182" height="179" viewBox="0 0 182 179"><defs><style>.cls-1{stroke:#fff;stroke-miterlimit:10;stroke-width:3px;}.cls-2{fill:none;stroke:red;stroke-linecap:round;stroke-linejoin:round;stroke-width:15px;}</style></defs><title>sound_off</title><path class="cls-1" d="M174.29,131.78V8.78H30.41V135.29A20.43,20.43,0,1,0,42.58,154a20.68,20.68,0,0,0-.47-4.34h0V32.69H162.56V119a22.64,22.64,0,0,0-8.26-1.54c-11.29,0-20.43,8.08-20.43,18s9.14,18,20.43,18,20.43-8.08,20.43-18A15.76,15.76,0,0,0,174.29,131.78Z"/><polygon class="cls-2" points="173.87 9.08 91.49 88.63 13.19 7.54 13.18 7.55 91.48 88.64 9.54 167.77 9.95 168.2 91.89 89.07 171.45 171.46 171.46 171.45 91.9 89.06 174.28 9.51 173.87 9.08"/></svg>
