<svg id="Layer_1" data-name="Layer 1" xmlns="http://www.w3.org/2000/svg" width="193" height="212" viewBox="0 0 193 212"><defs><style>.cls-1{fill:#fff;}.cls-1,.cls-2{stroke:#fff;stroke-miterlimit:10;}.cls-2{fill:none;stroke-linecap:round;stroke-width:5px;}</style></defs><title>sound_on</title><path class="cls-1" d="M129.27,5.34a15.73,15.73,0,0,0-22.25.3L64.79,49H18.34A17.53,17.53,0,0,0,.81,66.54v78.4a17.53,17.53,0,0,0,17.53,17.53h46l45.4,44.19a15.73,15.73,0,0,0,22.25-.3Z"/><path class="cls-2" d="M176.25,25.26c7.7,0,13.94,35.35,13.94,79s-6.24,79-13.94,79"/><path class="cls-2" d="M155.38,32.23c7.73,0,14,31.19,14,69.67s-6.27,69.67-14,69.67"/><path class="cls-2" d="M138.56,46.16c5.79,0,10.48,25,10.48,55.74s-4.69,55.74-10.48,55.74"/></svg>
