<svg id="Layer_1" data-name="Layer 1" xmlns="http://www.w3.org/2000/svg" width="627" height="359" viewBox="0 0 627 359"><defs><style>.cls-1{fill:#ccc;}.cls-2{fill:#fff;}</style></defs><title>sur_sky_element</title><ellipse class="cls-1" cx="313.5" cy="271.75" rx="313.25" ry="87.25"/><circle class="cls-1" cx="556.25" cy="219.5" r="52.5"/><ellipse class="cls-1" cx="464.75" cy="139.5" rx="84" ry="79.5"/><circle class="cls-1" cx="342.25" cy="99.5" r="99.5"/><ellipse class="cls-1" cx="242.75" cy="167.5" rx="86" ry="75.5"/><circle class="cls-1" cx="131.75" cy="220" r="63"/><ellipse class="cls-1" cx="394.75" cy="189.5" rx="27" ry="49.5"/><circle cx="314.4" cy="176.81" r="20.6"/><path class="cls-2" d="M353.17,150.71c-8.53,40.84-32.56,70.37-53.68,66s-31.31-41.09-22.78-81.93"/><rect x="243.1" y="121.97" width="117.07" height="27.47" transform="translate(113.63 -136.42) rotate(31.14)"/><polyline points="258.89 94.11 257.1 125.18 198.82 121.83"/><circle cx="314.59" cy="173.79" r="24.46"/><circle class="cls-2" cx="327.19" cy="176.42" r="4.72"/><circle cx="408.51" cy="196.47" r="20.6"/><path class="cls-2" d="M383.42,157c-8.53,40.84,1.67,77.52,22.79,81.93s45.14-25.12,53.67-66"/><rect x="378.13" y="150.17" width="117.07" height="27.47" transform="translate(891.05 269.08) rotate(172.46)"/><polyline points="492.48 142.91 481.68 172.09 536.43 192.35"/><circle cx="409.54" cy="193.62" r="24.46"/><circle class="cls-2" cx="396.94" cy="190.99" r="4.72"/><path d="M381.59,311.54a7.14,7.14,0,0,1-1.21-.1,7.5,7.5,0,0,1-6.2-8.6,48,48,0,0,0-94.76-15.39,7.5,7.5,0,1,1-14.8-2.41A63,63,0,0,1,389,305.24,7.51,7.51,0,0,1,381.59,311.54Z"/></svg>
