<svg id="Layer_1" data-name="Layer 1" xmlns="http://www.w3.org/2000/svg" xmlns:xlink="http://www.w3.org/1999/xlink" width="1920" height="1080" viewBox="0 0 1920 1080"><defs><style>.cls-1,.cls-21,.cls-6{fill:none;}.cls-1,.cls-21,.cls-28,.cls-29,.cls-30,.cls-31,.cls-32,.cls-33,.cls-34,.cls-35,.cls-36,.cls-37,.cls-38,.cls-39,.cls-40,.cls-41,.cls-42,.cls-43,.cls-44,.cls-45,.cls-46,.cls-47,.cls-48,.cls-49,.cls-50,.cls-51,.cls-52,.cls-53,.cls-54,.cls-55,.cls-56,.cls-57,.cls-58,.cls-59,.cls-60,.cls-61,.cls-62,.cls-63,.cls-64,.cls-65,.cls-66,.cls-67,.cls-68,.cls-69,.cls-70,.cls-71,.cls-72,.cls-74,.cls-75,.cls-76,.cls-77{stroke:#000;}.cls-1,.cls-28,.cls-29,.cls-30,.cls-31,.cls-32,.cls-33,.cls-34,.cls-35,.cls-36,.cls-37,.cls-38,.cls-39,.cls-40,.cls-41,.cls-42,.cls-43,.cls-44,.cls-45,.cls-46,.cls-47,.cls-48,.cls-49,.cls-50,.cls-51,.cls-52,.cls-53,.cls-54,.cls-55,.cls-56,.cls-57,.cls-58,.cls-59,.cls-60,.cls-61,.cls-62,.cls-63,.cls-64,.cls-65,.cls-66,.cls-67,.cls-68,.cls-69,.cls-70,.cls-71,.cls-72,.cls-74,.cls-75,.cls-76,.cls-77{stroke-miterlimit:10;}.cls-2{fill:#f9bf64;}.cls-3{fill:#ef941b;}.cls-4{fill:#2493ba;}.cls-5{fill:#edd0b9;}.cls-6{stroke:#7ccef2;stroke-width:23px;}.cls-21,.cls-6{stroke-linecap:round;stroke-linejoin:round;}.cls-7,.cls-72{fill:#fff;}.cls-12,.cls-13,.cls-8{fill:#754c24;}.cls-9{fill:#2f7224;}.cls-10{fill:#21adf4;}.cls-11{fill:#42210b;}.cls-12{opacity:0.3;}.cls-13,.cls-14{opacity:0.5;}.cls-15{fill:#666;}.cls-16{fill:#ccc;}.cls-17{fill:#0062b9;}.cls-18{fill:#ffac2b;}.cls-19{fill:#f2ff00;}.cls-20{fill:#f9b9d3;}.cls-21{stroke-width:11px;}.cls-22{fill:#c69c6d;}.cls-23{fill:#ff7bac;}.cls-24{fill:#a67c52;}.cls-25{font-size:300px;font-family:Lobster-Regular, Lobster;}.cls-26{isolation:isolate;}.cls-27{clip-path:url(#clip-path);}.cls-28{fill:#a800a8;}.cls-29{fill:#a300a3;}.cls-30{fill:#9e009e;}.cls-31{fill:#909;}.cls-32{fill:#940094;}.cls-33{fill:#8f008f;}.cls-34{fill:#8a008a;}.cls-35{fill:#850085;}.cls-36{fill:#ad00ad;}.cls-37{fill:#b300b3;}.cls-38{fill:#b800b8;}.cls-39{fill:#bd00bd;}.cls-40{fill:#c200c2;}.cls-41{fill:#c700c7;}.cls-42{fill:#c0c;}.cls-43{fill:#d100d1;}.cls-44{fill:#d600d6;}.cls-45{fill:#db00db;}.cls-46{fill:#e000e0;}.cls-47{fill:#e600e6;}.cls-48{fill:#eb00eb;}.cls-49{fill:#f000f0;}.cls-50{fill:#f500f5;}.cls-51{fill:#fa00fa;}.cls-52{fill:#f0f;}.cls-53{fill:#ff1fff;}.cls-54{fill:#ff2bff;}.cls-55{fill:#ff35ff;}.cls-56{fill:#ff3dff;}.cls-57{fill:#f4f;}.cls-58{fill:#ff4bff;}.cls-59{fill:#ff51ff;}.cls-60{fill:#ff57ff;}.cls-61{fill:#ff5cff;}.cls-62{fill:#ff61ff;}.cls-63{fill:#ff65ff;}.cls-64{fill:#ff6aff;}.cls-65{fill:#ff6eff;}.cls-66{fill:#ff72ff;}.cls-67{fill:#f7f;}.cls-68{fill:#ff7aff;}.cls-69{fill:#ff7eff;}.cls-70{fill:#ff82ff;}.cls-71{fill:#ff85ff;}.cls-73{clip-path:url(#clip-path-2);}.cls-74{fill:red;}.cls-75{fill:blue;}.cls-77{opacity:0.4;}.cls-78{font-size:150px;font-family:AmaticSC-Regular, Amatic SC;}</style><clipPath id="clip-path"><path class="cls-1" d="M159.78,923.7c-1.39,16.12-14.4,30.71-35.54,37,21.14-6.29,34.15-20.88,35.54-37a68.2,68.2,0,0,1-1.13,7.54c-.3,1.26-.68,3-1.05,4.19-.52,1.68-1.24,3.92-1.91,5.55-.46,1.1-1.08,2.56-1.6,3.64-.6,1.24-1.43,2.89-2.15,4.08-.62,1-1.43,2.43-2.12,3.43-1.15,1.63-2.74,3.76-4,5.31-.62.76-1.49,1.75-2.17,2.46s-1.48,1.52-2.13,2.15-1.52,1.43-2.19,2-1.52,1.32-2.21,1.84c-1.33,1-3.12,2.35-4.52,3.27h0c-1.44.84-3.33,2-4.79,2.82-.74.42-1.77.91-2.55,1.27s-1.89.86-2.72,1.2-2,.75-2.81,1.07-2.06.69-3,1c-.44.14-3.27.9-3.72,1-2,.4-4.61.86-6.59,1.14-1.27.17-3,.28-4.24.34-1.08,0-2.53,0-3.62,0-1.54,0-3.59-.15-5.12-.29-1.17-.1-2.72-.35-3.88-.51a47.27,47.27,0,0,1-6.22-1.37,74.75,74.75,0,0,1-7.29-2.53c-1.22-.52-2.83-1.24-4-1.85s-3-1.57-4.22-2.36a73.22,73.22,0,0,1-7.46-5.39c-1.35-1.18-3.11-2.81-4.37-4.09-1-1-2.27-2.45-3.18-3.55A61,61,0,0,1,44,942.6a57.62,57.62,0,0,1-2.54-7,68,68,0,0,1-2-9.26A78.72,78.72,0,0,1,39,918a54.72,54.72,0,0,1,.58-7.78c.22-1.31.48-3.06.77-4.36.41-1.78,1-4.15,1.59-5.9.36-1.17.92-2.7,1.38-3.83.55-1.36,1.3-3.16,2-4.45.53-1,1.2-2.31,1.75-3.27s1.44-2.44,2.13-3.43c.58-.83,1.32-2,2-2.75s1.41-1.81,2-2.56,1.49-1.75,2.18-2.46,1.5-1.58,2.18-2.21,1.48-1.39,2.14-2,1.52-1.32,2.21-1.85c1.33-1,3.12-2.35,4.52-3.26.69-.46,1.64-1,2.35-1.46s1.7-1,2.43-1.36a59.39,59.39,0,0,1,8.08-3.55c1-.33,2.26-.75,3.23-1s2.18-.58,3.11-.82,2.52-.53,3.6-.74a58.93,58.93,0,0,1,7.57-.82c1.47-.06,3.43-.07,4.91,0,1.15,0,2.68.15,3.83.27,1.83.18,4.26.58,6.07.91,1.22.23,2.83.62,4,1,2.23.65,5.14,1.69,7.3,2.52a42.55,42.55,0,0,1,4,1.85c1.28.69,3,1.56,4.23,2.36,2.3,1.53,5.3,3.67,7.45,5.39a56.63,56.63,0,0,1,4.38,4.1c1,1,2.26,2.45,3.18,3.55s2.12,2.63,2.92,3.84c1.32,2,3,4.73,4.14,6.83a53.61,53.61,0,0,1,3.76,8.9c.66,2.11,1.4,5,1.88,7.13.31,1.38.57,3.25.74,4.65.27,2.32.38,5.44.42,7.77C160,920.49,159.88,922.32,159.78,923.7Z"/></clipPath><clipPath id="clip-path-2"><path class="cls-1" d="M151.7,887.93a83.86,83.86,0,0,1,4.23,8.75,53.08,53.08,0,0,1,2.36,7.47c.31,1.38.74,3.23.94,4.64.3,2.15.56,5,.73,7.2a60.16,60.16,0,0,1-.18,7.71,36.06,36.06,0,0,0-5.19-21.58c-13.66-23.29-49.4-34.82-79.82-25.76,30.42-9.06,66.16,2.47,79.82,25.76a36.06,36.06,0,0,1,5.19,21.58h0a76.22,76.22,0,0,1-1.4,8.77c-.54,2.08-1.38,4.83-2.07,6.87-.38,1.15-1.05,2.61-1.51,3.73-.61,1.51-1.65,3.42-2.42,4.86-.52,1-1.29,2.19-1.86,3.12-.67,1.08-1.65,2.46-2.4,3.49-.58.79-1.41,1.82-2,2.59s-1.59,1.88-2.32,2.63-1.47,1.53-2.12,2.17-1.58,1.47-2.27,2.09-1.55,1.35-2.25,1.88c-1.33,1-3.12,2.35-4.52,3.27-.69.46-1.64,1-2.36,1.47s-1.71,1-2.44,1.36-1.76.91-2.53,1.27-1.86.84-2.66,1.17-2,.76-2.81,1.08-2.11.73-3,1-2.35.69-3.38.91c-2,.41-4.6.9-6.58,1.18-1.16.16-2.71.28-3.88.34s-3,.13-4.33.09c-1.14,0-2.67-.07-3.81-.17-1.56-.14-3.64-.36-5.19-.63-1.21-.22-2.83-.5-4-.81-1.88-.48-4.37-1.21-6.21-1.82a63.85,63.85,0,0,1-8-3.51,56.57,56.57,0,0,1-7-4.29A60.34,60.34,0,0,1,57,961.56a67.14,67.14,0,0,1-6.24-7.23c-1.1-1.5-2.45-3.6-3.41-5.19-.76-1.26-1.62-3-2.3-4.31a59.68,59.68,0,0,1-2.77-6.72,69.62,69.62,0,0,1-2.36-9.22,51,51,0,0,1-.8-7.18,62.7,62.7,0,0,1,.14-8.34c.16-1.34.31-3.14.55-4.46.41-2.2,1.07-5.11,1.64-7.27A54.53,54.53,0,0,1,44.2,894c.67-1.49,1.66-3.43,2.43-4.86.51-1,1.3-2.19,1.86-3.12.65-1.09,1.65-2.46,2.4-3.49.58-.8,1.41-1.83,2-2.59s1.6-1.86,2.32-2.63,1.54-1.64,2.25-2.3,1.47-1.41,2.14-2,1.52-1.3,2.19-1.83,1.59-1.23,2.28-1.73,1.6-1.15,2.31-1.59a47.91,47.91,0,0,1,4.78-2.82h0c.8-.3,1.78-.89,2.54-1.27a59.07,59.07,0,0,1,5.47-2.25,63,63,0,0,1,6.41-1.89c2-.44,4.59-.89,6.58-1.18,1.15-.17,2.71-.29,3.88-.35s3-.14,4.32-.09c2.31.1,5.39.3,7.68.61,1.62.21,3.75.65,5.34,1,1.23.27,2.83.75,4,1.1,1.92.54,4.39,1.57,6.24,2.31a68.85,68.85,0,0,1,7.14,3.69c1.2.68,2.68,1.75,3.82,2.51a71.22,71.22,0,0,1,7.14,6c1.13,1,2.47,2.6,3.51,3.74a41.89,41.89,0,0,1,3,3.76C149.37,884.25,150.78,886.31,151.7,887.93Z"/></clipPath></defs><title>titel_screen</title><rect class="cls-2" y="1" width="1920" height="339"/><rect class="cls-3" x="2" y="214" width="1920" height="138"/><rect class="cls-4" x="2" y="339" width="1920" height="367"/><rect class="cls-5" x="5" y="705" width="1920" height="374"/><rect class="cls-6" x="462" y="374.5" width="298.5" height="0.5"/><rect class="cls-6" x="555" y="451.5" width="298.5" height="0.5"/><rect class="cls-6" x="815" y="416.5" width="298.5" height="0.5"/><rect class="cls-6" x="815" y="499.5" width="390.5" height="0.5"/><rect class="cls-6" x="1007" y="451.5" width="149.5" height="6.5"/><rect class="cls-6" x="1056" y="372.5" width="298.5" height="0.5"/><rect class="cls-6" x="1205" y="432.5" width="213.5" height="0.5"/><rect class="cls-6" x="1098" y="539.5" width="203.5" height="0.5"/><rect class="cls-6" x="1269" y="483.5" width="298.5" height="0.5"/><rect class="cls-6" x="661.5" y="541.5" width="257" height="0.5"/><rect class="cls-6" x="338.5" y="486.5" width="366" height="0.5"/><ellipse class="cls-7" cx="378.15" cy="121.14" rx="37.53" ry="172.04" transform="translate(233.56 490.96) rotate(-86.41)"/><ellipse class="cls-7" cx="246.5" cy="90.36" rx="22.58" ry="28.83" transform="translate(140.87 330.72) rotate(-86.41)"/><ellipse class="cls-7" cx="298.81" cy="59.16" rx="34.2" ry="46.13" transform="translate(221.04 353.68) rotate(-86.41)"/><ellipse class="cls-7" cx="367.03" cy="46.2" rx="42.8" ry="54.65" transform="translate(297.93 409.62) rotate(-86.41)"/><ellipse class="cls-7" cx="419.74" cy="78.82" rx="32.48" ry="47.23" transform="translate(314.78 492.8) rotate(-86.41)"/><ellipse class="cls-7" cx="479.16" cy="105.18" rx="27.1" ry="34.6" transform="translate(344.18 576.81) rotate(-86.41)"/><ellipse class="cls-7" cx="335.83" cy="83.04" rx="21.29" ry="14.83" transform="translate(231.92 413.01) rotate(-86.41)"/><path class="cls-8" d="M342.5,844.5c-199-365,104-787-97.23-505.5S229.5,844.5,229.5,844.5Z"/><g id="blad"><path class="cls-9" d="M603.17,214c-39.49,31.84-58.76,60.93-139.1,70.55S346,261.42,312.25,248.81"/><path class="cls-9" d="M603.11,213.46c-46.29-24.86-72.26-51.77-152.6-42.15s-108.75,54.78-138.32,77"/><polyline class="cls-3" points="461.91 273.62 461.05 285.16 477.01 286.34"/><polyline class="cls-3" points="491.21 263.74 489.82 281.68 505.77 282.92"/><polyline class="cls-3" points="512.38 252.41 519.91 272.42 534.88 266.79"/><polyline class="cls-3" points="542.73 240.25 552.5 255.37 565.94 246.69"/></g><g id="blad-2" data-name="blad"><path class="cls-9" d="M551.16,424c-50.52-4.62-84.6,2.87-149-46.12S333.42,279.16,318,246.63"/><path class="cls-9" d="M551.46,423.63c-16-50.05-15.87-87.46-80.27-136.45s-116.22-36.34-152.92-41"/><polyline class="cls-3" points="370.47 300.86 344.78 313.48 351.84 327.84"/><polyline class="cls-3" points="372.66 324.83 359.21 336.8 369.85 348.75"/><polyline class="cls-10" points="397.25 340.71 378.47 357.9 389.27 369.7"/><polyline class="cls-10" points="408.18 368.59 399.54 376.28 410.18 388.23"/><polyline class="cls-10" points="436.11 381.88 422.62 393.8 433.21 405.78"/><polyline class="cls-10" points="459.19 388.48 450.67 408.08 465.35 414.46"/><polyline class="cls-10" points="489.45 400.86 485.94 418.52 501.64 421.63"/></g><g id="blad-3" data-name="blad"><path class="cls-9" d="M313.08,249.27c-45.95-21.49-80.55-26-124.5-94S157.43,39.11,153.93,3.26"/><path class="cls-9" d="M313.5,249c2-52.5,14.75-87.66-29.2-155.6s-97-73.62-130-90.41"/><polyline class="cls-2" points="184.91 72.09 156.47 75.25 158.23 91.15"/><polyline class="cls-2" points="178.83 95.39 162.12 102.08 168.07 116.93"/><polyline class="cls-2" points="196.58 118.67 173.08 128.46 179.23 143.23"/><polyline class="cls-2" points="197.4 148.6 186.66 152.9 192.61 167.75"/><polyline class="cls-2" points="219.16 170.57 202.43 177.21 208.33 192.08"/><polyline class="cls-2" points="238.64 184.62 223.97 200.17 235.61 211.15"/><polyline class="cls-3" points="262.89 206.54 253.61 221.96 267.31 230.21"/></g><path class="cls-9" d="M312.89,248.32c-41.06,29.8-61.77,57.88-142.49,63.43s-116.76-29-149.82-43.32"/><path class="cls-9" d="M20.54,267.93c30.65-20.69,61.32-64.36,142-69.91s105.3,22.65,150.27,49.8"/><polyline class="cls-3" points="95.8 274.65 84.79 301.07 99.56 307.23"/><polyline class="cls-3" points="113.24 291.26 111 309.12 126.88 311.11"/><polyline class="cls-3" points="142.2 287.01 139.39 312.31 155.29 314.08"/><polyline class="cls-3" points="168.79 300.78 167.35 312.26 183.23 314.25"/><polyline class="cls-3" points="198.55 292.38 196.26 310.24 212.13 312.28"/><polyline class="cls-3" points="220.27 282.14 226.77 302.51 242.02 297.64"/><polyline class="cls-3" points="251.19 271.54 260.19 287.13 274.05 279.14"/><rect class="cls-11" x="158" y="620" width="37" height="7" rx="2.5"/><rect class="cls-11" x="205" y="680" width="37" height="7" rx="2.5"/><rect class="cls-11" x="165" y="584" width="37" height="7" rx="2.5"/><path class="cls-11" d="M258.45,366h-.14l-16-.86a2.5,2.5,0,0,1-2.37-2.63l.06-1a2.47,2.47,0,0,1,.82-1.72,2.38,2.38,0,0,1,1.81-.64l16,.85a2.51,2.51,0,0,1,2.37,2.63l-.06,1A2.49,2.49,0,0,1,258.45,366Z"/><rect class="cls-11" x="217" y="612" width="37" height="7" rx="2.5"/><rect class="cls-11" x="224" y="558" width="37" height="7" rx="2.5"/><rect class="cls-11" x="166" y="529" width="49" height="6" rx="2.5"/><rect class="cls-11" x="244" y="710" width="37" height="7" rx="2.5"/><path class="cls-11" d="M267.5,415h-21a2.51,2.51,0,0,1,0-5h21a2.5,2.5,0,0,1,2.5,2.5h0A2.5,2.5,0,0,1,267.5,415Z"/><rect class="cls-11" x="197" y="437" width="52" height="7" rx="2.5"/><rect class="cls-11" x="213" y="497" width="45" height="6" rx="2.5"/><rect class="cls-11" x="249" y="756" width="37" height="7" rx="2.5"/><rect class="cls-11" x="192" y="728" width="37" height="7" rx="2.5"/><rect class="cls-11" x="276" y="322" width="21" height="6" rx="2.5"/><ellipse class="cls-12" cx="183.46" cy="763.44" rx="45.41" ry="115.97" transform="translate(-559.29 508.86) rotate(-57.57)"/><ellipse class="cls-13" cx="1873.91" cy="794.98" rx="133.82" ry="61" transform="translate(248.48 2020.34) rotate(-60)"/><path class="cls-9" d="M1379.11,651.65c2.61,32.34,11.05,53-12.79,98.93S1311.6,804.7,1292.79,818"/><path class="cls-9" d="M1378.83,651.5C1349,667,1325.44,671.06,1301.6,717s-10.2,77.22-9.1,100.85"/><polyline class="cls-5" points="1321.23 778.98 1331.99 793.79 1340.27 787.78"/><polyline class="cls-5" points="1336.1 774.99 1345.11 782.15 1351.48 774.14"/><polyline class="cls-5" points="1343.42 757.75 1356.31 767.71 1362.56 759.61"/><polyline class="cls-5" points="1359.79 747.81 1365.59 752.42 1371.95 744.41"/><path class="cls-9" d="M1378.75,651.45c30.39,24.77,55.47,34.69,75.6,93.89s1.44,93-2.7,120.52"/><path class="cls-9" d="M1378.38,651.58c-11.39,39-27.58,62.92-7.45,122.13s58.82,73.47,80.36,92.27"/><polyline class="cls-5" points="1441.4 808.42 1463.33 811.42 1465 799.17"/><polyline class="cls-5" points="1450.36 792.11 1464.14 790.24 1462.48 777.99"/><polyline class="cls-5" points="1441.45 771.31 1460.91 768.4 1459.08 756.17"/><polyline class="cls-5" points="1446.47 748.72 1455.33 747.52 1453.67 735.27"/><polyline class="cls-5" points="1434.31 728.15 1448.1 726.33 1446.48 714.07"/><polyline class="cls-10" points="1422.35 713.95 1436.28 705.06 1429.63 694.63"/><polyline class="cls-10" points="1408.31 692.95 1418.17 683.14 1409.46 674.37"/><path class="cls-9" d="M1380.39,652.89c-35-7.47-59.41-5.09-100.34-44.75s-39.8-74.83-47.89-98.89"/><path class="cls-9" d="M1380.63,652.64c-7-36.35-3.76-62.51-44.7-102.17s-78.24-35.16-103.52-41.47"/><polyline class="cls-10" points="1264.34 551.59 1245.31 558.26 1249.04 568.9"/><polyline class="cls-10" points="1263.86 568.54 1253.45 575.78 1259.88 585.03"/><polyline class="cls-10" points="1279.72 581.71 1265.15 592.15 1271.71 601.32"/><g id="blad-4" data-name="blad"><path class="cls-9" d="M1375.15,653.24c-41.58,24.64-63.28,48.89-142.08,49.32s-111.92-32.93-143.27-47.76"/><path class="cls-9" d="M1375.14,652.78c-42.21-27.15-64.55-54.09-143.34-53.66s-111,38.23-142,55.22"/><polyline class="cls-10" points="1162.6 664.72 1150.42 688.01 1164.43 694.43"/><polyline class="cls-10" points="1178.63 680.75 1175.46 696.79 1190.79 699.5"/><polyline class="cls-10" points="1207.03 678.55 1202.89 701.3 1218.25 703.8"/><polyline class="cls-10" points="1232.11 692.53 1230.08 702.85 1245.4 705.55"/><polyline class="cls-10" points="1261.52 686.63 1258.29 702.66 1273.61 705.41"/><polyline class="cls-10" points="1283.21 678.59 1288.4 697.4 1303.49 693.86"/><polyline class="cls-10" points="1313.87 670.75 1321.74 685.38 1335.67 678.93"/></g><path class="cls-8" d="M1750,939h0c32-375-231.2-356-378-284.92V654c18-62.08,77.35-156.2,244.67-146.73h0C1597,506,1790,501,1842.17,720.14l34,214"/><rect class="cls-11" x="1528" y="573" width="7" height="37" rx="2.5" transform="translate(-89.15 329.1) rotate(-11.92)"/><rect class="cls-11" x="1478" y="529" width="7" height="37" rx="2.5" transform="translate(-97.92 542.09) rotate(-20.09)"/><path class="cls-11" d="M1425.59,600.87l11.31,20.38a2,2,0,0,1-1,2.63l-1.5.83a2,2,0,0,1-2.75-.56l-11.32-20.37a2,2,0,0,1,1-2.63l1.5-.83A2,2,0,0,1,1425.59,600.87Z"/><rect class="cls-11" x="1578" y="511" width="7" height="37" rx="2.5" transform="translate(-5.13 15.58) rotate(-0.56)"/><rect class="cls-11" x="1593" y="595" width="37" height="7" rx="2.5" transform="translate(604.53 1991.75) rotate(-74.52)"/><rect class="cls-11" x="1782" y="713" width="37" height="7" rx="2.5" transform="translate(-136.57 662.43) rotate(-20.1)"/><rect class="cls-11" x="1750" y="764" width="37" height="7" rx="2.5" transform="translate(-124.05 400.23) rotate(-12.48)"/><rect class="cls-11" x="1666" y="557" width="37" height="7" rx="2.5" transform="translate(282.77 1649.92) rotate(-56.26)"/><path class="cls-11" d="M1709.42,605.8l-28.64,42.88c-1.24,1.85-3.07,2.79-4.1,2.11l-1.48-1c-1-.68-.86-2.74.38-4.59l28.64-42.88c1.24-1.85,3.07-2.79,4.1-2.11l1.48,1C1710.83,601.89,1710.66,604,1709.42,605.8Z"/><path class="cls-11" d="M1784.06,648.63l-41.39,30.76c-1.79,1.32-3.83,1.6-4.57.61l-1.06-1.44c-.74-1,.11-2.87,1.9-4.19l41.39-30.76c1.79-1.32,3.83-1.6,4.57-.61l1.06,1.44C1786.7,645.43,1785.85,647.31,1784.06,648.63Z"/><path class="cls-11" d="M1838.24,790l-49.89,13c-2.16.57-4.15.06-4.47-1.14l-.45-1.73c-.31-1.19,1.18-2.61,3.33-3.18l49.89-13c2.16-.57,4.15-.06,4.47,1.14l.45,1.73C1841.88,788,1840.39,789.44,1838.24,790Z"/><path class="cls-11" d="M1812.25,853.11l-49.94,12.83c-2.16.56-4.15,0-4.46-1.16l-.45-1.73c-.3-1.19,1.2-2.61,3.35-3.16l49.94-12.83c2.16-.56,4.15,0,4.46,1.16l.45,1.73C1815.9,851.14,1814.4,852.56,1812.25,853.11Z"/><path class="cls-11" d="M1858.84,883.61l-77.31,19.86c-3.33.86-6.26.71-6.52-.34l-.39-1.51c-.27-1,2.22-2.58,5.55-3.44l77.31-19.86c3.34-.86,6.26-.71,6.53.34l.39,1.51C1864.66,881.21,1862.18,882.75,1858.84,883.61Z"/><path class="cls-9" d="M1912.87,863.1c-3.36,12.89-2.88,22-18.33,36.63s-28.54,13.59-37.63,16.2"/><path class="cls-9" d="M1912.78,863c-13.65,2-23.35.37-38.8,15s-14.4,28.56-17.16,37.87"/><polyline class="cls-5" points="1899.72 885.4 1904.43 888.45 1906.71 884.92"/><polyline class="cls-5" points="1904.22 878.1 1908.65 879.76 1910.13 875.83"/><path class="cls-9" d="M1895.09,983.12c-11.92-6.58-21.1-8.41-31.65-27.39s-6.25-31.68-6.55-41.34"/><path class="cls-9" d="M1895.21,983.05c1.47-14,5.52-23.2-5-42.18s-24.65-21.46-33.17-26.55"/><polyline class="cls-5" points="1866.24 946.06 1859.77 948.26 1861.16 952.32"/><polyline class="cls-5" points="1865.92 954.09 1862.97 955.04 1864.3 959.13"/><polyline class="cls-5" points="1871.36 960.36 1866.76 961.84 1868.07 965.92"/><polyline class="cls-5" points="1876.32 964.47 1872.11 968.37 1875.03 971.52"/><polyline class="cls-5" points="1882.42 970.77 1879.66 974.74 1883.18 977.19"/><path class="cls-9" d="M1932,891.29c-8.28,10.8-11.46,19.61-31.8,27.21s-32.26,1.46-41.86.31"/><path class="cls-9" d="M1932,891.16c-13.64-3.55-22.12-8.92-42.46-1.32s-24.89,21.17-31.2,28.84"/><polyline class="cls-5" points="1878.17 914.66 1877.36 922.3 1881.63 922.75"/><polyline class="cls-5" points="1883.92 917.6 1884.71 922.36 1888.95 921.66"/><polyline class="cls-5" points="1891.05 914.29 1892.26 921.01 1896.49 920.25"/><polyline class="cls-5" points="1898.94 915.8 1899.45 918.86 1903.68 918.16"/><polyline class="cls-5" points="1905.96 911.36 1906.73 916.13 1910.97 915.45"/><polyline class="cls-5" points="1910.76 907.07 1913.99 911.81 1917.54 909.39"/><polyline class="cls-5" points="1917.9 901.98 1921.41 905.3 1924.36 902.18"/><path class="cls-9" d="M1831.74,983.87c-1.94-12.56-5.83-20.39,2.17-39s19.82-22.71,26.79-28.44"/><path class="cls-9" d="M1831.86,983.92c11.2-6.92,20.3-9.18,28.29-27.8s1.78-30.46.67-39.66"/><polyline class="cls-8" points="1850.71 932.46 1846.08 926.99 1843.02 929.57"/><polyline class="cls-8" points="1845.02 934.45 1841.29 931.91 1839.03 935.22"/><polyline class="cls-5" points="1842.65 941.39 1837.33 937.87 1835.12 941.22"/><polyline class="cls-5" points="1836.54 945.74 1834.14 944.11 1831.88 947.42"/><polyline class="cls-5" points="1835 953.34 1831.29 950.78 1829.02 954.09"/><polyline class="cls-5" points="1834.8 959.35 1829.52 958.47 1828.86 962.43"/><polyline class="cls-5" points="1833.63 967.46 1829.12 967.68 1829.32 971.68"/><path class="cls-9" d="M278.55,904.34c11.51-6.7,20.46-8.7,30.35-27.51s5.41-31.14,5.48-40.6"/><path class="cls-9" d="M278.43,904.28c-1.76-13.69-5.92-22.59,4-41.4s23.64-21.54,31.87-26.71"/><polyline class="cls-5" points="296.5 885.67 300.7 889.39 297.91 892.54"/><polyline class="cls-5" points="290.67 891.98 293.46 895.79 290.07 898.27"/><path class="cls-9" d="M389.37,854.94c-9.54-9.71-13.78-18.06-34.89-23.12s-32.2,2.49-41.58,4.81"/><path class="cls-9" d="M389.34,855.07c-13.11,5.19-20.87,11.56-42,6.51s-27.29-18-34.48-24.82"/><polyline class="cls-5" points="345.91 837.12 346.29 830.3 350.58 830.54"/><polyline class="cls-5" points="353.56 834.65 353.69 831.55 357.98 831.73"/><polyline class="cls-5" points="361.06 838.2 361.25 833.37 365.54 833.54"/><polyline class="cls-5" points="366.36 841.87 368.98 836.77 372.8 838.74"/><polyline class="cls-5" points="374.07 846.06 377.14 842.33 380.46 845.06"/><path class="cls-9" d="M310.85,915.18c8.17-10.88,15.8-16.31,17.65-37.95s-7.27-31.46-11-40.39"/><path class="cls-9" d="M310.71,915.17C303.62,903,296.17,896.26,298,874.63s13.7-29.67,19.39-37.81"/><polyline class="cls-5" points="318.88 857.05 326.02 854.21 327.6 858.2"/><polyline class="cls-5" points="323.26 861.8 328.06 861.28 328.52 865.55"/><polyline class="cls-5" points="321.99 869.55 328.79 868.91 329.19 873.19"/><polyline class="cls-5" points="325.56 876.75 328.65 876.42 329.11 880.68"/><polyline class="cls-5" points="323.18 884.7 327.98 884.16 328.45 888.43"/><polyline class="cls-5" points="320.33 890.48 325.77 892.32 324.39 896.38"/><polyline class="cls-5" points="317.35 898.73 321.49 901.21 319.29 904.9"/><path class="cls-9" d="M373.05,793.73c-12.62,1.5-21.2-.14-37,12.57s-16.55,25.2-20.19,33.46"/><path class="cls-9" d="M373.13,793.82c-3.65,12.65-3.37,22-19.16,34.73s-28.87,9.9-38,11.31"/><polyline class="cls-8" points="328.64 825.82 322.12 822.83 323.79 819.18"/><polyline class="cls-8" points="329.03 819.79 325.58 816.89 328.16 813.82"/><polyline class="cls-5" points="335.08 815.65 330.26 811.47 332.88 808.44"/><polyline class="cls-5" points="337.63 808.59 335.41 806.73 337.99 803.66"/><polyline class="cls-5" points="344.53 805.07 341.07 802.18 343.64 799.1"/><polyline class="cls-5" points="350.26 803.26 348 798.41 351.63 796.71"/><polyline class="cls-5" points="357.76 799.95 356.76 795.55 360.67 794.66"/><g class="cls-14"><ellipse class="cls-15" cx="1702.34" cy="301.8" rx="66.96" ry="240.41" transform="translate(1189.21 1952.78) rotate(-82.79)"/><circle class="cls-15" cx="1892.2" cy="285.41" r="40.29"/><ellipse class="cls-15" cx="1830.24" cy="215.68" rx="61.02" ry="64.47" transform="translate(1386.5 2004.37) rotate(-82.79)"/><circle class="cls-15" cx="1740.82" cy="173.42" r="76.36"/><ellipse class="cls-15" cx="1658.51" cy="215.61" rx="57.95" ry="66" transform="translate(1236.4 1833.93) rotate(-82.79)"/><circle class="cls-15" cx="1568.94" cy="244.89" r="48.35"/><ellipse class="cls-15" cx="1772.13" cy="247.01" rx="37.99" ry="20.72" transform="matrix(0.13, -0.99, 0.99, 0.13, 1304.6, 1974.1)"/></g><ellipse class="cls-16" cx="1627.14" cy="309.93" rx="71.6" ry="257.06" transform="translate(1115.39 1885.29) rotate(-82.79)"/><circle class="cls-16" cx="1830.15" cy="292.4" r="43.08"/><ellipse class="cls-16" cx="1763.9" cy="217.85" rx="65.24" ry="68.93" transform="translate(1326.34 1940.44) rotate(-82.79)"/><circle class="cls-16" cx="1668.29" cy="172.66" r="81.65"/><ellipse class="cls-16" cx="1580.28" cy="217.77" rx="61.96" ry="70.57" transform="translate(1165.85 1758.21) rotate(-82.79)"/><circle class="cls-16" cx="1484.5" cy="249.08" r="51.7"/><ellipse class="cls-16" cx="1701.76" cy="251.34" rx="40.62" ry="22.16" transform="translate(1238.77 1908.09) rotate(-82.79)"/><circle cx="1637.65" cy="232.73" r="16.91"/><path class="cls-7" d="M1671.91,215.48c-11.16,32.37-33.76,53.93-50.5,48.17s-21.26-36.68-10.11-69"/><rect x="1583.46" y="186.68" width="96.07" height="22.54" transform="translate(474.84 -969.57) rotate(38.35)"/><polyline points="1600.98 159.69 1596.32 184.8 1549.22 176.06"/><circle cx="1638.12" cy="230.29" r="20.08"/><circle class="cls-7" cx="1648.11" cy="233.73" r="3.87"/><circle cx="1712.24" cy="258.43" r="16.91"/><path class="cls-7" d="M1695.88,223.74c-11.15,32.37-6.62,63.28,10.11,69.05s39.35-15.8,50.5-48.17"/><rect x="1690.48" y="223.55" width="96.07" height="22.54" transform="translate(3478.36 459.64) rotate(179.67)"/><polyline points="1786.12 223.48 1774.33 246.12 1816.81 268.25"/><circle cx="1713.38" cy="256.22" r="20.08"/><circle class="cls-7" cx="1703.39" cy="252.78" r="3.87"/><path d="M1678.48,349.34a6.82,6.82,0,0,1-1-.2,6.16,6.16,0,0,1-4.16-7.65,39.39,39.39,0,0,0-75.56-22.29,6.16,6.16,0,0,1-11.81-3.48A51.7,51.7,0,0,1,1685.15,345,6.16,6.16,0,0,1,1678.48,349.34Z"/><path class="cls-17" d="M1473,443.14a27.7,27.7,0,0,1-55.4,0c0-15.29,27.21-41.3,28.19-49.08C1444.85,401.84,1473,427.85,1473,443.14Z"/><path class="cls-17" d="M1555.2,497a27.7,27.7,0,1,1-55.39,0c0-15.3,27.21-41.3,28.18-49.08C1527,455.72,1555.2,481.72,1555.2,497Z"/><path class="cls-17" d="M1641.41,443.14a27.7,27.7,0,0,1-55.4,0c0-15.29,27.21-41.3,28.18-49.08C1613.22,401.84,1641.41,427.85,1641.41,443.14Z"/><path class="cls-17" d="M1683.16,541.47a27.7,27.7,0,1,1-55.39,0c0-15.3,27.21-41.3,28.18-49.08C1655,500.17,1683.16,526.17,1683.16,541.47Z"/><path class="cls-17" d="M1761.28,486.25a27.7,27.7,0,0,1-55.39,0c0-15.3,27.21-41.31,28.18-49.08C1733.1,444.94,1761.28,471,1761.28,486.25Z"/><path class="cls-17" d="M1601,602.08a27.7,27.7,0,0,1-55.4,0c0-15.29,27.21-41.3,28.19-49.08C1572.81,560.78,1601,586.79,1601,602.08Z"/><polygon class="cls-18" points="100.23 765.02 222.64 721.44 178.11 843.51 269.31 751.07 282.21 880.56 324.14 757.56 391.93 868.82 376.27 739.63 485.52 810.63 415.38 700.83 544.45 717.5 433.72 648.84 557.05 607.88 427.66 593.96 520.82 503.49 398.4 547.06 442.94 424.99 351.74 517.43 338.83 387.94 296.91 510.94 229.12 399.68 244.78 528.87 135.53 457.88 205.66 567.68 76.6 551 187.32 619.67 64 660.62 193.38 674.54 100.23 765.02"/><circle class="cls-19" cx="308.62" cy="634.66" r="176.88"/><ellipse class="cls-7" cx="359.01" cy="582.79" rx="41.47" ry="77.86" transform="translate(-96.53 71.89) rotate(-10.09)"/><ellipse cx="361.56" cy="596.09" rx="33.61" ry="56.28" transform="translate(-98.82 72.55) rotate(-10.09)"/><circle class="cls-7" cx="369.05" cy="578.85" r="15.23"/><circle class="cls-7" cx="365.08" cy="616.95" r="8.89"/><ellipse class="cls-7" cx="260.78" cy="595.97" rx="41.47" ry="77.86" transform="translate(-100.36 54.89) rotate(-10.09)"/><ellipse cx="263.33" cy="609.27" rx="33.61" ry="56.28" transform="translate(-102.65 55.54) rotate(-10.09)"/><circle class="cls-7" cx="270.82" cy="592.03" r="15.23"/><circle class="cls-7" cx="266.85" cy="630.13" r="8.89"/><ellipse class="cls-20" cx="432.03" cy="648.08" rx="34.5" ry="11.17" transform="translate(-106.84 85.7) rotate(-10.09)"/><ellipse class="cls-20" cx="204.38" cy="688.71" rx="34.5" ry="11.17" transform="translate(-117.48 46.45) rotate(-10.09)"/><path class="cls-21" d="M282.52,712.48c6.09,25.46,33.5,40.72,61.23,34.09s45.28-32.65,39.19-58.1"/><path class="cls-22" d="M497.18,133.24a6.22,6.22,0,0,0-2.24,8.49l54.16,93.84a2.86,2.86,0,0,0,5.33-1.59l-7.22-124.82a2.86,2.86,0,0,0-4.29-2.31Z"/><ellipse class="cls-23" cx="517.83" cy="122.87" rx="45.33" ry="12.71" transform="translate(-13.47 153.97) rotate(-16.7)"/><ellipse class="cls-23" cx="507.88" cy="89.66" rx="46.75" ry="37.96" transform="translate(-4.35 149.7) rotate(-16.7)"/><ellipse class="cls-7" cx="474.34" cy="89.24" rx="16.63" ry="6.43" transform="translate(313.43 544.29) rotate(-81.18)"/><ellipse class="cls-7" cx="483.97" cy="113.32" rx="5.99" ry="7.88" transform="translate(-6.8 34.49) rotate(-4.05)"/><ellipse class="cls-7" cx="515.94" cy="82.87" rx="10.57" ry="19.85" transform="translate(-5.34 119.38) rotate(-13.13)"/><ellipse cx="516.68" cy="86.25" rx="8.57" ry="14.35" transform="translate(-6.08 119.63) rotate(-13.13)"/><circle class="cls-7" cx="513.19" cy="82.96" r="3.88"/><circle class="cls-7" cx="517.95" cy="91.49" r="2.27"/><ellipse class="cls-7" cx="497.78" cy="90.67" rx="10.57" ry="19.85" transform="translate(-7.58 115.45) rotate(-13.13)"/><ellipse cx="498.52" cy="94.04" rx="8.57" ry="14.35" transform="translate(-8.33 115.71) rotate(-13.13)"/><circle class="cls-7" cx="495.03" cy="90.75" r="3.88"/><circle class="cls-7" cx="499.79" cy="99.28" r="2.27"/><path d="M517.05,128.51l-.5.14c-6.3,1.55-12.87-3.09-14.66-10.34a1.57,1.57,0,1,1,3.05-.75c1.37,5.57,6.24,9.18,10.86,8s7.26-6.59,5.89-12.17a1.57,1.57,0,1,1,3-.75C526.48,119.74,523,126.72,517.05,128.51Z"/><path class="cls-24" d="M529.49,184a1.57,1.57,0,0,1-1.79-.68l-17.19-27.75a1.57,1.57,0,0,1,2.67-1.65l17.19,27.75a1.56,1.56,0,0,1-.51,2.16A1.76,1.76,0,0,1,529.49,184Z"/><path class="cls-24" d="M538.5,184.61a1.56,1.56,0,0,1-1.78-.68l-17.19-27.75a1.57,1.57,0,1,1,2.67-1.65l17.19,27.75a1.58,1.58,0,0,1-.51,2.16A1.84,1.84,0,0,1,538.5,184.61Z"/><path class="cls-24" d="M534.85,162.58,513.44,169a1.57,1.57,0,0,1-.9-3L534,159.58a1.57,1.57,0,0,1,.9,3Z"/><path class="cls-24" d="M539.06,167.87l-21.41,6.42a1.57,1.57,0,1,1-.91-3l21.41-6.42a1.57,1.57,0,1,1,.91,3Z"/><path class="cls-24" d="M540.11,173.64l-17.18,5.16a1.59,1.59,0,0,1-2-1.06,1.56,1.56,0,0,1,1-2l17.18-5.15a1.57,1.57,0,1,1,.91,3Z"/><g class="cls-14"><text class="cls-25" transform="translate(493.85 293.88)">Sommer</text><text/></g><g class="cls-26"><g class="cls-26"><g class="cls-27"><g class="cls-26"><path class="cls-28" d="M159.78,923.7c.14-2.76.25-6.46.1-9.23a52.11,52.11,0,0,0-1-7.78,57,57,0,0,0-3.58-11.64,62.28,62.28,0,0,0-3.57-7.12,61.61,61.61,0,0,0-9.65-12.43,60.53,60.53,0,0,0-49.51-17.06,59.57,59.57,0,0,0-10,2,61.23,61.23,0,0,0-8.75,3.31A59.18,59.18,0,0,0,59.68,873a59.86,59.86,0,0,0-10.49,11.94,60.71,60.71,0,0,0-4.27,7.51,58.84,58.84,0,0,0-3.51,9.19,85.92,85.92,0,0,0-1.83,8.54A51.94,51.94,0,0,0,39,918a69.25,69.25,0,0,0,.5,8.4c.22,1.4.47,3.27.79,4.65a72.34,72.34,0,0,0,2,7.1A84.92,84.92,0,0,0,46.1,947a49.51,49.51,0,0,0,3.84,6.26,60.36,60.36,0,0,0,14.12,14.34,61.52,61.52,0,0,0,15.32,8,60.5,60.5,0,0,0,74.31-30.16,60.07,60.07,0,0,0,6.09-21.73c-1.39,16.12-14.4,30.71-35.54,37,21.14-6.29,34.15-20.88,35.54-37"/><path class="cls-28" d="M124.24,960.7c-9.33,9.42-23.44,23.65-49.32,12.62-23-9.79-34-31.36-34.7-48.4-1.75-42.22,44.4-54.28,73-28.6,14,12.62,17.1,26.92,17.57,29.66.9,5.25,1.92,11.19.31,19.73-1,5.56-4.61,10-6.83,15,21.14-6.29,34.15-20.88,35.54-37l.23-4.59c-.07-2.33-.21-5.44-.42-7.77l-.74-4.65c-.52-2.15-1.23-5-1.88-7.13l-1.7-4.51c-1-2.16-2.41-5-3.57-7.12l-2.63-4.1a60.62,60.62,0,0,0-7-8.33l-3.46-3.16c-4.81-3.77-4.91-3.84-7.77-5.58l-3.91-2.17c-2.15-1-5.06-2.26-7.28-3.11l-4-1.26c-1.85-.45-4.34-1-6.21-1.37l-3.88-.51c-1.54-.11-3.59-.26-5.13-.3l-3.61.06c-1.27.09-3,.2-4.24.34l-3.33.48c-1.08.22-2.53.49-3.6.74l-3.11.82-.28.08-3,1c-.86.33-2,.75-2.88,1.11l-2.64,1.16c-.77.38-1.8.88-2.56,1.28l-2.43,1.36c-.7.44-1.66,1-2.35,1.46l-2.29,1.58c-.68.5-1.58,1.17-2.24,1.69L59.68,873c-.66.6-1.55,1.39-2.19,2l-2.13,2.16c-.65.74-1.54,1.7-2.18,2.46l-2,2.56c-.66.93-1.56,2.16-2.18,3.11l-1.9,3.07c-.65,1.22-1.54,2.84-2.14,4.08l-1.6,3.64c-.6,1.65-1.39,3.86-1.91,5.55l-1.06,4.18c-.39,2.26-.87,5.27-1.13,7.55L39,918c.07,2.52.25,5.89.5,8.4l.79,4.65c.54,2.14,1.28,5,2,7.1L44,942.6c.95,2,2.24,4.62,3.32,6.54l2.63,4.1a60.33,60.33,0,0,0,7,8.32l3.45,3.16c4.82,3.77,4.91,3.84,7.78,5.58l3.9,2.17c2.16,1,5.07,2.26,7.29,3.12l4,1.26c1.86.44,4.34,1,6.22,1.37l3.88.51c1.54.11,3.58.26,5.12.29l3.62,0c1.27-.1,3-.2,4.24-.34l3.33-.48c1.08-.22,2.52-.49,3.6-.74l3.11-.82.27-.09,3-1c.87-.33,2-.75,2.89-1.1l2.64-1.17c.77-.38,1.8-.87,2.55-1.27l2.44-1.36c.7-.44,1.65-1,2.35-1.46l2.29-1.58c.67-.51,1.58-1.17,2.24-1.7l2.2-1.83c.66-.61,1.55-1.4,2.19-2l2.13-2.15c.65-.74,1.54-1.71,2.17-2.46l2.05-2.57c.66-.93,1.55-2.15,2.18-3.1l1.89-3.07c.66-1.22,1.55-2.84,2.15-4.08l1.6-3.64c.59-1.66,1.39-3.87,1.91-5.55l1.05-4.19c.4-2.25.88-5.27,1.13-7.54-1.39,16.12-14.4,30.71-35.54,37"/><path class="cls-29" d="M127.44,959.67c-4.41,3.16-6.71,8.37-11.13,11.52a41,41,0,0,1-12.49,5.32c-11.16,2.37-22.28.74-33-4.84-21-10.87-34.09-35.45-30.48-57.16,6.48-39.08,56.84-45.64,82.9-10.8,19.05,25.47,8.37,53,4.25,56,19.25-6.77,31-20.67,32.34-36l.23-4.59c-.07-2.33-.21-5.44-.42-7.77l-.74-4.65c-.52-2.15-1.23-5-1.88-7.13l-1.7-4.51c-1-2.16-2.41-5-3.57-7.12l-2.63-4.1a60.62,60.62,0,0,0-7-8.33l-3.46-3.16c-4.81-3.77-4.91-3.84-7.77-5.58l-3.91-2.17c-2.15-1-5.06-2.26-7.28-3.11l-4-1.26c-1.85-.45-4.34-1-6.21-1.37l-3.88-.51c-1.54-.11-3.59-.26-5.13-.3l-3.61.06c-1.27.09-3,.2-4.24.34l-3.33.48c-1.08.22-2.53.49-3.6.74l-3.11.82-.28.08-3,1c-.86.33-2,.75-2.88,1.11l-2.64,1.16c-.77.38-1.8.88-2.56,1.28l-2.43,1.36c-.7.44-1.66,1-2.35,1.46l-2.29,1.58c-.68.5-1.58,1.17-2.24,1.69L59.68,873c-.66.6-1.55,1.39-2.19,2l-2.13,2.16c-.65.74-1.54,1.7-2.18,2.46l-2,2.56c-.66.93-1.56,2.16-2.18,3.11l-1.9,3.07c-.65,1.22-1.54,2.84-2.14,4.08l-1.6,3.64c-.6,1.65-1.39,3.86-1.91,5.55l-1.06,4.18c-.39,2.26-.87,5.27-1.13,7.55L39,918c.07,2.52.25,5.89.5,8.4l.79,4.65c.54,2.14,1.28,5,2,7.1L44,942.6c.95,2,2.24,4.62,3.32,6.54l2.63,4.1a60.33,60.33,0,0,0,7,8.32l3.45,3.16c4.82,3.77,4.91,3.84,7.78,5.58l3.9,2.17c2.16,1,5.07,2.26,7.29,3.12l4,1.26c1.86.44,4.34,1,6.22,1.37l3.88.51c1.54.11,3.58.26,5.12.29l3.62,0c1.27-.1,3-.2,4.24-.34l3.33-.48c1.08-.22,2.52-.49,3.6-.74l3.11-.82.27-.09,3-1c.87-.33,2-.75,2.89-1.1l2.64-1.17c.77-.38,1.8-.87,2.55-1.27l2.44-1.36c.7-.44,1.65-1,2.35-1.46l2.29-1.58c.67-.51,1.58-1.17,2.24-1.7l2.2-1.83c.66-.61,1.55-1.4,2.19-2l2.13-2.15c.65-.74,1.54-1.71,2.17-2.46l2.05-2.57c.66-.93,1.55-2.15,2.18-3.1l1.89-3.07c.66-1.22,1.55-2.84,2.15-4.08l1.6-3.64c.59-1.66,1.39-3.87,1.91-5.55l1.05-4.19c.4-2.25.88-5.27,1.13-7.54-1.32,15.3-13.09,29.2-32.34,36"/><path class="cls-30" d="M42.54,939c-14-44.09,23.09-74.9,64-53.18,26.36,14,38,49.34,24,72.73,17.42-7.12,28-20.34,29.26-34.8l.23-4.59c-.07-2.33-.21-5.44-.42-7.77l-.74-4.65c-.52-2.15-1.23-5-1.88-7.13l-1.7-4.51c-1-2.16-2.41-5-3.57-7.12l-2.63-4.1a60.62,60.62,0,0,0-7-8.33l-3.46-3.16c-4.81-3.77-4.91-3.84-7.77-5.58l-3.91-2.17c-2.15-1-5.06-2.26-7.28-3.11l-4-1.26c-1.85-.45-4.34-1-6.21-1.37l-3.88-.51c-1.54-.11-3.59-.26-5.13-.3l-3.61.06c-1.27.09-3,.2-4.24.34l-3.33.48c-1.08.22-2.53.49-3.6.74l-3.11.82-.28.08-3,1c-.86.33-2,.75-2.88,1.11l-2.64,1.16c-.77.38-1.8.88-2.56,1.28l-2.43,1.36c-.7.44-1.66,1-2.35,1.46l-2.29,1.58c-.68.5-1.58,1.17-2.24,1.69L59.68,873c-.66.6-1.55,1.39-2.19,2l-2.13,2.16c-.65.74-1.54,1.7-2.18,2.46l-2,2.56c-.66.93-1.56,2.16-2.18,3.11l-1.9,3.07c-.65,1.22-1.54,2.84-2.14,4.08l-1.6,3.64c-.6,1.65-1.39,3.86-1.91,5.55l-1.06,4.18c-.39,2.26-.87,5.27-1.13,7.55L39,918c.07,2.52.25,5.89.5,8.4l.79,4.65c.54,2.14,1.28,5,2,7.1l1,2.67c-.21-.55-.5-1.28-.69-1.83"/><path class="cls-30" d="M130.52,958.5c-3.8,3.28-5.68,8.24-9.82,11.23a41.16,41.16,0,0,1-16,7.41c-12.52,2.41-24.7.17-36.21-6.67l3.92,2.15c2.07.94,4.86,2.15,7,3l4,1.26c1.86.44,4.34,1,6.22,1.37l3.88.51c1.54.11,3.58.26,5.12.29l3.62,0c1.27-.1,3-.2,4.24-.34l3.33-.48c1.08-.22,2.52-.49,3.6-.74l3.11-.82.27-.09,3-1c.87-.33,2-.75,2.89-1.1l2.64-1.17c.77-.38,1.8-.87,2.55-1.27l2.44-1.36c.7-.44,1.65-1,2.35-1.46l2.29-1.58c.67-.51,1.58-1.17,2.24-1.7l2.2-1.83c.66-.61,1.55-1.4,2.19-2l2.13-2.15c.65-.74,1.54-1.71,2.17-2.46l2.05-2.57c.66-.93,1.55-2.15,2.18-3.1l1.89-3.07c.66-1.22,1.55-2.84,2.15-4.08l1.6-3.64c.59-1.66,1.39-3.87,1.91-5.55l1.05-4.19c.4-2.25.88-5.27,1.13-7.54-1.24,14.46-11.84,27.68-29.26,34.8"/><path class="cls-31" d="M39.52,926.5c-4-47.78,45.41-64,77.72-36.52,22.45,19.13,26.42,50.25,16,67.31,15.78-7.34,25.32-19.91,26.5-33.59l.23-4.59c-.07-2.33-.21-5.44-.42-7.77l-.74-4.65c-.52-2.15-1.23-5-1.88-7.13l-1.7-4.51c-1-2.16-2.41-5-3.57-7.12l-2.63-4.1a60.62,60.62,0,0,0-7-8.33l-3.46-3.16c-4.81-3.77-4.91-3.84-7.77-5.58l-3.91-2.17c-2.15-1-5.06-2.26-7.28-3.11l-4-1.26c-1.85-.45-4.34-1-6.21-1.37l-3.88-.51c-1.54-.11-3.59-.26-5.13-.3l-3.61.06c-1.27.09-3,.2-4.24.34l-3.33.48c-1.08.22-2.53.49-3.6.74l-3.11.82-.28.08-3,1c-.86.33-2,.75-2.88,1.11l-2.64,1.16c-.77.38-1.8.88-2.56,1.28l-2.43,1.36c-.7.44-1.66,1-2.35,1.46l-2.29,1.58c-.68.5-1.58,1.17-2.24,1.69L59.68,873c-.66.6-1.55,1.39-2.19,2l-2.13,2.16c-.65.74-1.54,1.7-2.18,2.46l-2,2.56c-.66.93-1.56,2.16-2.18,3.11l-1.9,3.07c-.65,1.22-1.54,2.84-2.14,4.08l-1.6,3.64c-.6,1.65-1.39,3.86-1.91,5.55l-1.06,4.18c-.39,2.26-.87,5.27-1.13,7.55L39,918c.07,2.52.25,5.89.5,8.4l.42,2.75c-.12-.78-.3-1.82-.4-2.61"/><path class="cls-31" d="M133.28,957.29c-4.4,10-24,28.5-53.6,18.4l4,1.24c1.77.41,4.13,1,5.91,1.29l3.88.51c1.54.11,3.58.26,5.12.29l3.62,0c1.27-.1,3-.2,4.24-.34l3.33-.48c1.08-.22,2.52-.49,3.6-.74l3.11-.82.27-.09,3-1c.87-.33,2-.75,2.89-1.1l2.64-1.17c.77-.38,1.8-.87,2.55-1.27l2.44-1.36c.7-.44,1.65-1,2.35-1.46l2.29-1.58c.67-.51,1.58-1.17,2.24-1.7l2.2-1.83c.66-.61,1.55-1.4,2.19-2l2.13-2.15c.65-.74,1.54-1.71,2.17-2.46l2.05-2.57c.66-.93,1.55-2.15,2.18-3.1l1.89-3.07c.66-1.22,1.55-2.84,2.15-4.08l1.6-3.64c.59-1.66,1.39-3.87,1.91-5.55l1.05-4.19c.4-2.25.88-5.27,1.13-7.54-1.18,13.68-10.72,26.25-26.5,33.59"/><path class="cls-32" d="M39.11,915.23c5.18-48.93,61.24-53.25,89-17.65,15.49,19.84,15.68,44.84,8,58.28,14.06-7.48,22.53-19.33,23.63-32.16h0a64.88,64.88,0,0,0-.19-12.36l-.74-4.65c-.52-2.15-1.23-5-1.88-7.13l-1.7-4.51c-1-2.16-2.41-5-3.57-7.12l-2.63-4.1a60.62,60.62,0,0,0-7-8.33l-3.46-3.16c-4.81-3.77-4.91-3.84-7.77-5.58l-3.91-2.17c-2.15-1-5.06-2.26-7.28-3.11l-4-1.26c-1.85-.45-4.34-1-6.21-1.37l-3.88-.51c-1.54-.11-3.59-.26-5.13-.3l-3.61.06c-1.27.09-3,.2-4.24.34l-3.33.48c-1.08.22-2.53.49-3.6.74l-3.11.82-.28.08-3,1c-.86.33-2,.75-2.88,1.11l-2.64,1.16c-.77.38-1.8.88-2.56,1.28l-2.43,1.36c-.7.44-1.66,1-2.35,1.46l-2.29,1.58c-.68.5-1.58,1.17-2.24,1.69L59.68,873c-.66.6-1.55,1.39-2.19,2l-2.13,2.16c-.65.74-1.54,1.7-2.18,2.46l-2,2.56c-.66.93-1.56,2.16-2.18,3.11l-1.9,3.07c-.65,1.22-1.54,2.84-2.14,4.08l-1.6,3.64c-.6,1.65-1.39,3.86-1.91,5.55l-1.06,4.18c-.39,2.26-.87,5.27-1.13,7.55L39,918v1.54l.11-4.27"/><path class="cls-32" d="M136.15,955.86c-3.06,3.43-4.71,7.87-8,11.13a43.4,43.4,0,0,1-10.95,7.59,46.43,46.43,0,0,1-28.06,3.55c1.3.23,3.05.43,4.36.6,1.54.11,3.58.26,5.12.29l3.62,0c1.27-.1,3-.2,4.24-.34l3.33-.48c1.08-.22,2.52-.49,3.6-.74l3.11-.82.27-.09,3-1c.87-.33,2-.75,2.89-1.1l2.64-1.17c.77-.38,1.8-.87,2.55-1.27l2.44-1.36c.7-.44,1.65-1,2.35-1.46l2.29-1.58c.67-.51,1.58-1.17,2.24-1.7l2.2-1.83c.66-.61,1.55-1.4,2.19-2l2.13-2.15c.65-.74,1.54-1.71,2.17-2.46l2.05-2.57c.66-.93,1.55-2.15,2.18-3.1l1.89-3.07c.66-1.22,1.55-2.84,2.15-4.08l1.6-3.64c.59-1.66,1.39-3.87,1.91-5.55l1.05-4.19c.4-2.25.88-5.27,1.13-7.54-1.1,12.83-9.57,24.68-23.63,32.16"/><path class="cls-33" d="M40.52,905.29C51,862.5,110.21,860.87,135,902.69c11,18.51,10.34,39.92,4,51.51,12.31-7.51,19.69-18.58,20.71-30.5l.23-4.59c-.07-2.33-.21-5.44-.42-7.77l-.74-4.65c-.52-2.15-1.23-5-1.88-7.13l-1.7-4.51c-1-2.16-2.41-5-3.57-7.12l-2.63-4.1a60.62,60.62,0,0,0-7-8.33l-3.46-3.16c-4.81-3.77-4.91-3.84-7.77-5.58l-3.91-2.17c-2.15-1-5.06-2.26-7.28-3.11l-4-1.26c-1.85-.45-4.34-1-6.21-1.37l-3.88-.51c-1.54-.11-3.59-.26-5.13-.3l-3.61.06c-1.27.09-3,.2-4.24.34l-3.33.48c-1.08.22-2.53.49-3.6.74l-3.11.82-.28.08-3,1c-.86.33-2,.75-2.88,1.11l-2.64,1.16c-.77.38-1.8.88-2.56,1.28l-2.43,1.36c-.7.44-1.66,1-2.35,1.46l-2.29,1.58c-.68.5-1.58,1.17-2.24,1.69L59.68,873c-.66.6-1.55,1.39-2.19,2l-2.13,2.16c-.65.74-1.54,1.7-2.18,2.46l-2,2.56c-.66.93-1.56,2.16-2.18,3.11l-1.9,3.07c-.65,1.22-1.54,2.84-2.14,4.08l-1.6,3.64c-.6,1.65-1.39,3.86-1.91,5.55l-1.06,4.18-.76,4.27.7-3.8.23-1"/><path class="cls-33" d="M139.07,954.2c-3.43,8.73-16.37,25.15-40.76,24.82l3.92,0c1.27-.1,3-.2,4.24-.34l3.33-.48c1.08-.22,2.52-.49,3.6-.74l3.11-.82.27-.09,3-1c.87-.33,2-.75,2.89-1.1l2.64-1.17c.77-.38,1.8-.87,2.55-1.27l2.44-1.36c.7-.44,1.65-1,2.35-1.46l2.29-1.58c.67-.51,1.58-1.17,2.24-1.7l2.2-1.83c.66-.61,1.55-1.4,2.19-2l2.13-2.15c.65-.74,1.54-1.71,2.17-2.46l2.05-2.57c.66-.93,1.55-2.15,2.18-3.1l1.89-3.07c.66-1.22,1.55-2.84,2.15-4.08l1.6-3.64c.59-1.66,1.39-3.87,1.91-5.55l1.05-4.19c.4-2.25.88-5.27,1.13-7.54-1,11.92-8.4,23-20.71,30.5"/><path class="cls-34" d="M42.77,897.62c15.91-40.54,75.71-36.21,96.94,7,6,12.33,9.92,31.26,2.61,47.41,10.36-7.39,16.53-17.52,17.46-28.35h0a64.88,64.88,0,0,0-.19-12.36l-.74-4.65c-.52-2.15-1.23-5-1.88-7.13l-1.7-4.51c-1-2.16-2.41-5-3.57-7.12l-2.63-4.1a60.62,60.62,0,0,0-7-8.33l-3.46-3.16c-4.81-3.77-4.91-3.84-7.77-5.58l-3.91-2.17c-2.15-1-5.06-2.26-7.28-3.11l-4-1.26c-1.85-.45-4.34-1-6.21-1.37l-3.88-.51c-1.54-.11-3.59-.26-5.13-.3l-3.61.06c-1.27.09-3,.2-4.24.34l-3.33.48c-1.08.22-2.53.49-3.6.74l-3.11.82-.28.08-3,1c-.86.33-2,.75-2.88,1.11l-2.64,1.16c-.77.38-1.8.88-2.56,1.28l-2.43,1.36c-.7.44-1.66,1-2.35,1.46l-2.29,1.58c-.68.5-1.58,1.17-2.24,1.69L59.68,873c-.66.6-1.55,1.39-2.19,2l-2.13,2.16c-.65.74-1.54,1.7-2.18,2.46l-2,2.56c-.66.93-1.56,2.16-2.18,3.11l-1.9,3.07c-.65,1.22-1.54,2.84-2.14,4.08l-1.6,3.64c-.52,1.44-1.23,3.36-1.69,4.82l1.11-3.23,0-.06"/><path class="cls-34" d="M142.32,952.05c-2.52,7.79-13,23.35-34.8,26.45l3.31-.54,2.57-.55,3.11-.82.27-.09,3-1c.87-.33,2-.75,2.89-1.1l2.64-1.17c.77-.38,1.8-.87,2.55-1.27l2.44-1.36c.7-.44,1.65-1,2.35-1.46l2.29-1.58c.67-.51,1.58-1.17,2.24-1.7l2.2-1.83c.66-.61,1.55-1.4,2.19-2l2.13-2.15c.65-.74,1.54-1.71,2.17-2.46l2.05-2.57c.66-.93,1.55-2.15,2.18-3.1l1.89-3.07c.66-1.22,1.55-2.84,2.15-4.08l1.6-3.64c.59-1.66,1.39-3.87,1.91-5.55l1.05-4.19c.4-2.25.88-5.27,1.13-7.54-.93,10.83-7.1,21-17.46,28.35"/><path class="cls-35" d="M47,888.53c27.6-43.7,91.8-17.38,101.33,29.71,3.39,16.78-.82,27.35-2.2,30.83,8.07-7,12.86-15.94,13.67-25.37l.23-4.59c-.07-2.33-.21-5.44-.42-7.77l-.74-4.65c-.52-2.15-1.23-5-1.88-7.13l-1.7-4.51c-1-2.16-2.41-5-3.57-7.12l-2.63-4.1a60.62,60.62,0,0,0-7-8.33l-3.46-3.16c-4.81-3.77-4.91-3.84-7.77-5.58l-3.91-2.17c-2.15-1-5.06-2.26-7.28-3.11l-4-1.26c-1.85-.45-4.34-1-6.21-1.37l-3.88-.51c-1.54-.11-3.59-.26-5.13-.3l-3.61.06c-1.27.09-3,.2-4.24.34l-3.33.48c-1.08.22-2.53.49-3.6.74l-3.11.82-.28.08-3,1c-.86.33-2,.75-2.88,1.11l-2.64,1.16c-.77.38-1.8.88-2.56,1.28l-2.43,1.36c-.7.44-1.66,1-2.35,1.46l-2.29,1.58c-.68.5-1.58,1.17-2.24,1.69L59.68,873c-.66.6-1.55,1.39-2.19,2l-2.13,2.16c-.65.74-1.54,1.7-2.18,2.46l-2,2.56c-.66.93-1.56,2.16-2.18,3.11l-1.9,3.07-1,1.86.95-1.7"/><path class="cls-35" d="M146.11,949.07h0c-2,7.18-10,20.92-27.52,26.87l2.86-1,1.17-.47,2.64-1.17c.77-.38,1.8-.87,2.55-1.27l2.44-1.36c.7-.44,1.65-1,2.35-1.46l2.29-1.58c.67-.51,1.58-1.17,2.24-1.7l2.2-1.83c.66-.61,1.55-1.4,2.19-2l2.13-2.15c.65-.74,1.54-1.71,2.17-2.46l2.05-2.57c.66-.93,1.55-2.15,2.18-3.1l1.89-3.07c.66-1.22,1.55-2.84,2.15-4.08l1.6-3.64c.59-1.66,1.39-3.87,1.91-5.55l1.05-4.19c.4-2.25.88-5.27,1.13-7.54-.81,9.43-5.6,18.34-13.67,25.37"/><path class="cls-36" d="M116.27,967.69c27.23-22.61,11.1-78.2-33-82.46C44.59,881.5,26.6,924.4,53.17,957c14.76,18.1,43.09,27.34,63.1,10.73"/><path class="cls-37" d="M106.6,972.13c34.43-16.43,24.88-69-15-82.75-32.29-11.11-63.11,19.42-44.95,56.91,11.42,23.57,39.44,35.64,60,25.84"/><path class="cls-38" d="M100.77,973c33-10.6,32.58-59.22-.7-77.65-33.46-18.53-66.77,7.87-55.69,44.14,7.51,24.6,34.39,40.57,56.39,33.51"/><path class="cls-39" d="M99.62,972c32.13-9.75,30.84-59.2-2-75.6-33.35-16.67-63.93,9.86-51.93,45.06,6.84,20.1,30.66,37.58,53.89,30.54"/><path class="cls-40" d="M93.87,972.06c33.83-6.1,34.66-52,8.6-70.37-26.55-18.75-63.22-3.73-58,32.3,3.43,23.52,27.42,42,49.36,38.07"/><path class="cls-41" d="M88.09,971.36c34.26-1.4,40.62-44,17.21-65.2-22.26-20.21-60.21-11-60.37,22-.11,23.1,20.86,44.09,43.16,43.17"/><path class="cls-42" d="M87.33,970.11c33-1.49,37.51-41.84,19.63-60.11-23.68-24.2-62.35-11.37-60.85,20.18,1.13,23.87,22.69,40.76,41.22,39.93"/><path class="cls-43" d="M86.72,968.75c29.74-1.25,39.5-43.07,14.51-62.15-22.46-17.13-58.77-3-53.51,28,3.77,22.25,22.79,34.84,39,34.16"/><path class="cls-44" d="M81.18,967.09C112,970,123.33,931.5,104.3,911.19,88.21,894,50,898.66,48.77,930.11c-.68,17.67,14.76,35.3,32.41,37"/><path class="cls-45" d="M80.8,965.51c29.86,2.7,40.89-35.43,22.39-53.79-18-17.81-53.63-8.24-52.84,20.37.5,18.39,16.15,32.12,30.45,33.42"/><path class="cls-46" d="M80.59,963.78c24,1.74,41.29-28.3,22.18-50.73-14.26-16.74-48.59-9.17-50.84,16.58-1.43,16.38,12.49,33,28.66,34.15"/><path class="cls-47" d="M80.55,961.87c23.08,1.5,37.79-25.72,24.21-44.81-13.38-18.8-47.08-14.27-50.9,12.49-2.18,15.29,11,31.3,26.69,32.32"/><path class="cls-48" d="M75.52,959c10.89,2.8,22.7-1.9,29.38-11.7,5.41-7.93,4.9-21.55-1.11-29.75C89.37,897.85,59,905.88,55.92,930.18c-1.55,12.49,7.42,25.69,19.6,28.82"/><path class="cls-49" d="M75.8,956.93c25.19,6.58,40.22-21.2,27-38.88-13.77-18.49-40.33-9.67-44.69,9.71-2.52,11.2,4,25.59,17.65,29.17"/><path class="cls-50" d="M76.26,954.84c18.27,5.14,37-11.17,28.36-31.55-8.38-19.8-34.79-17.69-42.68-1.11-4.91,10.29-1.76,28.14,14.32,32.66"/><path class="cls-51" d="M76.75,953.19c18.68,5.45,34.43-11.66,27.18-29.51-8.09-19.93-34-17.11-40.81-.09-5.47,13.74,2.63,26.4,13.63,29.6"/><path class="cls-52" d="M77.33,951.56c17.79,5.24,32.56-10.43,25.91-27.49-7.58-19.47-33.51-16.23-39.15.63-4.12,12.31,3.67,24,13.24,26.86"/><path class="cls-53" d="M77.94,950.1c16.16,5.61,30.66-9.47,24.62-25.63C96,906.91,70.42,907.82,65.07,925.8c-2.21,7.46.31,19.93,12.87,24.3"/><path class="cls-54" d="M78.42,949.05c8.72,2.88,17.13-1.59,18.5-3,2.82-2.9,4.52-4.66,5.17-7.4,1.43-6.12,1.39-9.34-.21-13.77-5-13.82-24.6-16.76-32.84-4.92-7.28,10.46-2.55,25.15,9.38,29.09"/><path class="cls-55" d="M78.94,948c7.36,2.31,15.63-1,17.16-2.55,3.78-3.85,4.57-4.66,5.31-7.59,1.76-7,.58-10.34-.2-12.58-4.31-12.38-23.23-17-31.49-4.52-6.47,9.79-1.72,23.8,9.22,27.24"/><path class="cls-56" d="M79.5,947c13.68,4.42,25.87-7.89,21-21.25A17.79,17.79,0,0,0,87.8,914.53c-3.21-.44-11.76-1.61-17.4,7-6.22,9.56-.15,22.41,9.1,25.39"/><path class="cls-57" d="M78.68,945.21c11.38,6.09,26.4-4.66,21.21-19.08a16.26,16.26,0,0,0-12.94-11c-10.09-1.32-14.7,5.18-15.87,7.21-.09.14-8.13,14.42,7.6,22.85"/><path class="cls-58" d="M80.53,945.21c11.17,3.6,22.67-5.12,18.7-18.64a15.54,15.54,0,0,0-13.12-10.8c-3.92-.5-8,1.31-9.62,2.11A13.17,13.17,0,0,0,71.67,923a17.54,17.54,0,0,0-1.83,7.69c0,.6,0,2.43,2.15,7.67.21.54,4,5.34,8.54,6.81"/><path class="cls-59" d="M81,944.45c7.18,2.16,13.61-1.4,15.69-4.49,0,0,2.58-4.15,2.48-6.75-.18-4.93-.27-7.4-3.13-11.08-1.5-1.92-3.37-4.32-10.77-5.72-.52-.1-1.38-.27-8.29,2.1-2,.68-3.77,3.33-4.72,5.21a19.62,19.62,0,0,0-1.48,7c-.29,5.67,4.39,11.94,10.22,13.69"/><path class="cls-60" d="M81.51,943.7c5.72,1.72,12.39-.93,14.6-4.29,0,0,2.33-5.35,2.32-5.62-.26-6.16-.32-7.82-3-11.24-2.49-3.17-3.41-3.43-8.5-4.88-2.35-.67-2.35-.67-6.6.58-3.58,1.06-3.58,1.06-7.45,6.15-1,1.25-1,3.56-1.13,5.13a13.66,13.66,0,0,0,9.76,14.17"/><path class="cls-61" d="M82,943c2.32.69,6.81,0,6.85,0a12.93,12.93,0,0,0,2.83-.88,12.61,12.61,0,0,0,3.83-3.23c5.14-8-.11-15.09-.72-15.87-3.28-4.16-8.49-5.49-11.94-4.66-1.48.36-3.79.38-4.87,1.45-4.57,4.51-5,5.42-5.25,8.54C71.85,938.74,78.93,942,82,943"/><path class="cls-62" d="M82.55,942.21a29.61,29.61,0,0,0,8.45-.69,8.37,8.37,0,0,0,4-3.23,12.72,12.72,0,0,0-.75-14.88c-4.32-5.44-9.37-4.53-12.71-3.92-.92.16-2.32.25-3,.9-1.68,1.66-4.52,4.74-4.73,6.71,0,.06.16,7.28.53,7.92,2.14,3.68,3.31,5.71,8.24,7.19"/><path class="cls-63" d="M81.29,940.58c.55.27,1.23.84,1.83.86a31.69,31.69,0,0,0,7.15-.51l4.1-3.2c.13-.1,1.73-5.26,1.86-6a7.26,7.26,0,0,0-.22-2.89c-2.24-8.25-8.92-9.09-9.21-9.12,0,0-6.77.74-7.78,1.3a45.3,45.3,0,0,0-4.26,5.43,12.17,12.17,0,0,0,.2,7.71,18.68,18.68,0,0,0,3.22,4.78,12.15,12.15,0,0,0,3.11,1.64"/><path class="cls-64" d="M83.75,940.63a12.54,12.54,0,0,0,5.68-.38,8.74,8.74,0,0,0,4.31-3.14,13.1,13.1,0,0,0,1.77-6.27A15.05,15.05,0,0,0,93,924.28s-3.44-3.29-5.53-3.69c-2.35-.45-5.53.7-7.88,1.1-2,.34-3.47,3.57-4.08,5.55a12.69,12.69,0,0,0,.13,6.06C76,934.63,77.3,936,78,937.17c1.36,2.21,5.7,3.45,5.74,3.46"/><path class="cls-65" d="M84.4,939.82a8.7,8.7,0,0,0,4.21-.26c1.52-.6,3.69-1.68,4.45-3.12A14,14,0,0,0,94.78,930c0-.44-2.36-5.19-2.38-5.22s-3.81-3.09-4.74-3.26c-2.22-.42-5.54-.21-7.47.95-1.76,1.06-3.21,3.68-4,5.6a8.55,8.55,0,0,0,.08,4.43,11.25,11.25,0,0,0,3,5,11.58,11.58,0,0,0,5.11,2.36"/><path class="cls-66" d="M85.07,939a5.28,5.28,0,0,0,2.71-.16c1.52-.68,3.88-1.6,4.61-3.1a11.84,11.84,0,0,0,1.3-5.12,10.48,10.48,0,0,0-1.88-5.46,9.92,9.92,0,0,0-5.31-2.78,9.09,9.09,0,0,0-5.69.76c-1.74,1.07-3,3.77-3.81,5.63a4.76,4.76,0,0,0,0,2.82,11.81,11.81,0,0,0,2.84,5.1A11.48,11.48,0,0,0,85.07,939"/><path class="cls-67" d="M85.76,938.22a2,2,0,0,0,1.2-.06c1.5-.8,4.08-1.52,4.76-3.08a8.89,8.89,0,0,0,.86-3.52c-.11-1.81-.26-4.49-1.42-5.88s-4-2-5.79-2.34a6.34,6.34,0,0,0-3.94.55c-1.72,1.07-2.72,3.89-3.68,5.68a1.83,1.83,0,0,0,0,1.2,12.74,12.74,0,0,0,2.72,5.2,11.43,11.43,0,0,0,5.27,2.25"/><path class="cls-68" d="M85.88,937.22a2.1,2.1,0,0,0,1-.25c1.29-.7,3.28-1.39,4.15-2.57a3,3,0,0,0,.45-1.9c-.22-1.82-.22-4.55-1.41-6s-4-1.8-5.82-2.24a3.28,3.28,0,0,0-2.2.32s-3.64,4.72-3.25,6c.45,1.48,1.17,3.56,2.3,4.61a9,9,0,0,0,4.77,2"/><path class="cls-69" d="M83.81,935.37c1.84.16,4.21-.87,6-1.32a1.18,1.18,0,0,0,.58-.34.37.37,0,0,0,.05-.25c-.39-1.82-.2-4.63-1.4-6,0,0-5.79-2.42-6.34-2.07-1.32.83-2,7.11-1.94,7.16a4,4,0,0,0,3.06,2.86"/><path class="cls-70" d="M88.89,932.16c.66-1-.11-3-.9-3.85s-2.84-2-3.93-1.41c-1.72,1-.94,4.49-1.25,6.43,1.82-.38,5,.38,6.08-1.17"/><path class="cls-71" d="M87.26,930.43c.21-.31,0-.94-.28-1.22s-.89-.63-1.24-.44c-.53.31-.3,1.41-.43,2,.59-.11,1.63.15,2-.35"/></g><path class="cls-72" d="M131.22,950.62c2.86.68,4.58,2.67,4.33,5.56,14.42-7.46,23.11-19.47,24.23-32.48a64.88,64.88,0,0,0-.19-12.36A64,64,0,0,0,157,899.56a60.87,60.87,0,0,0-14.92-24.06,68.88,68.88,0,0,0-11.23-8.74,65.56,65.56,0,0,0-11.19-5.28c-1.76-.55-4.1-1.28-5.89-1.74,8.12,2,15.46,7.53,20.8,16.63,11.83,20.17,10,51.18-3.32,74.25"/><path class="cls-52" d="M118.21,954.1a21.31,21.31,0,0,1,6.2-3,13.28,13.28,0,0,1,6.81-.44c13.28-23.07,15.15-54.08,3.32-74.25-5.34-9.1-12.68-14.65-20.8-16.63-1.3-.27-3-.67-4.34-.89a60.9,60.9,0,0,0-9-.81,59.2,59.2,0,0,0-7.85.4,57.58,57.58,0,0,0-6.93,1.22c-1,.27-2.38.6-3.39.9a58.73,58.73,0,0,0-5.83,2.07,53.24,53.24,0,0,0-5.2,2.44c-3.23,1.81-3.23,1.81-4.78,2.82l-1.82,1.24c-1.73,1.25,1.47,9.43,9.64,23.35,11.83,20.16,30.2,45.77,44,61.62"/><path class="cls-72" d="M111.77,964.28a7,7,0,0,1,0-1c.27-3.16,2.83-6.62,6.43-9.16-13.78-15.85-32.15-41.46-44-61.62-8.17-13.92-11.37-22.1-9.64-23.35-.82.6-1.91,1.4-2.71,2A57.73,57.73,0,0,0,57.49,875a57,57,0,0,0-4.31,4.62A58.41,58.41,0,0,0,49,885.3a59.42,59.42,0,0,0-4,7.15,62.93,62.93,0,0,0-3.51,9.19,66,66,0,0,0-2.19,11.73,59.58,59.58,0,0,0,0,10.36,37.75,37.75,0,0,0,5.17,16c11.83,20.16,40.22,29.92,67.38,24.59"/><path class="cls-52" d="M119.36,969.05c-4.28.29-7.31-1.53-7.59-4.77-27.16,5.33-55.55-4.43-67.38-24.59a37.75,37.75,0,0,1-5.17-16l.28,2.63a60.09,60.09,0,0,0,7.81,22.78A64.22,64.22,0,0,0,57,961.56a67.38,67.38,0,0,0,11.23,8.74,66.34,66.34,0,0,0,11.19,5.29,64.87,64.87,0,0,0,10.23,2.63,62.07,62.07,0,0,0,9,.8c1.48,0,3.45,0,4.93-.12,5.68-.37,11.18-3.65,15.82-9.85"/><path class="cls-72" d="M131.91,963a21.46,21.46,0,0,1-9,5.41,17,17,0,0,1-3.56.67c-4.64,6.2-10.14,9.48-15.82,9.85l2.93-.27a58,58,0,0,0,6.93-1.22c1-.27,2.37-.61,3.38-.91a59.45,59.45,0,0,0,11-4.5c3.24-1.81,3.24-1.81,4.79-2.82,3.06-2.11,3.06-2.11,4.53-3.28a57.49,57.49,0,0,0,4.39-3.85l1.23-1.21c-2.17,2.22-5.82,3-10.84,2.13"/><path class="cls-72" d="M131.91,963l.22-.22-.22.22"/><path class="cls-52" d="M135.55,956.18a11.59,11.59,0,0,1-3.42,6.57l-.22.22c5,.88,8.67.09,10.84-2.13.93-1,2.18-2.36,3.07-3.4a58.92,58.92,0,0,0,4.23-5.67,60.21,60.21,0,0,0,4-7.15,62.93,62.93,0,0,0,3.51-9.19,65.28,65.28,0,0,0,2.18-11.73c-1.12,13-9.81,25-24.23,32.48"/></g><path class="cls-1" d="M159.78,923.7c-1.39,16.12-14.4,30.71-35.54,37,21.14-6.29,34.15-20.88,35.54-37a68.2,68.2,0,0,1-1.13,7.54c-.3,1.26-.68,3-1.05,4.19-.52,1.68-1.24,3.92-1.91,5.55-.46,1.1-1.08,2.56-1.6,3.64-.6,1.24-1.43,2.89-2.15,4.08-.62,1-1.43,2.43-2.12,3.43-1.15,1.63-2.74,3.76-4,5.31-.62.76-1.49,1.75-2.17,2.46s-1.48,1.52-2.13,2.15-1.52,1.43-2.19,2-1.52,1.32-2.21,1.84c-1.33,1-3.12,2.35-4.52,3.27h0c-1.44.84-3.33,2-4.79,2.82-.74.42-1.77.91-2.55,1.27s-1.89.86-2.72,1.2-2,.75-2.81,1.07-2.06.69-3,1c-.44.14-3.27.9-3.72,1-2,.4-4.61.86-6.59,1.14-1.27.17-3,.28-4.24.34-1.08,0-2.53,0-3.62,0-1.54,0-3.59-.15-5.12-.29-1.17-.1-2.72-.35-3.88-.51a47.27,47.27,0,0,1-6.22-1.37,74.75,74.75,0,0,1-7.29-2.53c-1.22-.52-2.83-1.24-4-1.85s-3-1.57-4.22-2.36a73.22,73.22,0,0,1-7.46-5.39c-1.35-1.18-3.11-2.81-4.37-4.09-1-1-2.27-2.45-3.18-3.55A61,61,0,0,1,44,942.6a57.62,57.62,0,0,1-2.54-7,68,68,0,0,1-2-9.26A78.72,78.72,0,0,1,39,918a54.72,54.72,0,0,1,.58-7.78c.22-1.31.48-3.06.77-4.36.41-1.78,1-4.15,1.59-5.9.36-1.17.92-2.7,1.38-3.83.55-1.36,1.3-3.16,2-4.45.53-1,1.2-2.31,1.75-3.27s1.44-2.44,2.13-3.43c.58-.83,1.32-2,2-2.75s1.41-1.81,2-2.56,1.49-1.75,2.18-2.46,1.5-1.58,2.18-2.21,1.48-1.39,2.14-2,1.52-1.32,2.21-1.85c1.33-1,3.12-2.35,4.52-3.26.69-.46,1.64-1,2.35-1.46s1.7-1,2.43-1.36a59.39,59.39,0,0,1,8.08-3.55c1-.33,2.26-.75,3.23-1s2.18-.58,3.11-.82,2.52-.53,3.6-.74a58.93,58.93,0,0,1,7.57-.82c1.47-.06,3.43-.07,4.91,0,1.15,0,2.68.15,3.83.27,1.83.18,4.26.58,6.07.91,1.22.23,2.83.62,4,1,2.23.65,5.14,1.69,7.3,2.52a42.55,42.55,0,0,1,4,1.85c1.28.69,3,1.56,4.23,2.36,2.3,1.53,5.3,3.67,7.45,5.39a56.63,56.63,0,0,1,4.38,4.1c1,1,2.26,2.45,3.18,3.55s2.12,2.63,2.92,3.84c1.32,2,3,4.73,4.14,6.83a53.61,53.61,0,0,1,3.76,8.9c.66,2.11,1.4,5,1.88,7.13.31,1.38.57,3.25.74,4.65.27,2.32.38,5.44.42,7.77C160,920.49,159.88,922.32,159.78,923.7Z"/></g><g class="cls-26"><g class="cls-73"><g class="cls-26"><path class="cls-48" d="M151.7,887.93a83.86,83.86,0,0,1,4.23,8.75,53.08,53.08,0,0,1,2.36,7.47c.31,1.38.74,3.23.94,4.64.3,2.15.56,5,.73,7.2a60.16,60.16,0,0,1-.18,7.71,36.06,36.06,0,0,0-5.19-21.58c-13.66-23.29-49.4-34.82-79.82-25.76,30.42-9.06,66.16,2.47,79.82,25.76a36.06,36.06,0,0,1,5.19,21.58,76.22,76.22,0,0,1-1.4,8.77,59.94,59.94,0,0,1-3.58,10.6,56,56,0,0,1-4.28,8,60.52,60.52,0,0,1-17.91,18.12,60.18,60.18,0,0,1-15.74,7.31A61.73,61.73,0,0,1,98.61,979a60.44,60.44,0,0,1-59.53-57.31,62.7,62.7,0,0,1,.14-8.34,61.41,61.41,0,0,1,2.19-11.73A54.53,54.53,0,0,1,44.2,894a61.7,61.7,0,0,1,4.29-8,59.72,59.72,0,0,1,11.14-13,60.49,60.49,0,0,1,14.1-9.24,57,57,0,0,1,8.41-3.21,60.52,60.52,0,0,1,10-2.11,56.39,56.39,0,0,1,8.2-.44,70.54,70.54,0,0,1,7.68.61,65.19,65.19,0,0,1,9.37,2.11c1.92.54,4.39,1.57,6.24,2.31a68.85,68.85,0,0,1,7.14,3.69c1.2.68,2.68,1.75,3.82,2.51a71.22,71.22,0,0,1,7.14,6c1.13,1,2.47,2.6,3.51,3.74a65.56,65.56,0,0,1,6.41,8.95"/><path class="cls-48" d="M122.89,877.76c-28.78-4.32-39.84,25.15-27.68,41.76,14.43,19.7,44.85,11.67,47.88-12.64.6-4.85.53-17.12-13.11-26.2,10.5,5,19.26,12.31,24.61,21.44a36.06,36.06,0,0,1,5.19,21.58h0a64,64,0,0,1-2.18,11.73l-1.29,3.91c-.64,1.59-1.5,3.72-2.22,5.28l-1.71,3.31c-.69,1.16-1.59,2.71-2.33,3.84l-1.93,2.77c-.69.87-1.58,2.05-2.3,2.9l-2,2.32c-.67.69-1.56,1.62-2.25,2.29l-2.14,2c-.67.57-1.56,1.33-2.25,1.88l-2.23,1.69c-.69.48-1.6,1.13-2.3,1.59l-2.35,1.46c-.73.41-1.7,1-2.44,1.36l-2.53,1.27c-.8.35-1.86.84-2.66,1.17l-2.81,1.08c-.91.29-2.11.71-3,1l-3.1.84-.28.07-3.25.67c-1.11.17-2.58.42-3.68.55l-3.53.3c-1.3,0-3,.11-4.33.09l-3.81-.17c-1.56-.17-3.64-.39-5.19-.63l-4-.81c-1.87-.51-4.37-1.21-6.21-1.82L75.32,974c-2.17-1-5-2.5-7.13-3.69l-3.82-2.51c-4.79-3.69-5-3.83-7.41-6.23l-3.25-3.47a61.31,61.31,0,0,1-6.4-9L45,944.83c-.87-2-2-4.68-2.77-6.72l-1.37-4.58c-.45-2.14-1-5-1.37-7.17l-.42-4.65c0-2.51,0-5.85.14-8.34l.55-4.46c.44-2.19,1.07-5.11,1.64-7.27l1.29-3.92c.64-1.59,1.5-3.71,2.22-5.27l1.71-3.31c.69-1.16,1.59-2.71,2.33-3.84l1.93-2.77c.68-.87,1.58-2,2.29-2.9l2.06-2.32c.67-.69,1.56-1.63,2.25-2.3l2.14-2c.67-.56,1.56-1.33,2.25-1.88l2.22-1.68c.7-.48,1.61-1.13,2.31-1.59l2.35-1.46c.73-.41,1.69-1,2.43-1.36l2.54-1.27c.8-.35,1.85-.84,2.66-1.17l2.81-1.08c.9-.3,2.11-.72,3-1l3.11-.84.28-.06,3.25-.68c1.11-.16,2.57-.41,3.68-.54l3.53-.31c1.3,0,3-.1,4.32-.09l3.81.18c1.56.17,3.64.39,5.2.63l4,.81c1.88.51,4.38,1.21,6.22,1.82l4.05,1.59c2.18,1,5,2.51,7.14,3.69l3.82,2.51a58.73,58.73,0,0,1,7.41,6.23l3.24,3.48a61,61,0,0,1,6.41,8.95l2.3,4.31c.95,2.17,2.17,5.09,3,7.32l1.32,4.59c.43,2.15,1,5,1.3,7.19L160,916c0,2.31,0,5.4-.18,7.71a36.06,36.06,0,0,0-5.19-21.58c-5.35-9.13-14.11-16.46-24.61-21.44l-1.56-.92c-4.76-1.84-4.76-1.84-5.53-2a79.15,79.15,0,0,0-48.12-1.4,79.15,79.15,0,0,1,48.12,1.4"/><path class="cls-47" d="M113.69,875.15c-33.41,9.48-28.47,42.08-10.77,52.64,18,10.75,47.79-2.56,41.4-30.77-.75-3.33-2.77-7.25-6-11.64a52,52,0,0,1,16.27,16.74,36.06,36.06,0,0,1,5.19,21.58h0a64,64,0,0,1-2.18,11.73l-1.29,3.91c-.64,1.59-1.5,3.72-2.22,5.28l-1.71,3.31c-.69,1.16-1.59,2.71-2.33,3.84l-1.93,2.77c-.69.87-1.58,2.05-2.3,2.9l-2,2.32c-.67.69-1.56,1.62-2.25,2.29l-2.14,2c-.67.57-1.56,1.33-2.25,1.88l-2.23,1.69c-.69.48-1.6,1.13-2.3,1.59l-2.35,1.46c-.73.41-1.7,1-2.44,1.36l-2.53,1.27c-.8.35-1.86.84-2.66,1.17l-2.81,1.08c-.91.29-2.11.71-3,1l-3.1.84-.28.07-3.25.67c-1.11.17-2.58.42-3.68.55l-3.53.3c-1.3,0-3,.11-4.33.09l-3.81-.17c-1.56-.17-3.64-.39-5.19-.63l-4-.81c-1.87-.51-4.37-1.21-6.21-1.82L75.32,974c-2.17-1-5-2.5-7.13-3.69l-3.82-2.51c-4.79-3.69-5-3.83-7.41-6.23l-3.25-3.47a61.31,61.31,0,0,1-6.4-9L45,944.83c-.87-2-2-4.68-2.77-6.72l-1.37-4.58c-.45-2.14-1-5-1.37-7.17l-.42-4.65c0-2.51,0-5.85.14-8.34l.55-4.46c.44-2.19,1.07-5.11,1.64-7.27l1.29-3.92c.64-1.59,1.5-3.71,2.22-5.27l1.71-3.31c.69-1.16,1.59-2.71,2.33-3.84l1.93-2.77c.68-.87,1.58-2,2.29-2.9l2.06-2.32c.67-.69,1.56-1.63,2.25-2.3l2.14-2c.67-.56,1.56-1.33,2.25-1.88l2.22-1.68c.7-.48,1.61-1.13,2.31-1.59l2.35-1.46c.73-.41,1.69-1,2.43-1.36l2.54-1.27c.8-.35,1.85-.84,2.66-1.17l2.81-1.08c.9-.3,2.11-.72,3-1l3.11-.84.28-.06,3.25-.68c1.11-.16,2.57-.41,3.68-.54l3.53-.31c1.3,0,3-.1,4.32-.09l3.81.18c1.56.17,3.64.39,5.2.63l4,.81c1.88.51,4.38,1.21,6.22,1.82l4.05,1.59c2.18,1,5,2.51,7.14,3.69l3.82,2.51a58.73,58.73,0,0,1,7.41,6.23l3.24,3.48a61,61,0,0,1,6.41,8.95l2.3,4.31c.95,2.17,2.17,5.09,3,7.32l1.32,4.59c.43,2.15,1,5,1.3,7.19L160,916c0,2.31,0,5.4-.18,7.71a36.06,36.06,0,0,0-5.19-21.58,52,52,0,0,0-16.27-16.74h0c-9.18-10.54-20.41-10.32-24.63-10.23a78.59,78.59,0,0,0-38.92,1.21,78.59,78.59,0,0,1,38.92-1.21"/><path class="cls-46" d="M108.4,874.17c-26.11,8.56-26.26,44.07-5.83,54.6,25.64,13.21,52.26-8.5,42.51-34.69a58.12,58.12,0,0,0-2.71-5.76,50,50,0,0,1,12.22,13.8,36.06,36.06,0,0,1,5.19,21.58h0a64,64,0,0,1-2.18,11.73l-1.29,3.91c-.64,1.59-1.5,3.72-2.22,5.28l-1.71,3.31c-.69,1.16-1.59,2.71-2.33,3.84l-1.93,2.77c-.69.87-1.58,2.05-2.3,2.9l-2,2.32c-.67.69-1.56,1.62-2.25,2.29l-2.14,2c-.67.57-1.56,1.33-2.25,1.88l-2.23,1.69c-.69.48-1.6,1.13-2.3,1.59l-2.35,1.46c-.73.41-1.7,1-2.44,1.36l-2.53,1.27c-.8.35-1.86.84-2.66,1.17l-2.81,1.08c-.91.29-2.11.71-3,1l-3.1.84-.28.07-3.25.67c-1.11.17-2.58.42-3.68.55l-3.53.3c-1.3,0-3,.11-4.33.09l-3.81-.17c-1.56-.17-3.64-.39-5.19-.63l-4-.81c-1.87-.51-4.37-1.21-6.21-1.82L75.32,974c-2.17-1-5-2.5-7.13-3.69l-3.82-2.51c-4.79-3.69-5-3.83-7.41-6.23l-3.25-3.47a61.31,61.31,0,0,1-6.4-9L45,944.83c-.87-2-2-4.68-2.77-6.72l-1.37-4.58c-.45-2.14-1-5-1.37-7.17l-.42-4.65c0-2.51,0-5.85.14-8.34l.55-4.46c.44-2.19,1.07-5.11,1.64-7.27l1.29-3.92c.64-1.59,1.5-3.71,2.22-5.27l1.71-3.31c.69-1.16,1.59-2.71,2.33-3.84l1.93-2.77c.68-.87,1.58-2,2.29-2.9l2.06-2.32c.67-.69,1.56-1.63,2.25-2.3l2.14-2c.67-.56,1.56-1.33,2.25-1.88l2.22-1.68c.7-.48,1.61-1.13,2.31-1.59l2.35-1.46c.73-.41,1.69-1,2.43-1.36l2.54-1.27c.8-.35,1.85-.84,2.66-1.17l2.81-1.08c.9-.3,2.11-.72,3-1l3.11-.84.28-.06,3.25-.68c1.11-.16,2.57-.41,3.68-.54l3.53-.31c1.3,0,3-.1,4.32-.09l3.81.18c1.56.17,3.64.39,5.2.63l4,.81c1.88.51,4.38,1.21,6.22,1.82l4.05,1.59c2.18,1,5,2.51,7.14,3.69l3.82,2.51a58.73,58.73,0,0,1,7.41,6.23l3.24,3.48a61,61,0,0,1,6.41,8.95l2.3,4.31c.95,2.17,2.17,5.09,3,7.32l1.32,4.59c.43,2.15,1,5,1.3,7.19L160,916c0,2.31,0,5.4-.18,7.71a36.06,36.06,0,0,0-5.19-21.58,50,50,0,0,0-12.22-13.8l-.69-1.05c-10-12-19.28-15.67-33.28-13.1a77.92,77.92,0,0,0-33.63,2.19,77.92,77.92,0,0,1,33.63-2.19"/><path class="cls-45" d="M104.18,873.65h0c-27.67,15.35-18.89,50.4,2.14,58.44,23.33,8.92,52.28-9.7,39.12-41.08,0,0,0-.09-.05-.13a48.65,48.65,0,0,1,9.2,11.24,36.06,36.06,0,0,1,5.19,21.58h0a64,64,0,0,1-2.18,11.73l-1.29,3.91c-.64,1.59-1.5,3.72-2.22,5.28l-1.71,3.31c-.69,1.16-1.59,2.71-2.33,3.84l-1.93,2.77c-.69.87-1.58,2.05-2.3,2.9l-2,2.32c-.67.69-1.56,1.62-2.25,2.29l-2.14,2c-.67.57-1.56,1.33-2.25,1.88l-2.23,1.69c-.69.48-1.6,1.13-2.3,1.59l-2.35,1.46c-.73.41-1.7,1-2.44,1.36l-2.53,1.27c-.8.35-1.86.84-2.66,1.17l-2.81,1.08c-.91.29-2.11.71-3,1l-3.1.84-.28.07-3.25.67c-1.11.17-2.58.42-3.68.55l-3.53.3c-1.3,0-3,.11-4.33.09l-3.81-.17c-1.56-.17-3.64-.39-5.19-.63l-4-.81c-1.87-.51-4.37-1.21-6.21-1.82L75.32,974c-2.17-1-5-2.5-7.13-3.69l-3.82-2.51c-4.79-3.69-5-3.83-7.41-6.23l-3.25-3.47a61.31,61.31,0,0,1-6.4-9L45,944.83c-.87-2-2-4.68-2.77-6.72l-1.37-4.58c-.45-2.14-1-5-1.37-7.17l-.42-4.65c0-2.51,0-5.85.14-8.34l.55-4.46c.44-2.19,1.07-5.11,1.64-7.27l1.29-3.92c.64-1.59,1.5-3.71,2.22-5.27l1.71-3.31c.69-1.16,1.59-2.71,2.33-3.84l1.93-2.77c.68-.87,1.58-2,2.29-2.9l2.06-2.32c.67-.69,1.56-1.63,2.25-2.3l2.14-2c.67-.56,1.56-1.33,2.25-1.88l2.22-1.68c.7-.48,1.61-1.13,2.31-1.59l2.35-1.46c.73-.41,1.69-1,2.43-1.36l2.54-1.27c.8-.35,1.85-.84,2.66-1.17l2.81-1.08c.9-.3,2.11-.72,3-1l3.11-.84.28-.06,3.25-.68c1.11-.16,2.57-.41,3.68-.54l3.53-.31c1.3,0,3-.1,4.32-.09l3.81.18c1.56.17,3.64.39,5.2.63l4,.81c1.88.51,4.38,1.21,6.22,1.82l4.05,1.59c2.18,1,5,2.51,7.14,3.69l3.82,2.51a58.73,58.73,0,0,1,7.41,6.23l3.24,3.48a61,61,0,0,1,6.41,8.95l2.3,4.31c.95,2.17,2.17,5.09,3,7.32l1.32,4.59c.43,2.15,1,5,1.3,7.19L160,916c0,2.31,0,5.4-.18,7.71a36.06,36.06,0,0,0-5.19-21.58,48.65,48.65,0,0,0-9.2-11.24l-2.5-4c-4.48-6.37-17.22-20.4-38.71-13.21a77.38,77.38,0,0,0-29.41,2.71,77.38,77.38,0,0,1,29.41-2.71"/><path class="cls-44" d="M100.4,873.37c-29.86,23.34-11.18,60.41,15.3,62.47,19.47,1.51,42.07-12.82,32-42.71a47,47,0,0,1,6.89,9,36.06,36.06,0,0,1,5.19,21.58h0a64,64,0,0,1-2.18,11.73l-1.29,3.91c-.64,1.59-1.5,3.72-2.22,5.28l-1.71,3.31c-.69,1.16-1.59,2.71-2.33,3.84l-1.93,2.77c-.69.87-1.58,2.05-2.3,2.9l-2,2.32c-.67.69-1.56,1.62-2.25,2.29l-2.14,2c-.67.57-1.56,1.33-2.25,1.88l-2.23,1.69c-.69.48-1.6,1.13-2.3,1.59l-2.35,1.46c-.73.41-1.7,1-2.44,1.36l-2.53,1.27c-.8.35-1.86.84-2.66,1.17l-2.81,1.08c-.91.29-2.11.71-3,1l-3.1.84-.28.07-3.25.67c-1.11.17-2.58.42-3.68.55l-3.53.3c-1.3,0-3,.11-4.33.09l-3.81-.17c-1.56-.17-3.64-.39-5.19-.63l-4-.81c-1.87-.51-4.37-1.21-6.21-1.82L75.32,974c-2.17-1-5-2.5-7.13-3.69l-3.82-2.51c-4.79-3.69-5-3.83-7.41-6.23l-3.25-3.47a61.31,61.31,0,0,1-6.4-9L45,944.83c-.87-2-2-4.68-2.77-6.72l-1.37-4.58c-.45-2.14-1-5-1.37-7.17l-.42-4.65c0-2.51,0-5.85.14-8.34l.55-4.46c.44-2.19,1.07-5.11,1.64-7.27l1.29-3.92c.64-1.59,1.5-3.71,2.22-5.27l1.71-3.31c.69-1.16,1.59-2.71,2.33-3.84l1.93-2.77c.68-.87,1.58-2,2.29-2.9l2.06-2.32c.67-.69,1.56-1.63,2.25-2.3l2.14-2c.67-.56,1.56-1.33,2.25-1.88l2.22-1.68c.7-.48,1.61-1.13,2.31-1.59l2.35-1.46c.73-.41,1.69-1,2.43-1.36l2.54-1.27c.8-.35,1.85-.84,2.66-1.17l2.81-1.08c.9-.3,2.11-.72,3-1l3.11-.84.28-.06,3.25-.68c1.11-.16,2.57-.41,3.68-.54l3.53-.31c1.3,0,3-.1,4.32-.09l3.81.18c1.56.17,3.64.39,5.2.63l4,.81c1.88.51,4.38,1.21,6.22,1.82l4.05,1.59c2.18,1,5,2.51,7.14,3.69l3.82,2.51a58.73,58.73,0,0,1,7.41,6.23l3.24,3.48a61,61,0,0,1,6.41,8.95l2.3,4.31c.95,2.17,2.17,5.09,3,7.32l1.32,4.59c.43,2.15,1,5,1.3,7.19L160,916c0,2.31,0,5.4-.18,7.71a36.06,36.06,0,0,0-5.19-21.58,47,47,0,0,0-6.89-9l-2.13-4.26c-18.29-27.27-40.83-17.7-45.17-15.5a76.6,76.6,0,0,0-25.63,3,76.6,76.6,0,0,1,25.63-3"/><path class="cls-43" d="M96.9,873.27h0c-28.42,26.13-7.61,62.19,19.82,64.23,18.7,1.39,41.3-10.77,33-42.16a46.94,46.94,0,0,1,4.86,6.78,36.06,36.06,0,0,1,5.19,21.58h0a64,64,0,0,1-2.18,11.73l-1.29,3.91c-.64,1.59-1.5,3.72-2.22,5.28l-1.71,3.31c-.69,1.16-1.59,2.71-2.33,3.84l-1.93,2.77c-.69.87-1.58,2.05-2.3,2.9l-2,2.32c-.67.69-1.56,1.62-2.25,2.29l-2.14,2c-.67.57-1.56,1.33-2.25,1.88l-2.23,1.69c-.69.48-1.6,1.13-2.3,1.59l-2.35,1.46c-.73.41-1.7,1-2.44,1.36l-2.53,1.27c-.8.35-1.86.84-2.66,1.17l-2.81,1.08c-.91.29-2.11.71-3,1l-3.1.84-.28.07-3.25.67c-1.11.17-2.58.42-3.68.55l-3.53.3c-1.3,0-3,.11-4.33.09l-3.81-.17c-1.56-.17-3.64-.39-5.19-.63l-4-.81c-1.87-.51-4.37-1.21-6.21-1.82L75.32,974c-2.17-1-5-2.5-7.13-3.69l-3.82-2.51c-4.79-3.69-5-3.83-7.41-6.23l-3.25-3.47a61.31,61.31,0,0,1-6.4-9L45,944.83c-.87-2-2-4.68-2.77-6.72l-1.37-4.58c-.45-2.14-1-5-1.37-7.17l-.42-4.65c0-2.51,0-5.85.14-8.34l.55-4.46c.44-2.19,1.07-5.11,1.64-7.27l1.29-3.92c.64-1.59,1.5-3.71,2.22-5.27l1.71-3.31c.69-1.16,1.59-2.71,2.33-3.84l1.93-2.77c.68-.87,1.58-2,2.29-2.9l2.06-2.32c.67-.69,1.56-1.63,2.25-2.3l2.14-2c.67-.56,1.56-1.33,2.25-1.88l2.22-1.68c.7-.48,1.61-1.13,2.31-1.59l2.35-1.46c.73-.41,1.69-1,2.43-1.36l2.54-1.27c.8-.35,1.85-.84,2.66-1.17l2.81-1.08c.9-.3,2.11-.72,3-1l3.11-.84.28-.06,3.25-.68c1.11-.16,2.57-.41,3.68-.54l3.53-.31c1.3,0,3-.1,4.32-.09l3.81.18c1.56.17,3.64.39,5.2.63l4,.81c1.88.51,4.38,1.21,6.22,1.82l4.05,1.59c2.18,1,5,2.51,7.14,3.69l3.82,2.51a58.73,58.73,0,0,1,7.41,6.23l3.24,3.48a61,61,0,0,1,6.41,8.95l2.3,4.31c.95,2.17,2.17,5.09,3,7.32l1.32,4.59c.43,2.15,1,5,1.3,7.19L160,916c0,2.31,0,5.4-.18,7.71a36.06,36.06,0,0,0-5.19-21.58,46.94,46.94,0,0,0-4.86-6.78l-.76-2c-8.94-18-27.32-32.72-52.07-20.11a76.33,76.33,0,0,0-22.13,3.09,76.33,76.33,0,0,1,22.13-3.09"/><path class="cls-42" d="M93.76,873.32c-27.29,27.57-3.88,64.51,24.14,66.12,21.79,1.24,40.3-14.11,33.57-42a45.88,45.88,0,0,1,3.12,4.64,36.06,36.06,0,0,1,5.19,21.58h0a64,64,0,0,1-2.18,11.73l-1.29,3.91c-.64,1.59-1.5,3.72-2.22,5.28l-1.71,3.31c-.69,1.16-1.59,2.71-2.33,3.84l-1.93,2.77c-.69.87-1.58,2.05-2.3,2.9l-2,2.32c-.67.69-1.56,1.62-2.25,2.29l-2.14,2c-.67.57-1.56,1.33-2.25,1.88l-2.23,1.69c-.69.48-1.6,1.13-2.3,1.59l-2.35,1.46c-.73.41-1.7,1-2.44,1.36l-2.53,1.27c-.8.35-1.86.84-2.66,1.17l-2.81,1.08c-.91.29-2.11.71-3,1l-3.1.84-.28.07-3.25.67c-1.11.17-2.58.42-3.68.55l-3.53.3c-1.3,0-3,.11-4.33.09l-3.81-.17c-1.56-.17-3.64-.39-5.19-.63l-4-.81c-1.87-.51-4.37-1.21-6.21-1.82L75.32,974c-2.17-1-5-2.5-7.13-3.69l-3.82-2.51c-4.79-3.69-5-3.83-7.41-6.23l-3.25-3.47a61.31,61.31,0,0,1-6.4-9L45,944.83c-.87-2-2-4.68-2.77-6.72l-1.37-4.58c-.45-2.14-1-5-1.37-7.17l-.42-4.65c0-2.51,0-5.85.14-8.34l.55-4.46c.44-2.19,1.07-5.11,1.64-7.27l1.29-3.92c.64-1.59,1.5-3.71,2.22-5.27l1.71-3.31c.69-1.16,1.59-2.71,2.33-3.84l1.93-2.77c.68-.87,1.58-2,2.29-2.9l2.06-2.32c.67-.69,1.56-1.63,2.25-2.3l2.14-2c.67-.56,1.56-1.33,2.25-1.88l2.22-1.68c.7-.48,1.61-1.13,2.31-1.59l2.35-1.46c.73-.41,1.69-1,2.43-1.36l2.54-1.27c.8-.35,1.85-.84,2.66-1.17l2.81-1.08c.9-.3,2.11-.72,3-1l3.11-.84.28-.06,3.25-.68c1.11-.16,2.57-.41,3.68-.54l3.53-.31c1.3,0,3-.1,4.32-.09l3.81.18c1.56.17,3.64.39,5.2.63l4,.81c1.88.51,4.38,1.21,6.22,1.82l4.05,1.59c2.18,1,5,2.51,7.14,3.69l3.82,2.51a58.73,58.73,0,0,1,7.41,6.23l3.24,3.48a61,61,0,0,1,6.41,8.95l2.3,4.31c.95,2.17,2.17,5.09,3,7.32l1.32,4.59c.43,2.15,1,5,1.3,7.19L160,916c0,2.31,0,5.4-.18,7.71a36.06,36.06,0,0,0-5.19-21.58,45.88,45.88,0,0,0-3.12-4.64L149.79,893c-7.66-17.47-30.77-35.8-56-19.64a75.29,75.29,0,0,0-19,3,75.29,75.29,0,0,1,19-3"/><path class="cls-41" d="M90.67,873.48c-25.07,28.63-3.8,70.38,34.5,67.69,14.07-1,33.08-12.88,27.81-41.6.57.84,1.11,1.69,1.61,2.55a36.06,36.06,0,0,1,5.19,21.58h0a64,64,0,0,1-2.18,11.73l-1.29,3.91c-.64,1.59-1.5,3.72-2.22,5.28l-1.71,3.31c-.69,1.16-1.59,2.71-2.33,3.84l-1.93,2.77c-.69.87-1.58,2.05-2.3,2.9l-2,2.32c-.67.69-1.56,1.62-2.25,2.29l-2.14,2c-.67.57-1.56,1.33-2.25,1.88l-2.23,1.69c-.69.48-1.6,1.13-2.3,1.59l-2.35,1.46c-.73.41-1.7,1-2.44,1.36l-2.53,1.27c-.8.35-1.86.84-2.66,1.17l-2.81,1.08c-.91.29-2.11.71-3,1l-3.1.84-.28.07-3.25.67c-1.11.17-2.58.42-3.68.55l-3.53.3c-1.3,0-3,.11-4.33.09l-3.81-.17c-1.56-.17-3.64-.39-5.19-.63l-4-.81c-1.87-.51-4.37-1.21-6.21-1.82L75.32,974c-2.17-1-5-2.5-7.13-3.69l-3.82-2.51c-4.79-3.69-5-3.83-7.41-6.23l-3.25-3.47a61.31,61.31,0,0,1-6.4-9L45,944.83c-.87-2-2-4.68-2.77-6.72l-1.37-4.58c-.45-2.14-1-5-1.37-7.17l-.42-4.65c0-2.51,0-5.85.14-8.34l.55-4.46c.44-2.19,1.07-5.11,1.64-7.27l1.29-3.92c.64-1.59,1.5-3.71,2.22-5.27l1.71-3.31c.69-1.16,1.59-2.71,2.33-3.84l1.93-2.77c.68-.87,1.58-2,2.29-2.9l2.06-2.32c.67-.69,1.56-1.63,2.25-2.3l2.14-2c.67-.56,1.56-1.33,2.25-1.88l2.22-1.68c.7-.48,1.61-1.13,2.31-1.59l2.35-1.46c.73-.41,1.69-1,2.43-1.36l2.54-1.27c.8-.35,1.85-.84,2.66-1.17l2.81-1.08c.9-.3,2.11-.72,3-1l3.11-.84.28-.06,3.25-.68c1.11-.16,2.57-.41,3.68-.54l3.53-.31c1.3,0,3-.1,4.32-.09l3.81.18c1.56.17,3.64.39,5.2.63l4,.81c1.88.51,4.38,1.21,6.22,1.82l4.05,1.59c2.18,1,5,2.51,7.14,3.69l3.82,2.51a58.73,58.73,0,0,1,7.41,6.23l3.24,3.48a61,61,0,0,1,6.41,8.95l2.3,4.31c.95,2.17,2.17,5.09,3,7.32l1.32,4.59c.43,2.15,1,5,1.3,7.19L160,916c0,2.31,0,5.4-.18,7.71a36.06,36.06,0,0,0-5.19-21.58c-.5-.86-1-1.71-1.61-2.55l-.92-3.13c-11.39-28.43-40.07-39.16-61.39-23a75.13,75.13,0,0,0-15.9,2.88,75.13,75.13,0,0,1,15.9-2.88"/><path class="cls-40" d="M87.78,873.75h0c-24.26,29.31.49,73.44,39,69.43,13.12-1.37,32.23-13.85,27.6-41.5,4.44,7.55,6.07,14.94,5.45,22h0a64,64,0,0,1-2.18,11.73l-1.29,3.91c-.64,1.59-1.5,3.72-2.22,5.28l-1.71,3.31c-.69,1.16-1.59,2.71-2.33,3.84l-1.93,2.77c-.69.87-1.58,2.05-2.3,2.9l-2,2.32c-.67.69-1.56,1.62-2.25,2.29l-2.14,2c-.67.57-1.56,1.33-2.25,1.88l-2.23,1.69c-.69.48-1.6,1.13-2.3,1.59l-2.35,1.46c-.73.41-1.7,1-2.44,1.36l-2.53,1.27c-.8.35-1.86.84-2.66,1.17l-2.81,1.08c-.91.29-2.11.71-3,1l-3.1.84-.28.07-3.25.67c-1.11.17-2.58.42-3.68.55l-3.53.3c-1.3,0-3,.11-4.33.09l-3.81-.17c-1.56-.17-3.64-.39-5.19-.63l-4-.81c-1.87-.51-4.37-1.21-6.21-1.82L75.32,974c-2.17-1-5-2.5-7.13-3.69l-3.82-2.51c-4.79-3.69-5-3.83-7.41-6.23l-3.25-3.47a61.31,61.31,0,0,1-6.4-9L45,944.83c-.87-2-2-4.68-2.77-6.72l-1.37-4.58c-.45-2.14-1-5-1.37-7.17l-.42-4.65c0-2.51,0-5.85.14-8.34l.55-4.46c.44-2.19,1.07-5.11,1.64-7.27l1.29-3.92c.64-1.59,1.5-3.71,2.22-5.27l1.71-3.31c.69-1.16,1.59-2.71,2.33-3.84l1.93-2.77c.68-.87,1.58-2,2.29-2.9l2.06-2.32c.67-.69,1.56-1.63,2.25-2.3l2.14-2c.67-.56,1.56-1.33,2.25-1.88l2.22-1.68c.7-.48,1.61-1.13,2.31-1.59l2.35-1.46c.73-.41,1.69-1,2.43-1.36l2.54-1.27c.8-.35,1.85-.84,2.66-1.17l2.81-1.08c.9-.3,2.11-.72,3-1l3.11-.84.28-.06,3.25-.68c1.11-.16,2.57-.41,3.68-.54l3.53-.31c1.3,0,3-.1,4.32-.09l3.81.18c1.56.17,3.64.39,5.2.63l4,.81c1.88.51,4.38,1.21,6.22,1.82l4.05,1.59c2.18,1,5,2.51,7.14,3.69l3.82,2.51a58.73,58.73,0,0,1,7.41,6.23l3.24,3.48a61,61,0,0,1,6.41,8.95l2.3,4.31c.95,2.17,2.17,5.09,3,7.32l1.32,4.59c.43,2.15,1,5,1.3,7.19L160,916c0,2.31,0,5.4-.18,7.71a36.06,36.06,0,0,0-5.19-21.58L153,897c-9.44-27-40.65-43.43-65.26-23.24a74.41,74.41,0,0,0-13,2.61,74.41,74.41,0,0,1,13-2.61"/><path class="cls-39" d="M84.93,874.12c-26.25,32.59,7.79,74,38.36,71.5,22.24-1.8,34.89-18.23,32.22-41.86a35.73,35.73,0,0,1,4.27,19.94h0a64,64,0,0,1-2.18,11.73l-1.29,3.91c-.64,1.59-1.5,3.72-2.22,5.28l-1.71,3.31c-.69,1.16-1.59,2.71-2.33,3.84l-1.93,2.77c-.69.87-1.58,2.05-2.3,2.9l-2,2.32c-.67.69-1.56,1.62-2.25,2.29l-2.14,2c-.67.57-1.56,1.33-2.25,1.88l-2.23,1.69c-.69.48-1.6,1.13-2.3,1.59l-2.35,1.46c-.73.41-1.7,1-2.44,1.36l-2.53,1.27c-.8.35-1.86.84-2.66,1.17l-2.81,1.08c-.91.29-2.11.71-3,1l-3.1.84-.28.07-3.25.67c-1.11.17-2.58.42-3.68.55l-3.53.3c-1.3,0-3,.11-4.33.09l-3.81-.17c-1.56-.17-3.64-.39-5.19-.63l-4-.81c-1.87-.51-4.37-1.21-6.21-1.82L75.32,974c-2.17-1-5-2.5-7.13-3.69l-3.82-2.51c-4.79-3.69-5-3.83-7.41-6.23l-3.25-3.47a61.31,61.31,0,0,1-6.4-9L45,944.83c-.87-2-2-4.68-2.77-6.72l-1.37-4.58c-.45-2.14-1-5-1.37-7.17l-.42-4.65c0-2.51,0-5.85.14-8.34l.55-4.46c.44-2.19,1.07-5.11,1.64-7.27l1.29-3.92c.64-1.59,1.5-3.71,2.22-5.27l1.71-3.31c.69-1.16,1.59-2.71,2.33-3.84l1.93-2.77c.68-.87,1.58-2,2.29-2.9l2.06-2.32c.67-.69,1.56-1.63,2.25-2.3l2.14-2c.67-.56,1.56-1.33,2.25-1.88l2.22-1.68c.7-.48,1.61-1.13,2.31-1.59l2.35-1.46c.73-.41,1.69-1,2.43-1.36l2.54-1.27c.8-.35,1.85-.84,2.66-1.17l2.81-1.08c.9-.3,2.11-.72,3-1l3.11-.84.28-.06,3.25-.68c1.11-.16,2.57-.41,3.68-.54l3.53-.31c1.3,0,3-.1,4.32-.09l3.81.18c1.56.17,3.64.39,5.2.63l4,.81c1.88.51,4.38,1.21,6.22,1.82l4.05,1.59c2.18,1,5,2.51,7.14,3.69l3.82,2.51a58.73,58.73,0,0,1,7.41,6.23l3.24,3.48a61,61,0,0,1,6.41,8.95l2.3,4.31c.95,2.17,2.17,5.09,3,7.32l1.32,4.59c.43,2.15,1,5,1.3,7.19L160,916c0,2.31,0,5.4-.18,7.71a35.73,35.73,0,0,0-4.27-19.94h0c-7.19-33-44.1-54.12-70.58-29.64a73.69,73.69,0,0,0-10.16,2.24,73.69,73.69,0,0,1,10.16-2.24"/><path class="cls-38" d="M82.16,874.58h0c-23.7,27.12,3,75,40.74,73.25,18.13-.86,36.39-14.37,33.64-42a35.28,35.28,0,0,1,3.24,17.86h0a64,64,0,0,1-2.18,11.73l-1.29,3.91c-.64,1.59-1.5,3.72-2.22,5.28l-1.71,3.31c-.69,1.16-1.59,2.71-2.33,3.84l-1.93,2.77c-.69.87-1.58,2.05-2.3,2.9l-2,2.32c-.67.69-1.56,1.62-2.25,2.29l-2.14,2c-.67.57-1.56,1.33-2.25,1.88l-2.23,1.69c-.69.48-1.6,1.13-2.3,1.59l-2.35,1.46c-.73.41-1.7,1-2.44,1.36l-2.53,1.27c-.8.35-1.86.84-2.66,1.17l-2.81,1.08c-.91.29-2.11.71-3,1l-3.1.84-.28.07-3.25.67c-1.11.17-2.58.42-3.68.55l-3.53.3c-1.3,0-3,.11-4.33.09l-3.81-.17c-1.56-.17-3.64-.39-5.19-.63l-4-.81c-1.87-.51-4.37-1.21-6.21-1.82L75.32,974c-2.17-1-5-2.5-7.13-3.69l-3.82-2.51c-4.79-3.69-5-3.83-7.41-6.23l-3.25-3.47a61.31,61.31,0,0,1-6.4-9L45,944.83c-.87-2-2-4.68-2.77-6.72l-1.37-4.58c-.45-2.14-1-5-1.37-7.17l-.42-4.65c0-2.51,0-5.85.14-8.34l.55-4.46c.44-2.19,1.07-5.11,1.64-7.27l1.29-3.92c.64-1.59,1.5-3.71,2.22-5.27l1.71-3.31c.69-1.16,1.59-2.71,2.33-3.84l1.93-2.77c.68-.87,1.58-2,2.29-2.9l2.06-2.32c.67-.69,1.56-1.63,2.25-2.3l2.14-2c.67-.56,1.56-1.33,2.25-1.88l2.22-1.68c.7-.48,1.61-1.13,2.31-1.59l2.35-1.46c.73-.41,1.69-1,2.43-1.36l2.54-1.27c.8-.35,1.85-.84,2.66-1.17l2.81-1.08c.9-.3,2.11-.72,3-1l3.11-.84.28-.06,3.25-.68c1.11-.16,2.57-.41,3.68-.54l3.53-.31c1.3,0,3-.1,4.32-.09l3.81.18c1.56.17,3.64.39,5.2.63l4,.81c1.88.51,4.38,1.21,6.22,1.82l4.05,1.59c2.18,1,5,2.51,7.14,3.69l3.82,2.51a58.73,58.73,0,0,1,7.41,6.23l3.24,3.48a61,61,0,0,1,6.41,8.95l2.3,4.31c.95,2.17,2.17,5.09,3,7.32l1.32,4.59c.43,2.15,1,5,1.3,7.19L160,916c0,2.31,0,5.4-.18,7.71a35.28,35.28,0,0,0-3.24-17.86l-.93-4.71c-9.85-35.91-51-50.8-73.45-26.55a75,75,0,0,0-7.39,1.78,75,75,0,0,1,7.39-1.78"/><path class="cls-37" d="M79.26,875.18c-17.15,15.32-6.06,71.05,37.51,74.53,21.33,1.7,42.14-12.1,40.66-41.78a34.92,34.92,0,0,1,2.35,15.77h0a64,64,0,0,1-2.18,11.73l-1.29,3.91c-.64,1.59-1.5,3.72-2.22,5.28l-1.71,3.31c-.69,1.16-1.59,2.71-2.33,3.84l-1.93,2.77c-.69.87-1.58,2.05-2.3,2.9l-2,2.32c-.67.69-1.56,1.62-2.25,2.29l-2.14,2c-.67.57-1.56,1.33-2.25,1.88l-2.23,1.69c-.69.48-1.6,1.13-2.3,1.59l-2.35,1.46c-.73.41-1.7,1-2.44,1.36l-2.53,1.27c-.8.35-1.86.84-2.66,1.17l-2.81,1.08c-.91.29-2.11.71-3,1l-3.1.84-.28.07-3.25.67c-1.11.17-2.58.42-3.68.55l-3.53.3c-1.3,0-3,.11-4.33.09l-3.81-.17c-1.56-.17-3.64-.39-5.19-.63l-4-.81c-1.87-.51-4.37-1.21-6.21-1.82L75.32,974c-2.17-1-5-2.5-7.13-3.69l-3.82-2.51c-4.79-3.69-5-3.83-7.41-6.23l-3.25-3.47a61.31,61.31,0,0,1-6.4-9L45,944.83c-.87-2-2-4.68-2.77-6.72l-1.37-4.58c-.45-2.14-1-5-1.37-7.17l-.42-4.65c0-2.51,0-5.85.14-8.34l.55-4.46c.44-2.19,1.07-5.11,1.64-7.27l1.29-3.92c.64-1.59,1.5-3.71,2.22-5.27l1.71-3.31c.69-1.16,1.59-2.71,2.33-3.84l1.93-2.77c.68-.87,1.58-2,2.29-2.9l2.06-2.32c.67-.69,1.56-1.63,2.25-2.3l2.14-2c.67-.56,1.56-1.33,2.25-1.88l2.22-1.68c.7-.48,1.61-1.13,2.31-1.59l2.35-1.46c.73-.41,1.69-1,2.43-1.36l2.54-1.27c.8-.35,1.85-.84,2.66-1.17l2.81-1.08c.9-.3,2.11-.72,3-1l3.11-.84.28-.06,3.25-.68c1.11-.16,2.57-.41,3.68-.54l3.53-.31c1.3,0,3-.1,4.32-.09l3.81.18c1.56.17,3.64.39,5.2.63l4,.81c1.88.51,4.38,1.21,6.22,1.82l4.05,1.59c2.18,1,5,2.51,7.14,3.69l3.82,2.51a58.73,58.73,0,0,1,7.41,6.23l3.24,3.48a61,61,0,0,1,6.41,8.95l2.3,4.31c.95,2.17,2.17,5.09,3,7.32l1.32,4.59c.43,2.15,1,5,1.3,7.19L160,916c0,2.31,0,5.4-.18,7.71a34.92,34.92,0,0,0-2.35-15.77l-.6-4c-11-45.91-59.39-52.85-77.57-28.78-1.51.35-3,.74-4.49,1.18,1.48-.44,3-.83,4.49-1.18"/><path class="cls-36" d="M76,876l-.12.1c-17.1,18.74-1.64,76.92,45.85,75.94,19-.39,37.64-14.95,36.47-42a34.55,34.55,0,0,1,1.6,13.67h0a64,64,0,0,1-2.18,11.73l-1.29,3.91c-.64,1.59-1.5,3.72-2.22,5.28l-1.71,3.31c-.69,1.16-1.59,2.71-2.33,3.84l-1.93,2.77c-.69.87-1.58,2.05-2.3,2.9l-2,2.32c-.67.69-1.56,1.62-2.25,2.29l-2.14,2c-.67.57-1.56,1.33-2.25,1.88l-2.23,1.69c-.69.48-1.6,1.13-2.3,1.59l-2.35,1.46c-.73.41-1.7,1-2.44,1.36l-2.53,1.27c-.8.35-1.86.84-2.66,1.17l-2.81,1.08c-.91.29-2.11.71-3,1l-3.1.84-.28.07-3.25.67c-1.11.17-2.58.42-3.68.55l-3.53.3c-1.3,0-3,.11-4.33.09l-3.81-.17c-1.56-.17-3.64-.39-5.19-.63l-4-.81c-1.87-.51-4.37-1.21-6.21-1.82L75.32,974c-2.17-1-5-2.5-7.13-3.69l-3.82-2.51c-4.79-3.69-5-3.83-7.41-6.23l-3.25-3.47a61.31,61.31,0,0,1-6.4-9L45,944.83c-.87-2-2-4.68-2.77-6.72l-1.37-4.58c-.45-2.14-1-5-1.37-7.17l-.42-4.65c0-2.51,0-5.85.14-8.34l.55-4.46c.44-2.19,1.07-5.11,1.64-7.27l1.29-3.92c.64-1.59,1.5-3.71,2.22-5.27l1.71-3.31c.69-1.16,1.59-2.71,2.33-3.84l1.93-2.77c.68-.87,1.58-2,2.29-2.9l2.06-2.32c.67-.69,1.56-1.63,2.25-2.3l2.14-2c.67-.56,1.56-1.33,2.25-1.88l2.22-1.68c.7-.48,1.61-1.13,2.31-1.59l2.35-1.46c.73-.41,1.69-1,2.43-1.36l2.54-1.27c.8-.35,1.85-.84,2.66-1.17l2.81-1.08c.9-.3,2.11-.72,3-1l3.11-.84.28-.06,3.25-.68c1.11-.16,2.57-.41,3.68-.54l3.53-.31c1.3,0,3-.1,4.32-.09l3.81.18c1.56.17,3.64.39,5.2.63l4,.81c1.88.51,4.38,1.21,6.22,1.82l4.05,1.59c2.18,1,5,2.51,7.14,3.69l3.82,2.51a58.73,58.73,0,0,1,7.41,6.23l3.24,3.48a61,61,0,0,1,6.41,8.95l2.3,4.31c.95,2.17,2.17,5.09,3,7.32l1.32,4.59c.43,2.15,1,5,1.3,7.19L160,916c0,2.31,0,5.4-.18,7.71a34.55,34.55,0,0,0-1.6-13.67l-.6-4.65C151.93,878.2,115.23,838.93,76,876l-1.21.35L76,876"/><path class="cls-28" d="M159.78,923.7a64,64,0,0,1-2.18,11.73l-1.29,3.91c-.64,1.59-1.5,3.72-2.22,5.28l-1.71,3.31c-.69,1.16-1.59,2.71-2.33,3.84l-1.93,2.77c-.69.87-1.58,2.05-2.3,2.9l-2,2.32c-.67.69-1.56,1.62-2.25,2.29l-2.14,2c-.67.57-1.56,1.33-2.25,1.88l-2.23,1.69c-.69.48-1.6,1.13-2.3,1.59l-2.35,1.46c-.73.41-1.7,1-2.44,1.36l-2.53,1.27c-.8.35-1.86.84-2.66,1.17l-2.81,1.08c-.91.29-2.11.71-3,1l-3.1.84-.28.07-3.25.67c-1.11.17-2.58.42-3.68.55l-3.53.3c-1.3,0-3,.11-4.33.09l-3.81-.17c-1.56-.17-3.64-.39-5.19-.63l-4-.81c-1.87-.51-4.37-1.21-6.21-1.82L75.32,974c-2.17-1-5-2.5-7.13-3.69l-3.82-2.51c-4.79-3.69-5-3.83-7.41-6.23l-3.25-3.47a61.31,61.31,0,0,1-6.4-9L45,944.83c-.87-2-2-4.68-2.77-6.72l-1.37-4.58c-.45-2.14-1-5-1.37-7.17l-.42-4.65c0-2.51,0-5.85.14-8.34l.55-4.46c.44-2.19,1.07-5.11,1.64-7.27l1.29-3.92c.64-1.59,1.5-3.71,2.22-5.27l1.71-3.31c.69-1.16,1.59-2.71,2.33-3.84l1.93-2.77c.68-.87,1.58-2,2.29-2.9l2.06-2.32c.67-.69,1.56-1.63,2.25-2.3l2.14-2c.67-.56,1.56-1.33,2.25-1.88l2.22-1.68c.7-.48,1.61-1.13,2.31-1.59l2.35-1.46c.73-.41,1.69-1,2.43-1.36l2.54-1.27c.8-.35,1.85-.84,2.66-1.17l2.81-1.08c.9-.3,2.11-.72,3-1l3.11-.84.28-.06,3.25-.68c1.11-.16,2.57-.41,3.68-.54l3.53-.31c1.3,0,3-.1,4.32-.09l3.81.18c1.56.17,3.64.39,5.2.63l4,.81c1.88.51,4.38,1.21,6.22,1.82l4.05,1.59c2.18,1,5,2.51,7.14,3.69l3.82,2.51a58.73,58.73,0,0,1,7.41,6.23l3.24,3.48a61,61,0,0,1,6.41,8.95l2.3,4.31c.95,2.17,2.17,5.09,3,7.32l1.32,4.59c.43,2.15,1,5,1.3,7.19L160,916c0,2.31,0,5.4-.18,7.71a34.09,34.09,0,0,0-1-11.49l-.4-4.38c-8.89-49.89-64.7-59.67-82.9-33.17a3.17,3.17,0,0,0-.74,1.7c-12.8,9.27-12.35,66.7,35.5,76.78,23.8,5,48.45-8.93,48.54-40.93a34.09,34.09,0,0,1,1,11.49"/><path class="cls-29" d="M159.78,923.7a64,64,0,0,1-2.18,11.73l-1.29,3.91c-.64,1.59-1.5,3.72-2.22,5.28l-1.71,3.31c-.69,1.16-1.59,2.71-2.33,3.84l-1.93,2.77c-.69.87-1.58,2.05-2.3,2.9l-2,2.32c-.67.69-1.56,1.62-2.25,2.29l-2.14,2c-.67.57-1.56,1.33-2.25,1.88l-2.23,1.69c-.69.48-1.6,1.13-2.3,1.59l-2.35,1.46c-.73.41-1.7,1-2.44,1.36l-2.53,1.27c-.8.35-1.86.84-2.66,1.17l-2.81,1.08c-.91.29-2.11.71-3,1l-3.1.84-.28.07-3.25.67c-1.11.17-2.58.42-3.68.55l-3.53.3c-1.3,0-3,.11-4.33.09l-3.81-.17c-1.56-.17-3.64-.39-5.19-.63l-4-.81c-1.87-.51-4.37-1.21-6.21-1.82L75.32,974c-2.17-1-5-2.5-7.13-3.69l-3.82-2.51c-4.79-3.69-5-3.83-7.41-6.23l-3.25-3.47a61.31,61.31,0,0,1-6.4-9L45,944.83c-.87-2-2-4.68-2.77-6.72l-1.37-4.58c-.45-2.14-1-5-1.37-7.17l-.42-4.65c0-2.51,0-5.85.14-8.34l.55-4.46c.44-2.19,1.07-5.11,1.64-7.27l1.29-3.92c.64-1.59,1.5-3.71,2.22-5.27l1.71-3.31c.69-1.16,1.59-2.71,2.33-3.84l1.93-2.77c.68-.87,1.58-2,2.29-2.9l2.06-2.32c.67-.69,1.56-1.63,2.25-2.3l2.14-2c.67-.56,1.56-1.33,2.25-1.88l2.22-1.68c.7-.48,1.61-1.13,2.31-1.59l2.35-1.46c.73-.41,1.69-1,2.43-1.36l2.54-1.27c.8-.35,1.85-.84,2.66-1.17l2.81-1.08c.9-.3,2.11-.72,3-1l3.11-.84.28-.06,3.25-.68c1.11-.16,2.57-.41,3.68-.54l3.53-.31c1.3,0,3-.1,4.32-.09l3.81.18c1.56.17,3.64.39,5.2.63l4,.81c1.88.51,4.38,1.21,6.22,1.82l4.05,1.59c2.18,1,5,2.51,7.14,3.69l3.82,2.51a58.73,58.73,0,0,1,7.41,6.23l3.24,3.48a61,61,0,0,1,6.41,8.95l2.3,4.31c.95,2.17,2.17,5.09,3,7.32l1.32,4.59c.43,2.15,1,5,1.3,7.19L160,916c0,2.31,0,5.4-.18,7.71a34,34,0,0,0-.48-9.31h0c-3.27-50-58.66-70.78-84.08-42.09-28.27,31.9,3.26,87.56,47.53,83.87,21.47-1.78,36.5-19,36.55-41.78a34,34,0,0,1,.48,9.31"/><path class="cls-30" d="M157,899.56a60,60,0,0,1,2.62,11.78L160,916c0,2.31,0,5.4-.18,7.71a33.11,33.11,0,0,0-.12-7l-.15-4.45a55.09,55.09,0,0,0-3.73-16c.36,1,.87,2.27,1.19,3.26"/><path class="cls-30" d="M159.78,923.7a64.35,64.35,0,0,1-2.18,11.73l-1.29,3.91c-.64,1.59-1.5,3.72-2.22,5.28l-1.71,3.31c-.69,1.16-1.59,2.71-2.33,3.84l-1.93,2.77c-.69.87-1.58,2.05-2.3,2.9l-2,2.32c-.67.69-1.56,1.62-2.25,2.29l-2.14,2c-.67.57-1.56,1.33-2.25,1.88l-2.23,1.69c-.69.48-1.6,1.13-2.3,1.59l-2.35,1.46c-.73.41-1.7,1-2.44,1.36l-2.53,1.27c-.8.35-1.86.84-2.66,1.17l-2.81,1.08c-.91.29-2.11.71-3,1l-3.1.84-.28.07-3.25.67c-1.11.17-2.58.42-3.68.55l-3.53.3c-1.3,0-3,.11-4.33.09l-3.81-.17c-1.56-.17-3.64-.39-5.19-.63l-4-.81c-1.87-.51-4.37-1.21-6.21-1.82L75.32,974c-2.17-1-5-2.5-7.13-3.69l-3.82-2.51c-4.79-3.69-5-3.83-7.41-6.23l-3.25-3.47a61.31,61.31,0,0,1-6.4-9L45,944.83c-.87-2-2-4.68-2.77-6.72l-1.37-4.58c-.45-2.14-1-5-1.37-7.17l-.42-4.65c0-2.51,0-5.85.14-8.34l.55-4.46c.44-2.19,1.07-5.11,1.64-7.27l1.29-3.92c.64-1.59,1.5-3.71,2.22-5.27l1.71-3.31c.69-1.16,1.59-2.71,2.33-3.84l1.93-2.77c.68-.87,1.58-2,2.29-2.9l2.06-2.32c.67-.69,1.56-1.63,2.25-2.3l2.14-2c.67-.56,1.56-1.33,2.25-1.88l2.22-1.68c.7-.48,1.61-1.13,2.31-1.59l2.35-1.46c.73-.41,1.69-1,2.43-1.36l2.54-1.27c.8-.35,1.85-.84,2.66-1.17l2.81-1.08c.9-.3,2.11-.72,3-1l3.11-.84.28-.06,3.25-.68c1.11-.16,2.57-.41,3.68-.54l3.53-.31c1.3,0,3-.1,4.32-.09l3.81.18c1.56.17,3.64.39,5.2.63l4,.81c1.88.51,4.38,1.21,6.22,1.82l4.05,1.59c2.09,1,4.84,2.39,6.86,3.52l-3.94-2.15C81.83,844.51,51,883,66.81,922.08c16.92,41.79,72.78,49.4,89.21,12.15a46.52,46.52,0,0,0,3.64-17.49,33.11,33.11,0,0,1,.12,7"/><path class="cls-31" d="M159.59,911.34a60.16,60.16,0,0,1,.19,12.36,33,33,0,0,0,.09-4.56h0a52.22,52.22,0,0,0-.78-11.16c.15,1,.38,2.35.5,3.36"/><path class="cls-31" d="M159.78,923.7a64,64,0,0,1-2.18,11.73l-1.29,3.91c-.64,1.59-1.5,3.72-2.22,5.28l-1.71,3.31c-.69,1.16-1.59,2.71-2.33,3.84l-1.93,2.77c-.69.87-1.58,2.05-2.3,2.9l-2,2.32c-.67.69-1.56,1.62-2.25,2.29l-2.14,2c-.67.57-1.56,1.33-2.25,1.88l-2.23,1.69c-.69.48-1.6,1.13-2.3,1.59l-2.35,1.46c-.73.41-1.7,1-2.44,1.36l-2.53,1.27c-.8.35-1.86.84-2.66,1.17l-2.81,1.08c-.91.29-2.11.71-3,1l-3.1.84-.28.07-3.25.67c-1.11.17-2.58.42-3.68.55l-3.53.3c-1.3,0-3,.11-4.33.09l-3.81-.17c-1.56-.17-3.64-.39-5.19-.63l-4-.81c-1.87-.51-4.37-1.21-6.21-1.82L75.32,974c-2.17-1-5-2.5-7.13-3.69l-3.82-2.51c-4.79-3.69-5-3.83-7.41-6.23l-3.25-3.47a61.31,61.31,0,0,1-6.4-9L45,944.83c-.87-2-2-4.68-2.77-6.72l-1.37-4.58c-.45-2.14-1-5-1.37-7.17l-.42-4.65c0-2.51,0-5.85.14-8.34l.55-4.46c.44-2.19,1.07-5.11,1.64-7.27l1.29-3.92c.64-1.59,1.5-3.71,2.22-5.27l1.71-3.31c.69-1.16,1.59-2.71,2.33-3.84l1.93-2.77c.68-.87,1.58-2,2.29-2.9l2.06-2.32c.67-.69,1.56-1.63,2.25-2.3l2.14-2c.67-.56,1.56-1.33,2.25-1.88l2.22-1.68c.7-.48,1.61-1.13,2.31-1.59l2.35-1.46c.73-.41,1.69-1,2.43-1.36l2.54-1.27c.8-.35,1.85-.84,2.66-1.17l2.81-1.08c.9-.3,2.11-.72,3-1l3.11-.84.28-.06,3.25-.68c1.11-.16,2.57-.41,3.68-.54l3.53-.31c1.3,0,3-.1,4.32-.09l3.81.18c1.56.17,3.64.39,5.2.63l4,.81c1.79.48,4.16,1.14,5.92,1.71l-.49-.16c-48.64-14.27-70.08,32.73-52.31,66.33,23.71,44.83,79,41.87,90.78,5.33,1.43-4.45,2-6.11,2.56-13.73a33,33,0,0,1-.09,4.56"/><path class="cls-32" d="M159.78,923.7q.09-1,.12-1.92l.1-4.26v-.06l-.1,4.61-.12,1.63"/><path class="cls-32" d="M159.78,923.7a64,64,0,0,1-2.18,11.73l-1.29,3.91c-.64,1.59-1.5,3.72-2.22,5.28l-1.71,3.31c-.69,1.16-1.59,2.71-2.33,3.84l-1.93,2.77c-.69.87-1.58,2.05-2.3,2.9l-2,2.32c-.67.69-1.56,1.62-2.25,2.29l-2.14,2c-.67.57-1.56,1.33-2.25,1.88l-2.23,1.69c-.69.48-1.6,1.13-2.3,1.59l-2.35,1.46c-.73.41-1.7,1-2.44,1.36l-2.53,1.27c-.8.35-1.86.84-2.66,1.17l-2.81,1.08c-.91.29-2.11.71-3,1l-3.1.84-.28.07-3.25.67c-1.11.17-2.58.42-3.68.55l-3.53.3c-1.3,0-3,.11-4.33.09l-3.81-.17c-1.56-.17-3.64-.39-5.19-.63l-4-.81c-1.87-.51-4.37-1.21-6.21-1.82L75.32,974c-2.17-1-5-2.5-7.13-3.69l-3.82-2.51c-4.79-3.69-5-3.83-7.41-6.23l-3.25-3.47a61.31,61.31,0,0,1-6.4-9L45,944.83c-.87-2-2-4.68-2.77-6.72l-1.37-4.58c-.45-2.14-1-5-1.37-7.17l-.42-4.65c0-2.51,0-5.85.14-8.34l.55-4.46c.44-2.19,1.07-5.11,1.64-7.27l1.29-3.92c.64-1.59,1.5-3.71,2.22-5.27l1.71-3.31c.69-1.16,1.59-2.71,2.33-3.84l1.93-2.77c.68-.87,1.58-2,2.29-2.9l2.06-2.32c.67-.69,1.56-1.63,2.25-2.3l2.14-2c.67-.56,1.56-1.33,2.25-1.88l2.22-1.68c.7-.48,1.61-1.13,2.31-1.59l2.35-1.46c.73-.41,1.69-1,2.43-1.36l2.54-1.27c.8-.35,1.85-.84,2.66-1.17l2.81-1.08c.9-.3,2.11-.72,3-1l3.11-.84.28-.06,3.25-.68c1.11-.16,2.57-.41,3.68-.54l3.53-.31c1.3,0,3-.1,4.32-.09l3.81.18c1.56.17,3.64.39,5.2.63l-3.51-.45c-43.79-3.79-63.65,46.07-33.22,83.36,24.89,30.5,81.86,30.53,87.23-20q0,1-.12,1.92"/><path class="cls-33" d="M157.6,935.43a63,63,0,0,1-3.51,9.19l-1.71,3.31c-.69,1.16-1.59,2.71-2.33,3.84l-1.93,2.77c-.69.87-1.58,2.05-2.3,2.9l-2,2.32c-.67.69-1.56,1.62-2.25,2.29l-2.14,2c-.67.57-1.56,1.33-2.25,1.88l-2.23,1.69c-.69.48-1.6,1.13-2.3,1.59l-2.35,1.46c-.73.41-1.7,1-2.44,1.36l-2.53,1.27c-.8.35-1.86.84-2.66,1.17l-2.81,1.08c-.91.29-2.11.71-3,1l-3.1.84-.28.07-3.25.67c-1.11.17-2.58.42-3.68.55l-3.53.3c-1.3,0-3,.11-4.33.09l-3.81-.17c-1.56-.17-3.64-.39-5.19-.63l-4-.81c-1.87-.51-4.37-1.21-6.21-1.82L75.32,974c-2.17-1-5-2.5-7.13-3.69l-3.82-2.51c-4.79-3.69-5-3.83-7.41-6.23l-3.25-3.47a61.31,61.31,0,0,1-6.4-9L45,944.83c-.87-2-2-4.68-2.77-6.72l-1.37-4.58c-.45-2.14-1-5-1.37-7.17l-.42-4.65c0-2.51,0-5.85.14-8.34l.55-4.46c.44-2.19,1.07-5.11,1.64-7.27l1.29-3.92c.64-1.59,1.5-3.71,2.22-5.27l1.71-3.31c.69-1.16,1.59-2.71,2.33-3.84l1.93-2.77c.68-.87,1.58-2,2.29-2.9l2.06-2.32c.67-.69,1.56-1.63,2.25-2.3l2.14-2c.67-.56,1.56-1.33,2.25-1.88l2.22-1.68c.7-.48,1.61-1.13,2.31-1.59l2.35-1.46c.73-.41,1.69-1,2.43-1.36l2.54-1.27c.8-.35,1.85-.84,2.66-1.17l2.81-1.08c.9-.3,2.11-.72,3-1l3.11-.84.28-.06,3.25-.68c1.11-.16,2.57-.41,3.68-.54l3.53-.31c1.3,0,3-.1,4.32-.09l-3.44.08c-46.13,3.24-53.8,60.19-22.27,90,32,30.25,78.74,18.49,84.76-21.33l-.76,4.35c-.32,1.3-.69,3-1.08,4.31"/><path class="cls-34" d="M154.09,944.62a59,59,0,0,1-4,7.15l-1.93,2.77c-.69.87-1.58,2.05-2.3,2.9l-2,2.32c-.67.69-1.56,1.62-2.25,2.29l-2.14,2c-.67.57-1.56,1.33-2.25,1.88l-2.23,1.69c-.69.48-1.6,1.13-2.3,1.59l-2.35,1.46c-.73.41-1.7,1-2.44,1.36l-2.53,1.27c-.8.35-1.86.84-2.66,1.17l-2.81,1.08c-.91.29-2.11.71-3,1l-3.1.84-.28.07-3.25.67c-1.11.17-2.58.42-3.68.55l-3.53.3c-1.3,0-3,.11-4.33.09l-3.81-.17c-1.56-.17-3.64-.39-5.19-.63l-4-.81c-1.87-.51-4.37-1.21-6.21-1.82L75.32,974c-2.17-1-5-2.5-7.13-3.69l-3.82-2.51c-4.79-3.69-5-3.83-7.41-6.23l-3.25-3.47a61.31,61.31,0,0,1-6.4-9L45,944.83c-.87-2-2-4.68-2.77-6.72l-1.37-4.58c-.45-2.14-1-5-1.37-7.17l-.42-4.65c0-2.51,0-5.85.14-8.34l.55-4.46c.44-2.19,1.07-5.11,1.64-7.27l1.29-3.92c.64-1.59,1.5-3.71,2.22-5.27l1.71-3.31c.69-1.16,1.59-2.71,2.33-3.84l1.93-2.77c.68-.87,1.58-2,2.29-2.9l2.06-2.32c.67-.69,1.56-1.63,2.25-2.3l2.14-2c.67-.56,1.56-1.33,2.25-1.88l2.22-1.68c.7-.48,1.61-1.13,2.31-1.59l2.35-1.46c.73-.41,1.69-1,2.43-1.36l2.54-1.27c.8-.35,1.85-.84,2.66-1.17l2.81-1.08c.9-.3,2.11-.72,3-1l3.11-.84.28-.06,3.25-.68,2.62-.41-.76.11c-49.83,9.31-49.13,72.54-9.86,98.48,33.38,22.06,67.93,7.1,76.52-21L156.05,940c-.57,1.37-1.3,3.23-2,4.58"/><path class="cls-35" d="M150.05,951.77a58.13,58.13,0,0,1-4.23,5.67l-2,2.32c-.67.69-1.56,1.62-2.25,2.29l-2.14,2c-.67.57-1.56,1.33-2.25,1.88l-2.23,1.69c-.69.48-1.6,1.13-2.3,1.59l-2.35,1.46c-.73.41-1.7,1-2.44,1.36l-2.53,1.27c-.8.35-1.86.84-2.66,1.17l-2.81,1.08c-.91.29-2.11.71-3,1l-3.1.84-.28.07-3.25.67c-1.11.17-2.58.42-3.68.55l-3.53.3c-1.3,0-3,.11-4.33.09l-3.81-.17c-1.56-.17-3.64-.39-5.19-.63l-4-.81c-1.87-.51-4.37-1.21-6.21-1.82L75.32,974c-2.17-1-5-2.5-7.13-3.69l-3.82-2.51c-4.79-3.69-5-3.83-7.41-6.23l-3.25-3.47a61.31,61.31,0,0,1-6.4-9L45,944.83c-.87-2-2-4.68-2.77-6.72l-1.37-4.58c-.45-2.14-1-5-1.37-7.17l-.42-4.65c0-2.51,0-5.85.14-8.34l.55-4.46c.44-2.19,1.07-5.11,1.64-7.27l1.29-3.92c.64-1.59,1.5-3.71,2.22-5.27l1.71-3.31c.69-1.16,1.59-2.71,2.33-3.84l1.93-2.77c.68-.87,1.58-2,2.29-2.9l2.06-2.32c.67-.69,1.56-1.63,2.25-2.3l2.14-2c.67-.56,1.56-1.33,2.25-1.88l2.22-1.68c.7-.48,1.61-1.13,2.31-1.59l2.35-1.46c.73-.41,1.69-1,2.43-1.36l2.54-1.27c.8-.35,1.85-.84,2.66-1.17l2.81-1.08,1.22-.42-.66.22C34.32,878.94,41.65,945.11,91.46,967c13.17,5.79,45.54,8.48,61.51-20.19L151.16,950l-1.11,1.75"/><path class="cls-49" d="M132.68,885.13c16.91,15.3,7,40.3-12.22,43.77-20.77,3.74-36.67-20.25-25.4-38.32,6.19-9.93,25.14-16.74,37.62-5.45"/><path class="cls-50" d="M129.92,885.87c16.47,12,10.17,38.4-10.06,42.15C100.27,931.64,85.35,908.71,96,891.4c4.37-7.08,20.29-15.46,33.9-5.53"/><path class="cls-51" d="M131.5,889.5c13.89,15,2.64,39.26-17.45,37.65-20.43-1.65-26.91-26-14.53-38,7.88-7.64,23.23-9.13,32,.31"/><path class="cls-52" d="M130.75,891.5c12.62,14.82.51,35.78-15.48,34.77-22-1.38-26.24-26-14.81-36.43,8.51-7.76,23-7,30.29,1.66"/><path class="cls-53" d="M130.09,893c7,8.32,3.88,18.14,3.84,18.23-2.85,6.78-2.91,6.91-8.63,11.53,0,0-5.45,2.77-8.84,2.59-24.18-1.28-25.89-25.88-15.18-35,8.29-7,21.75-5.81,28.81,2.61"/><path class="cls-54" d="M129.48,894.3c3.35,4.54,6.23,14.36.48,22.81-.7,1-7.24,10-20.49,6.63C99.19,921.13,97.13,912,95.91,906.58c0-.09-1-9.85,6.18-15.57,8.11-6.42,21.43-4.82,27.39,3.29"/><path class="cls-55" d="M128.83,895.57c8.78,13-1,32-18.49,27.57-14.93-3.76-17.66-23.89-7.44-31.53,6.16-4.6,19.64-5.37,25.93,4"/><path class="cls-56" d="M128.12,896.84c9.61,14.88-4.73,28.7-16.92,25.69-10.51-2.59-12.72-11.09-12.74-11.17-2.12-8.59-.35-15,5.26-19.15,3.2-2.35,16.9-7,24.4,4.63"/><path class="cls-57" d="M124.91,895c7.05,7.69,5.62,12,3,19.74-.59,1.78-5.22,6.79-12.13,7.53-4.91.53-12.35-3.32-14.11-6.47s-6.5-11.63-.55-19.77c4.83-6.61,17-8.42,23.77-1"/><path class="cls-58" d="M127,898.67s2.09,4.79,2.15,7.66a15.77,15.77,0,0,1-1.83,7.7c-4.45,7.12-11.84,7.8-14.44,7.26-17.49-3.61-16.4-22.5-7.7-27.95a21.35,21.35,0,0,1,7.28-2.31,19.48,19.48,0,0,1,6,.83C123,893,127,898.61,127,898.67"/><path class="cls-59" d="M126.47,899.52c3.61,6.82.31,13.77.27,13.83-1.37,1.6-2.73,4.51-4.72,5.21-7.15,2.52-7.15,2.52-12.45.85a13.16,13.16,0,0,1-9.14-9.35c-.09-.67-.91-6.51-.4-8a20.71,20.71,0,0,1,2.28-4.94,13.19,13.19,0,0,1,3.6-3.22l5.9-1.91a18.77,18.77,0,0,1,6.19.64c5.3,1.46,8.44,6.85,8.47,6.91"/><path class="cls-60" d="M125.9,900.36c2.21,4.4,1.18,8.5.51,11.22-.22.85-.5,2-4.89,6.35a68.82,68.82,0,0,1-7.38,2,14.41,14.41,0,0,1-6.21-1.8c-8.28-4.5-7.43-14.29-7.29-15.4a9.27,9.27,0,0,1,2.25-5.1c4-3.76,4-3.76,8.12-4.63,6.33-1.35,12.54,2.67,14.89,7.33"/><path class="cls-61" d="M125.31,901.21c.46,1,1.86,4.58.21,10.78-.54,2-3,3.84-4.51,5.31a24.84,24.84,0,0,1-7.51,1.78,11.11,11.11,0,0,1-4.9-1.4c-11.37-6.07-8.51-21.65,1.54-23.57,9.68-1.86,13.83,4.34,15.17,7.1"/><path class="cls-62" d="M124.7,902.05s1.13,6,.2,9.27c-.57,2-2.92,3.9-4.4,5.35,0,0-6,3.17-11.23.52-6.68-3.42-7-9-7.22-12.74-.11-1.8,1-4.17,2-5.67a12.08,12.08,0,0,1,4-3.24c1.52-.83,8.41-.7,8.45-.69,3.46,1.35,6,2.33,8.24,7.2"/><path class="cls-63" d="M122.32,900.16c.55.8,1.55,1.79,1.73,2.74.42,2.28,1.37,5.72.2,7.71a49.9,49.9,0,0,1-4.27,5.44c-1,.54-7.73,1.3-7.78,1.3-5.55-.44-8-6.3-9.2-9.12a5.78,5.78,0,0,1-.23-2.89l1.87-6,4.1-3.2a21.94,21.94,0,0,1,7.15-.51c1.66.07,3.58,1.54,4.94,2.5a7.77,7.77,0,0,1,1.49,2"/><path class="cls-64" d="M123.37,903.76a11.49,11.49,0,0,1,.14,6.07c-.67,1.95-2.6,4.11-4.08,5.55,0,0-7.21,1.64-8.86.82-5.56-2.74-6.91-6.94-7.07-10a12,12,0,0,1,1.77-6.26,9.57,9.57,0,0,1,4.3-3.14,12,12,0,0,1,5.69-.38c1.64.31,3.54,1.66,5,2.41s2.6,3.24,3.08,4.91"/><path class="cls-65" d="M122.68,904.61a8.08,8.08,0,0,1,.08,4.44,16.38,16.38,0,0,1-3.94,5.59s-6.74,1.47-8.15.68a14.5,14.5,0,0,1-4.06-3s-2.38-4.92-2.38-5.23a13.07,13.07,0,0,1,1.71-6.48,9.77,9.77,0,0,1,4.46-3.12c3.5-1.27,6.59.52,9.32,2.1,1.51.87,2.51,3.32,3,5"/><path class="cls-66" d="M122,905.46a4.81,4.81,0,0,1,0,2.81c-.83,1.87-2.07,4.58-3.81,5.64-1.47.89-4,.88-5.69.76a9.24,9.24,0,0,1-3.4-1.39c-.61-.36-1.57-.77-1.91-1.39-.84-1.52-1.91-3.73-1.89-5.46a10,10,0,0,1,1.31-5.12c1-1.36,3.08-2.43,4.61-3.1,2.68-1.18,7.85,2.11,7.9,2.14a11.44,11.44,0,0,1,2.84,5.11"/><path class="cls-67" d="M121.24,906.3a2,2,0,0,1,0,1.2c-1,1.79-2,4.61-3.67,5.68a6.34,6.34,0,0,1-3.94.54c-1.84-.33-4.59-.9-5.79-2.33s-1.32-4.07-1.42-5.89a6.27,6.27,0,0,1,.86-3.52c1-1.39,3.25-2.28,4.76-3.07a1.83,1.83,0,0,1,1.2-.07c1.64.51,4,1.08,5.27,2.26a11.39,11.39,0,0,1,2.72,5.2"/><path class="cls-68" d="M120.2,906.44c.22,1.72-3.21,6-3.25,6a3.35,3.35,0,0,1-2.2.32c-1.82-.44-4.62-.82-5.83-2.24s-1.18-4.14-1.41-6a3,3,0,0,1,.45-1.89s4.34-3.07,5.17-2.82c1.48.46,3.63.93,4.76,2a8.64,8.64,0,0,1,2.31,4.6"/><path class="cls-69" d="M118.26,904.56c0,.05-.66,6.35-1.94,7.16-.64.4-6.31-2-6.34-2.07-1.21-1.41-1-4.22-1.41-6a.42.42,0,0,1,.06-.25,1.07,1.07,0,0,1,.58-.34c1.78-.45,4.16-1.55,6-1.33a4.14,4.14,0,0,1,3.07,2.87"/><path class="cls-70" d="M115,910.16c-1.1.61-3.1-.47-3.94-1.4s-1.54-2.86-.89-3.85c1-1.55,4.26-.78,6.07-1.17-.32,1.93.48,5.48-1.24,6.42"/><path class="cls-71" d="M113.27,908.29c-.35.19-1-.14-1.24-.43s-.49-.91-.29-1.23c.33-.49,1.37-.24,2-.34-.12.6.11,1.7-.42,2"/></g><path class="cls-74" d="M113.74,859.74c1.78.49,4.14,1.16,5.89,1.74a66.64,66.64,0,0,1,11.19,5.28,67.54,67.54,0,0,1,11.23,8.74A60.87,60.87,0,0,1,157,899.56a62.9,62.9,0,0,1,2.62,11.78,64.58,64.58,0,0,1,.19,12.36,36.06,36.06,0,0,0-5.19-21.58C142.44,881.4,112.8,870,85,874.11c.21-2.39-1.22-4-3.58-4.59,10.35-9.06,22-12.32,32.34-9.78"/><path class="cls-75" d="M64.59,869.13l1.82-1.24a52,52,0,0,1,4.78-2.82,55.18,55.18,0,0,1,5.2-2.44,57.55,57.55,0,0,1,5.83-2.07c1-.27,2.37-.66,3.39-.9a57.92,57.92,0,0,1,6.93-1.22,60.19,60.19,0,0,1,16.86.41c1.3.26,3,.58,4.34.89-10.36-2.54-22,.72-32.34,9.78a11,11,0,0,0-5.62.36,17.49,17.49,0,0,0-5.13,2.51c-3.19-2.84-5.21-3.88-6.06-3.26"/><path class="cls-74" d="M39.22,923.73a59.37,59.37,0,0,1,0-10.36,65,65,0,0,1,2.19-11.73,59.91,59.91,0,0,1,3.51-9.19,58.18,58.18,0,0,1,4-7.15A60.4,60.4,0,0,1,57.49,875c2.85-2.62,2.85-2.62,4.39-3.85.81-.61,1.88-1.44,2.71-2s2.87.42,6.06,3.26c-3,2.1-5.09,5-5.31,7.57a4.74,4.74,0,0,0,0,.84c-17.78,10.1-27.53,26.57-26.11,42.93"/><path class="cls-75" d="M103.54,978.9c-1.48.05-3.45.13-4.93.12a62.75,62.75,0,0,1-9-.8,63.67,63.67,0,0,1-10.23-2.63,66,66,0,0,1-11.19-5.29A67,67,0,0,1,57,961.56a60.8,60.8,0,0,1-14.72-23.45,62,62,0,0,1-2.74-11.75l-.28-2.63c-1.42-16.36,8.33-32.83,26.11-42.93.23,2.68,2.73,4.18,6.27,3.94-7.25,23.75-4.22,56.31,7.94,77,7,12,15.71,17.65,24,17.13"/><path class="cls-74" d="M142.75,960.84l-1.23,1.21a54.43,54.43,0,0,1-4.39,3.85c-3,2.25-3,2.25-4.53,3.28-3.15,2-3.15,2-4.79,2.82a56.89,56.89,0,0,1-5.19,2.44,55,55,0,0,1-5.84,2.06c-1,.28-2.36.66-3.38.91a58.26,58.26,0,0,1-6.93,1.22l-2.93.27c-8.29.52-17-5.17-24-17.13-12.16-20.72-15.19-53.28-7.94-77a13.35,13.35,0,0,0,2.94-.55A17.75,17.75,0,0,0,82,879.72c19.94,10.58,43.61,33.15,55.76,53.87,7.8,13.29,9.18,22.94,5,27.25"/><path class="cls-75" d="M154.59,902.12a36.06,36.06,0,0,1,5.19,21.58,64,64,0,0,1-2.18,11.73,63,63,0,0,1-3.51,9.19,59,59,0,0,1-4,7.15,58.13,58.13,0,0,1-4.23,5.67c-.91,1-2.13,2.4-3.07,3.4,4.17-4.31,2.79-14-5-27.25C125.59,912.87,101.92,890.3,82,879.72a9.72,9.72,0,0,0,3-5.61c27.82-4.12,57.46,7.29,69.61,28"/><ellipse class="cls-76" cx="75.16" cy="877.03" rx="10.78" ry="6.35" transform="translate(-433.45 158.6) rotate(-30.4)"/></g><path class="cls-1" d="M151.7,887.93a83.86,83.86,0,0,1,4.23,8.75,53.08,53.08,0,0,1,2.36,7.47c.31,1.38.74,3.23.94,4.64.3,2.15.56,5,.73,7.2a60.16,60.16,0,0,1-.18,7.71,36.06,36.06,0,0,0-5.19-21.58c-13.66-23.29-49.4-34.82-79.82-25.76,30.42-9.06,66.16,2.47,79.82,25.76a36.06,36.06,0,0,1,5.19,21.58h0a76.22,76.22,0,0,1-1.4,8.77c-.54,2.08-1.38,4.83-2.07,6.87-.38,1.15-1.05,2.61-1.51,3.73-.61,1.51-1.65,3.42-2.42,4.86-.52,1-1.29,2.19-1.86,3.12-.67,1.08-1.65,2.46-2.4,3.49-.58.79-1.41,1.82-2,2.59s-1.59,1.88-2.32,2.63-1.47,1.53-2.12,2.17-1.58,1.47-2.27,2.09-1.55,1.35-2.25,1.88c-1.33,1-3.12,2.35-4.52,3.27-.69.46-1.64,1-2.36,1.47s-1.71,1-2.44,1.36-1.76.91-2.53,1.27-1.86.84-2.66,1.17-2,.76-2.81,1.08-2.11.73-3,1-2.35.69-3.38.91c-2,.41-4.6.9-6.58,1.18-1.16.16-2.71.28-3.88.34s-3,.13-4.33.09c-1.14,0-2.67-.07-3.81-.17-1.56-.14-3.64-.36-5.19-.63-1.21-.22-2.83-.5-4-.81-1.88-.48-4.37-1.21-6.21-1.82a63.85,63.85,0,0,1-8-3.51,56.57,56.57,0,0,1-7-4.29A60.34,60.34,0,0,1,57,961.56a67.14,67.14,0,0,1-6.24-7.23c-1.1-1.5-2.45-3.6-3.41-5.19-.76-1.26-1.62-3-2.3-4.31a59.68,59.68,0,0,1-2.77-6.72,69.62,69.62,0,0,1-2.36-9.22,51,51,0,0,1-.8-7.18,62.7,62.7,0,0,1,.14-8.34c.16-1.34.31-3.14.55-4.46.41-2.2,1.07-5.11,1.64-7.27A54.53,54.53,0,0,1,44.2,894c.67-1.49,1.66-3.43,2.43-4.86.51-1,1.3-2.19,1.86-3.12.65-1.09,1.65-2.46,2.4-3.49.58-.8,1.41-1.83,2-2.59s1.6-1.86,2.32-2.63,1.54-1.64,2.25-2.3,1.47-1.41,2.14-2,1.52-1.3,2.19-1.83,1.59-1.23,2.28-1.73,1.6-1.15,2.31-1.59a47.91,47.91,0,0,1,4.78-2.82h0c.8-.3,1.78-.89,2.54-1.27a59.07,59.07,0,0,1,5.47-2.25,63,63,0,0,1,6.41-1.89c2-.44,4.59-.89,6.58-1.18,1.15-.17,2.71-.29,3.88-.35s3-.14,4.32-.09c2.31.1,5.39.3,7.68.61,1.62.21,3.75.65,5.34,1,1.23.27,2.83.75,4,1.1,1.92.54,4.39,1.57,6.24,2.31a68.85,68.85,0,0,1,7.14,3.69c1.2.68,2.68,1.75,3.82,2.51a71.22,71.22,0,0,1,7.14,6c1.13,1,2.47,2.6,3.51,3.74a41.89,41.89,0,0,1,3,3.76C149.37,884.25,150.78,886.31,151.7,887.93Z"/></g></g><ellipse class="cls-77" cx="105.67" cy="1002.68" rx="41.96" ry="8.82"/><text class="cls-25" transform="translate(485.85 303.88)">Sommer</text><text class="cls-78" transform="translate(1120.67 426.48)">spillet</text></svg>
